<svg width="128" height="18" viewBox="0 0 128 18" fill="none" xmlns="http://www.w3.org/2000/svg">
<g clip-path="url(#clip0_774_44243)">
<path d="M18.0914 1.52214L15.5409 5.94896L16.421 7.47561L20.7227 0H12.1148L12.9949 1.52214H18.0914Z" fill="#FFFFFC"/>
<path d="M18.0914 1.52214L15.5409 5.94896L16.421 7.47561L20.7227 0H12.1148L12.9949 1.52214H18.0914Z" fill="#FFFFFC"/>
<path d="M10.3591 3.04879L18.0914 16.4734H12.9949L12.1148 18H20.7227L10.3591 0L0 18H10.3591L13.6101 12.3528L12.7344 10.8261L9.48348 16.4734H2.63131L10.3591 3.04879Z" fill="#FFFFFC"/>
<path d="M10.3591 10.6992C11.0931 10.6992 11.6882 10.1024 11.6882 9.3662C11.6882 8.63001 11.0931 8.0332 10.3591 8.0332C9.62504 8.0332 9.02997 8.63001 9.02997 9.3662C9.02997 10.1024 9.62504 10.6992 10.3591 10.6992Z" fill="#FFFFFC"/>
<path d="M64.3637 1.05859H62.6799V12.871H64.3637V1.05859Z" fill="#FFFFFC"/>
<path d="M56.4518 1.49023C54.1304 1.49023 52.2444 3.37715 52.2444 5.7099C52.2444 8.04265 54.1304 9.92957 56.4518 9.92957C58.7733 9.92957 60.6592 8.04265 60.6592 5.7099C60.6592 3.37715 58.7733 1.49023 56.4518 1.49023ZM56.4518 8.35338C55.1317 8.35338 54.0585 7.16899 54.0585 5.7054C54.0585 4.2418 55.1272 3.05741 56.4518 3.05741C57.7765 3.05741 58.8452 4.2418 58.8452 5.7054C58.8452 7.16899 57.7765 8.35338 56.4518 8.35338Z" fill="#FFFFFC"/>
<path d="M56.0298 14.8983V11.1875H54.3504V15.128L55.1901 16.587H64.7005V14.8983H56.0298Z" fill="#FFFFFC"/>
<path d="M21.5175 10.6917H23.5381L26.569 5.45882L29.5955 10.6917H31.6161L26.569 1.91016L21.5175 10.6917Z" fill="#FFFFFC"/>
<path d="M34.3103 1.05859H32.6264V16.924H34.3103V1.05859Z" fill="#FFFFFC"/>
<path d="M79.6083 1.05859V5.78264H77.5876V1.05859H75.9083V16.924H77.5876V7.4714H79.6083V16.924H81.2921V1.05859H79.6083Z" fill="#FFFFFC"/>
<path d="M72.0421 5.06252V3.59892H74.5701V1.91016H67.8257V3.59892H70.3583V5.06252L67.1163 10.6872H69.0606L71.1979 6.97646L73.3353 10.6872H75.2796L72.0421 5.06252Z" fill="#FFFFFC"/>
<path d="M48.1403 1.05859V5.78264H46.1556V1.05859H44.4718V8.99354H38.4099V3.58949H43.1382V1.90073H36.7305V9.21871L37.5702 10.6778H44.4718V16.924H46.1556V7.4714H48.1403V16.924H49.8242V1.05859H48.1403Z" fill="#FFFFFC"/>
<path d="M86.6221 2.16602H88.6427V13.7757H94.6507V15.5275H86.6266V2.16602H86.6221Z" fill="#A7A19F"/>
<path d="M96.7207 2.16602H105.059V3.91783H98.7413V7.96186H104.619V9.69566H98.7413V13.7757H105.131V15.5275H96.7207V2.16602Z" fill="#A7A19F"/>
<path d="M107.538 2.16602H115.876V3.91783H109.558V7.96186H115.436V9.69566H109.558V13.7757H115.948V15.5275H107.538V2.16602Z" fill="#A7A19F"/>
<path d="M117.695 2.16602H128V3.91783H123.869V15.5275H121.848V3.92233H117.699V2.17052L117.695 2.16602Z" fill="#A7A19F"/>
</g>
<defs>
<clipPath id="clip0_774_44243">
<rect width="128" height="18" fill="white"/>
</clipPath>
</defs>
</svg>
