<svg width="40" height="41" viewBox="0 0 40 41" fill="none" xmlns="http://www.w3.org/2000/svg">
<mask id="mask0_364_3157" style="mask-type:alpha" maskUnits="userSpaceOnUse" x="0" y="0" width="40" height="41">
<rect y="0.5" width="40" height="40" fill="#D9D9D9"/>
</mask>
<g mask="url(#mask0_364_3157)">
<path fill-rule="evenodd" clip-rule="evenodd" d="M25.6258 18.8128C25.6258 22.8517 22.3517 26.1258 18.3129 26.1258C14.2741 26.1258 11 22.8517 11 18.8128C11 14.774 14.2741 11.4999 18.3129 11.4999C22.3517 11.4999 25.6258 14.774 25.6258 18.8128ZM24.2043 24.6777C22.6989 26.1898 20.6152 27.1258 18.3129 27.1258C13.7218 27.1258 10 23.4039 10 18.8128C10 14.2217 13.7218 10.4999 18.3129 10.4999C22.904 10.4999 26.6258 14.2217 26.6258 18.8128C26.6258 20.7412 25.9692 22.5163 24.8674 23.9266L30.4632 29.5224C30.6585 29.7177 30.6585 30.0343 30.4632 30.2295C30.268 30.4248 29.9514 30.4248 29.7561 30.2295L24.2043 24.6777Z" fill="#2C2923"/>
</g>
</svg>
