<svg width="124" height="40" viewBox="0 0 124 40" fill="none" xmlns="http://www.w3.org/2000/svg">
<g clip-path="url(#clip0_282_4159)">
<path fill-rule="evenodd" clip-rule="evenodd" d="M19.5105 17.17C19.4755 16.9783 19.3105 16.8367 19.1089 16.8367H4.42888L4.35555 16.8425C4.26153 16.8597 4.17651 16.9093 4.1153 16.9827C4.05408 17.0561 4.02055 17.1486 4.02055 17.2442V39.5925L4.02721 39.665C4.04498 39.7587 4.09475 39.8434 4.16801 39.9045C4.24127 39.9656 4.33348 39.9994 4.42888 40H6.40805L6.47971 39.9933C6.66888 39.9592 6.81471 39.7908 6.81471 39.5925V33.5383L6.82138 33.4658C6.8388 33.3723 6.8886 33.2879 6.96205 33.2274C7.0355 33.1669 7.1279 33.1342 7.22305 33.135H10.1847L10.2572 33.1283C10.4464 33.0933 10.5922 32.925 10.5922 32.7267V26.6183L10.5989 26.5433C10.6158 26.4493 10.6654 26.3643 10.7389 26.3033C10.8124 26.2423 10.905 26.2093 11.0005 26.21H19.1089L19.183 26.2042C19.3747 26.1692 19.5164 26.0042 19.5164 25.8025V17.2442L19.5105 17.17ZM35.7255 27.2625C35.6922 27.0725 35.5255 26.9283 35.3255 26.9283H11.7164L11.643 26.9358C11.453 26.9692 11.3089 27.1358 11.3089 27.3358V39.5917L11.3155 39.665C11.3327 39.7588 11.3822 39.8436 11.4555 39.9047C11.5287 39.9657 11.621 39.9992 11.7164 39.9992H19.6797L19.7522 39.9925C19.8459 39.9752 19.9307 39.9256 19.9917 39.8524C20.0527 39.7792 20.0862 39.687 20.0864 39.5917V33.5383L20.093 33.4658C20.11 33.3723 20.1593 33.2877 20.2322 33.2268C20.3052 33.1659 20.3972 33.1325 20.4922 33.1325H26.7214L26.7955 33.1392C26.8891 33.1566 26.9736 33.2063 27.0345 33.2795C27.0954 33.3527 27.1288 33.4448 27.1289 33.54V39.5917L27.1364 39.665C27.1535 39.7587 27.2029 39.8434 27.276 39.9044C27.349 39.9654 27.4412 39.999 27.5364 39.9992H35.3255L35.3989 39.9925C35.4925 39.975 35.577 39.9254 35.6378 39.8522C35.6987 39.779 35.7321 39.6869 35.7322 39.5917V27.3358L35.7255 27.2625ZM53.2947 30.3925C52.5972 30.2183 51.7922 30.1317 50.878 30.1317C49.9639 30.1317 49.1622 30.2183 48.4706 30.3925C47.7797 30.5667 47.1989 30.805 46.7297 31.105C46.2605 31.4058 45.9097 31.7633 45.6747 32.1783C45.4397 32.5933 45.323 33.035 45.323 33.5033C45.3205 33.9631 45.442 34.4151 45.6747 34.8117C45.9097 35.2142 46.2605 35.5667 46.7297 35.8667C47.1989 36.1667 47.7789 36.4042 48.4706 36.5792C49.1614 36.7533 49.9639 36.8408 50.8772 36.8408C51.7922 36.8408 52.5972 36.7533 53.2939 36.5792C53.9914 36.405 54.5747 36.1667 55.0439 35.8667C55.513 35.5658 55.8672 35.2142 56.108 34.8117C56.3489 34.4092 56.4689 33.9725 56.4689 33.5033C56.4689 33.035 56.3489 32.5933 56.108 32.1783C55.8672 31.7633 55.513 31.4058 55.0447 31.105C54.5747 30.805 53.9914 30.5675 53.2947 30.3925ZM69.3822 30.3925C68.6847 30.2183 67.8789 30.1317 66.9655 30.1317C66.0514 30.1317 65.2497 30.2183 64.558 30.3925C63.8664 30.5667 63.2864 30.805 62.8172 31.105C62.348 31.4058 61.9964 31.7633 61.7622 32.1783C61.5272 32.5933 61.4105 33.035 61.4105 33.5033C61.408 33.9631 61.5295 34.4151 61.7622 34.8117C61.9964 35.2142 62.348 35.5667 62.8172 35.8667C63.2864 36.1667 63.8664 36.4042 64.558 36.5792C65.2489 36.7533 66.0514 36.8408 66.9647 36.8408C67.8789 36.8408 68.6847 36.7533 69.3814 36.5792C70.0797 36.405 70.6622 36.1667 71.1314 35.8667C71.6005 35.5658 71.9547 35.2142 72.1955 34.8117C72.4355 34.4092 72.5564 33.9725 72.5564 33.5033C72.5564 33.035 72.4355 32.5933 72.1955 32.1783C71.9547 31.7633 71.6005 31.4058 71.1314 31.105C70.6622 30.805 70.0797 30.5675 69.3822 30.3925ZM49.3447 32.0525C49.7664 31.9617 50.2764 31.9167 50.878 31.9167C51.4789 31.9167 51.9905 31.9617 52.4114 32.0525C52.8314 32.1425 53.1747 32.2592 53.4389 32.4033C53.703 32.5483 53.8955 32.7175 54.0164 32.9092C54.1364 33.1017 54.1964 33.3 54.1964 33.5042C54.1964 33.7083 54.1364 33.9042 54.0164 34.09C53.8955 34.2767 53.703 34.4417 53.4389 34.5867C53.1747 34.73 52.8314 34.8475 52.4114 34.9375C51.9905 35.0283 51.4789 35.0733 50.878 35.0733C50.2764 35.0733 49.7664 35.0283 49.3447 34.9375C48.9239 34.8475 48.5847 34.73 48.3264 34.5867C48.0672 34.4417 47.878 34.2767 47.758 34.09C47.6381 33.9042 47.5772 33.7083 47.5772 33.5042C47.5772 33.3 47.6381 33.1008 47.758 32.9092C47.878 32.7167 48.068 32.5483 48.3264 32.4033C48.5839 32.2592 48.9239 32.1425 49.3447 32.0525ZM65.4322 32.0525C65.853 31.9617 66.3639 31.9167 66.9655 31.9167C67.5664 31.9167 68.078 31.9617 68.4989 32.0525C68.9189 32.1425 69.2622 32.2592 69.5264 32.4033C69.7905 32.5483 69.983 32.7175 70.103 32.9092C70.2239 33.1017 70.2839 33.3 70.2839 33.5042C70.2839 33.7083 70.2239 33.9042 70.103 34.09C69.983 34.2767 69.7905 34.4417 69.5264 34.5867C69.2622 34.73 68.9189 34.8475 68.4989 34.9375C68.078 35.0283 67.5664 35.0733 66.9655 35.0733C66.3639 35.0733 65.853 35.0283 65.4322 34.9375C65.0114 34.8475 64.6714 34.73 64.413 34.5867C64.1547 34.4417 63.9655 34.2767 63.8455 34.09C63.7247 33.9042 63.6647 33.7083 63.6647 33.5042C63.6647 33.3 63.7247 33.1008 63.8455 32.9092C63.9655 32.7167 64.1547 32.5483 64.413 32.4033C64.6714 32.2592 65.0114 32.1425 65.4322 32.0525ZM56.1439 23.9092V19.9958H53.9264V29.9508H56.1439V25.785H58.6514V23.9092H56.1439ZM72.2314 23.9092V19.9958H70.0139V29.9508H72.2314V25.785H74.7389V23.9092H72.2314ZM49.3539 22.0783C49.408 21.5433 49.4289 20.9875 49.4172 20.41H47.1455C47.1939 21.3242 47.1397 22.16 46.983 22.9167C46.8359 23.6503 46.5678 24.3543 46.1897 25C45.8007 25.6511 45.3136 26.2383 44.7455 26.7408C44.1572 27.27 43.4589 27.7633 42.6539 28.22L44.2589 29.6983C45.0883 29.2209 45.8574 28.6457 46.5497 27.985C47.2082 27.3509 47.7675 26.6214 48.2089 25.8208C48.6555 26.5302 49.1988 27.1739 49.823 27.7333C50.4494 28.2909 51.1507 28.7582 51.9064 29.1217L53.2764 27.6608C52.2305 27.1442 51.3764 26.5608 50.7164 25.9108C50.0434 25.246 49.4883 24.4716 49.0747 23.6208C49.2064 23.1283 49.2997 22.6133 49.3539 22.0783ZM65.4414 22.0783C65.4955 21.5433 65.5164 20.9875 65.5047 20.41H63.233C63.2814 21.3242 63.2264 22.16 63.0705 22.9167C62.9234 23.6503 62.6553 24.3543 62.2772 25C61.8882 25.6511 61.4011 26.2382 60.833 26.7408C60.2439 27.27 59.5464 27.7633 58.7414 28.22L60.3464 29.6983C61.1758 29.221 61.945 28.6458 62.6372 27.985C63.2958 27.351 63.8551 26.6214 64.2964 25.8208C64.7427 26.5302 65.2857 27.1739 65.9097 27.7333C66.5361 28.2909 67.2373 28.7582 67.993 29.1217L69.3639 27.6608C68.318 27.1442 67.4639 26.5608 66.8039 25.9108C66.131 25.246 65.5758 24.4716 65.1622 23.6208C65.2939 23.1283 65.3872 22.6133 65.4414 22.0783ZM35.7264 17.1683C35.6914 16.9792 35.5256 16.835 35.3272 16.835L35.3264 16.8342H20.643L20.5697 16.8417C20.3797 16.875 20.2355 17.0417 20.2355 17.2417V25.8033L20.2422 25.8767C20.2594 25.9705 20.3089 26.0553 20.3821 26.1163C20.4554 26.1774 20.5477 26.2108 20.643 26.2108H35.3255L35.3989 26.2033C35.4923 26.1859 35.5767 26.1364 35.6376 26.0634C35.6984 25.9903 35.7319 25.8984 35.7322 25.8033V17.2408L35.7264 17.1683ZM8.91138 21.1392L9.00971 21.1308L9.10555 21.1333C9.24455 21.1428 9.37982 21.1824 9.50198 21.2494C9.62414 21.3164 9.73025 21.4091 9.81296 21.5213C9.89566 21.6334 9.95296 21.7622 9.9809 21.8986C10.0088 22.0351 10.0067 22.1761 9.97471 22.3117C9.92943 22.5021 9.82672 22.674 9.6805 22.8041C9.53428 22.9342 9.35161 23.0163 9.15721 23.0392L9.05555 23.0458C8.81076 23.0509 8.57335 22.9619 8.39211 22.7973C8.21088 22.6327 8.09959 22.4049 8.08113 22.1607C8.06267 21.9166 8.13844 21.6746 8.29286 21.4846C8.44728 21.2946 8.66862 21.171 8.91138 21.1392ZM11.3989 13.1007C11.1724 12.8862 10.8717 12.7674 10.5597 12.7692C10.2387 12.7692 9.93082 12.8967 9.70382 13.1237C9.47682 13.3507 9.3493 13.6586 9.3493 13.9796C9.3493 14.3006 9.47682 14.6085 9.70382 14.8355C9.93082 15.0625 10.2387 15.19 10.5597 15.19L10.6764 15.1842C10.9871 15.1559 11.2749 15.0087 11.4797 14.7733C11.6844 14.5378 11.7904 14.2324 11.7753 13.9208C11.7603 13.6091 11.6254 13.3153 11.3989 13.1007ZM3.14555 8.42L2.98721 8.41583V8.41667C2.39607 8.4165 1.81816 8.59167 1.32659 8.92C0.835011 9.24834 0.45186 9.71509 0.225601 10.2612C-0.00065747 10.8074 -0.0598579 11.4083 0.0554886 11.9881C0.170835 12.5679 0.455546 13.1004 0.873605 13.5184C1.29166 13.9363 1.82429 14.2209 2.4041 14.3361C2.98391 14.4512 3.58486 14.3919 4.13093 14.1655C4.677 13.9391 5.14364 13.5558 5.47184 13.0641C5.80004 12.5724 5.97504 11.9945 5.97471 11.4033C5.97513 10.6383 5.68186 9.90226 5.15542 9.34714C4.62898 8.79201 3.90954 8.46014 3.14555 8.42ZM4.8356 9.65511L4.83555 9.655L4.83471 9.65417C4.83501 9.65448 4.83531 9.65479 4.8356 9.65511ZM4.8356 9.65511L4.91805 9.81583C5.10083 10.2048 5.19622 10.6291 5.1975 11.0588C5.19879 11.4886 5.10595 11.9134 4.9255 12.3035C4.74504 12.6935 4.48137 13.0393 4.15299 13.3166C3.82461 13.5938 3.4395 13.7958 3.02471 13.9083L2.87305 13.945H2.98638C3.66086 13.945 4.30777 13.6774 4.78509 13.2008C5.2624 12.7243 5.53111 12.0778 5.53221 11.4033C5.53221 10.7221 5.26425 10.1092 4.8356 9.65511ZM18.3805 10.1283C18.0069 9.77561 17.5092 9.58457 16.9955 9.59667C16.7345 9.58904 16.4745 9.63387 16.231 9.72852C15.9876 9.82317 15.7656 9.9657 15.5782 10.1477C15.3908 10.3297 15.2419 10.5474 15.1401 10.788C15.0384 11.0286 14.986 11.2871 14.986 11.5483C14.986 11.8095 15.0384 12.0681 15.1401 12.3087C15.2419 12.5493 15.3908 12.767 15.5782 12.949C15.7656 13.131 15.9876 13.2735 16.231 13.3681C16.4745 13.4628 16.7345 13.5076 16.9955 13.5L17.1289 13.4958C17.6422 13.4728 18.1256 13.2482 18.4743 12.8709C18.823 12.4935 19.0087 11.9938 18.9912 11.4803C18.9736 10.9668 18.7542 10.481 18.3805 10.1283ZM18.4355 11.2606C18.425 10.9619 18.3448 10.6698 18.2014 10.4075L18.2914 10.51C18.4869 10.7543 18.6095 11.0488 18.645 11.3597C18.6805 11.6706 18.6275 11.9852 18.4921 12.2673C18.3568 12.5494 18.1445 12.7876 17.8797 12.9543C17.6149 13.1211 17.3085 13.2097 16.9955 13.21C16.9697 13.21 16.9447 13.21 16.9197 13.2058C17.212 13.1431 17.4855 13.013 17.7186 12.8259C17.9517 12.6388 18.1379 12.3999 18.2624 12.1281C18.3868 11.8564 18.4461 11.5593 18.4355 11.2606ZM10.7414 0.00416667L10.5589 0C9.44276 0 8.37152 0.443377 7.58231 1.23259C6.79309 2.02181 6.34971 3.09221 6.34971 4.20833C6.34971 5.32445 6.79309 6.39486 7.58231 7.18407C8.37152 7.97329 9.44193 8.41667 10.558 8.41667C11.6747 8.41623 12.7455 7.97244 13.5351 7.18285C14.3247 6.39327 14.7684 5.32248 14.7689 4.20583C14.7682 3.1215 14.3489 2.07929 13.5986 1.2965C12.8482 0.513714 11.8247 0.0507605 10.7414 0.00416667ZM13.263 1.9475L13.1589 1.7475C13.7916 2.40938 14.1439 3.29021 14.1422 4.20583C14.142 5.12621 13.7879 6.01126 13.1531 6.6777C12.5183 7.34414 11.6515 7.74091 10.7322 7.78583L10.5589 7.79L10.4789 7.78917L10.3989 7.78583C11.0107 7.65421 11.5848 7.38563 12.078 7.00027C12.5711 6.61492 12.9705 6.12282 13.2462 5.56093C13.5218 4.99905 13.6665 4.382 13.6695 3.75616C13.6724 3.13031 13.5334 2.51193 13.263 1.9475ZM19.2446 2.72987C19.0854 2.57935 18.8746 2.49559 18.6555 2.49583C18.4286 2.49583 18.2109 2.586 18.0504 2.7465C17.8899 2.907 17.7997 3.12469 17.7997 3.35167C17.7997 3.57865 17.8899 3.79633 18.0504 3.95683C18.2109 4.11733 18.4286 4.2075 18.6555 4.2075L18.7489 4.2025C18.9667 4.17886 19.1671 4.07261 19.3089 3.90563C19.4507 3.73865 19.523 3.52366 19.5111 3.30493C19.4991 3.0862 19.4037 2.88039 19.2446 2.72987ZM120.044 23.3141C120.138 22.3433 120.174 21.3677 120.153 20.3925V20.3916H109.205V22.1591H117.844C117.842 22.4719 117.83 22.7846 117.808 23.0966C117.131 23.1703 116.451 23.2184 115.77 23.2408C115.073 23.265 114.358 23.2766 113.624 23.2766H109.133V24.9H113.299C114.093 24.9 114.85 24.8825 115.571 24.8458C116.293 24.81 116.984 24.7316 117.646 24.6116C117.586 25.1525 117.495 25.7241 117.376 26.325H106.77V28.0933H113.498V29.3733H109.187V31.1416H117.898V32.2058H109.187V36.7141H120.549V34.9283H111.406V33.8466H120.135V29.3733H115.753V28.0925H122.569V26.3258H119.648C119.819 25.3275 119.951 24.3228 120.044 23.3141ZM87.8151 26.6508V21.0775H77.1751V22.9708H85.5784V24.8283H77.1918V30.2941H81.3409V32.5658H74.7393V34.4241H90.2143V32.5658H83.6126V30.2941H88.3209V28.4358H79.3934V26.6508H87.8151ZM106.302 34.37V32.5125L90.8268 32.5116V34.37H106.302ZM99.8001 22.0958C99.8418 21.67 99.8509 21.2275 99.8268 20.7708H97.5901C97.6143 21.8166 97.5001 22.7375 97.2476 23.5308C97.0092 24.2983 96.6234 25.0119 96.1118 25.6316C95.6068 26.2383 94.9784 26.765 94.2268 27.2091C93.409 27.6852 92.5486 28.0838 91.6568 28.4L93.0276 30.095C94.1924 29.6752 95.2844 29.0761 96.2643 28.3191C97.2391 27.5754 98.0575 26.6465 98.6726 25.5858C99.3133 26.6089 100.118 27.5199 101.053 28.2825C101.979 29.0341 103.061 29.6325 104.299 30.0775L105.653 28.3816C104.222 27.8533 103.019 27.1858 102.045 26.38C101.072 25.575 100.253 24.565 99.5918 23.35C99.6889 22.937 99.7585 22.518 99.8001 22.0958Z" fill="#2C2923"/>
</g>
<defs>
<clipPath id="clip0_282_4159">
<rect width="123.333" height="40" fill="white"/>
</clipPath>
</defs>
</svg>
