<svg width="20" height="20" viewBox="0 0 20 20" fill="none" xmlns="http://www.w3.org/2000/svg">
<mask id="mask0_408_20536" style="mask-type:alpha" maskUnits="userSpaceOnUse" x="0" y="0" width="20" height="20">
<rect width="20" height="20" fill="#D9D9D9"/>
</mask>
<g mask="url(#mask0_408_20536)">
<path d="M9.96717 16.1667C8.24717 16.1667 6.7894 15.5689 5.59384 14.3733C4.39828 13.1779 3.80585 11.7201 3.81655 10H4.45113C4.48322 11.5032 5.0321 12.7957 6.0978 13.8775C7.16349 14.9592 8.45328 15.5 9.96717 15.5C11.4811 15.5 12.7762 14.9618 13.8526 13.8854C14.929 12.809 15.4672 11.5139 15.4672 10C15.4672 8.48612 14.929 7.19098 13.8526 6.11459C12.7762 5.03821 11.4811 4.50001 9.96717 4.50001C9.20217 4.50001 8.49217 4.63772 7.83717 4.91314C7.18217 5.18855 6.59995 5.56793 6.09051 6.05126H8.09551V6.71793H4.63384V3.25647H5.30051V5.99689C5.87537 5.34508 6.56099 4.82154 7.35738 4.42626C8.15391 4.03098 9.02384 3.83334 9.96717 3.83334C10.8219 3.83334 11.6231 3.99404 12.3707 4.31543C13.1182 4.63682 13.7716 5.07709 14.3309 5.63626C14.8901 6.19557 15.3304 6.84904 15.6518 7.59668C15.9731 8.34418 16.1338 9.14529 16.1338 10C16.1338 10.8547 15.9731 11.6558 15.6518 12.4033C15.3304 13.151 14.8901 13.8045 14.3309 14.3638C13.7716 14.9229 13.1182 15.3632 12.3707 15.6846C11.6231 16.006 10.8219 16.1667 9.96717 16.1667ZM12.3872 12.5448L9.68196 9.8398V6.00001H10.3486V9.53522L12.8726 12.0594L12.3872 12.5448Z" fill="#2C2923"/>
</g>
</svg>
