<svg width="48" height="49" viewBox="0 0 48 49" fill="none" xmlns="http://www.w3.org/2000/svg">
<rect x="0.5" y="1" width="47" height="47" rx="7.5" stroke="#4F4F4F"/>
<path fill-rule="evenodd" clip-rule="evenodd" d="M15.5563 16.7275H32.4421C33.7339 16.7275 34.7992 17.807 34.7992 19.1158V28.7905C34.7992 30.0994 33.7339 31.1788 32.4421 31.1788H25.7837C25.7837 31.1788 24.3987 34.7275 23.9326 34.7275C23.4665 34.7275 22.1881 31.1788 22.1881 31.1788H15.5563C14.2646 31.1788 13.1992 30.0994 13.1992 28.7905V19.1158C13.1992 17.807 14.2646 16.7275 15.5563 16.7275ZM18.0599 26.1998C18.6192 26.1998 19.1386 26.0379 19.4715 25.6601C19.8177 25.2823 19.9775 24.9179 19.9775 24.2838C19.9775 23.7036 19.7644 23.1773 19.4848 22.84C19.1918 22.5027 18.7124 22.2193 18.2596 22.2328C17.727 22.2598 17.2742 22.3542 16.9279 22.6511H16.9013V20.5057H15.6362V26.1054H16.9013V25.8355H16.9146C17.181 26.0514 17.5538 26.1998 18.0599 26.1998ZM20.9097 26.1593H22.2014V22.732C22.0949 20.5056 20.2838 20.3977 20.2838 20.3977V21.7875C20.2838 21.7875 20.9097 21.8955 20.9097 22.6916V26.1593ZM26.7958 25.768C27.0088 25.5656 27.1686 25.3497 27.2752 25.0934C27.3817 24.837 27.435 24.5806 27.435 24.2973C27.435 24.0139 27.3817 23.7575 27.2752 23.5012C27.1553 23.2448 27.0088 23.0289 26.7958 22.8265C26.596 22.6376 26.3563 22.4892 26.09 22.3812C25.8236 22.2733 25.544 22.2193 25.251 22.2193C24.9714 22.2193 24.6917 22.2733 24.4254 22.3812C24.159 22.4892 23.9326 22.6376 23.7196 22.8265C23.5065 23.0289 23.3467 23.2583 23.2402 23.5012C23.1336 23.7575 23.0804 24.0139 23.0804 24.2973C23.0804 24.5806 23.1336 24.8505 23.2402 25.0934C23.3467 25.3362 23.5065 25.5656 23.7196 25.768C23.9193 25.9569 24.159 26.1054 24.4254 26.2133C24.6784 26.3212 24.958 26.3752 25.251 26.3752C25.544 26.3752 25.8236 26.3212 26.09 26.2133C26.3563 26.1054 26.596 25.9569 26.7958 25.768ZM31.7497 27.6436C32.1758 27.2253 32.3622 26.6316 32.3622 25.6466H32.3755V22.2598H31.1104V22.5701H31.0971C30.7908 22.2868 30.4712 22.1653 29.9785 22.1653C29.4192 22.1653 28.9398 22.3542 28.5935 22.759C28.2606 23.1638 28.0875 23.7036 28.0875 24.3917C28.0875 24.9989 28.234 25.4847 28.5403 25.849C28.8466 26.2133 29.2993 26.4022 29.8187 26.4022C30.3913 26.4022 30.8041 26.2538 31.0971 25.849H31.1104V26.1054C31.1104 26.78 30.4046 27.1308 29.8853 27.0769V28.0889C30.4979 28.1698 31.2303 28.1428 31.7497 27.6436ZM24.6261 23.6493C24.7859 23.4738 24.9989 23.3794 25.2386 23.3794C25.4917 23.3794 25.7047 23.4604 25.8645 23.6493C26.0377 23.8382 26.1309 24.0406 26.1309 24.2969C26.1309 24.5533 26.0377 24.7692 25.8645 24.9446C25.6914 25.12 25.4783 25.2145 25.2386 25.2145C24.9989 25.2145 24.7992 25.12 24.6261 24.9446C24.4529 24.7557 24.373 24.5533 24.373 24.2969C24.373 24.0406 24.4529 23.8247 24.6261 23.6493ZM17.1554 23.6629C17.3152 23.4875 17.5282 23.3931 17.7679 23.3931C18.021 23.3931 18.2207 23.474 18.3938 23.6629C18.567 23.8383 18.6602 24.0542 18.6602 24.3106C18.6602 24.567 18.567 24.7829 18.3938 24.9583C18.2207 25.1337 18.0076 25.2282 17.7679 25.2282C17.5282 25.2282 17.3285 25.1337 17.1554 24.9583C16.9822 24.7694 16.9023 24.567 16.9023 24.3106C16.9023 24.0542 16.9822 23.8383 17.1554 23.6629ZM30.2328 23.3931C29.9931 23.3931 29.78 23.4875 29.6202 23.6629C29.4471 23.8383 29.3672 24.0542 29.3672 24.3106C29.3672 24.567 29.4471 24.7694 29.6202 24.9583C29.7933 25.1337 29.9931 25.2282 30.2328 25.2282C30.4725 25.2282 30.6856 25.1337 30.8587 24.9583C31.0318 24.7829 31.125 24.567 31.125 24.3106C31.125 24.0542 31.0318 23.8383 30.8587 23.6629C30.6856 23.474 30.4725 23.3931 30.2328 23.3931Z" fill="#FFFFFC"/>
</svg>
