<svg width="32" height="32" viewBox="0 0 32 32" fill="none" xmlns="http://www.w3.org/2000/svg">
<rect width="32" height="32" rx="8" fill="#2C2923"/>
<path d="M8 16C8 12.8043 8 11.2065 8.7615 10.0556C9.10155 9.54168 9.54168 9.10155 10.0556 8.7615C11.2065 8 12.8043 8 16 8C19.1957 8 20.7935 8 21.9444 8.7615C22.4583 9.10155 22.8984 9.54168 23.2385 10.0556C24 11.2065 24 12.8043 24 16C24 19.1957 24 20.7935 23.2385 21.9444C22.8984 22.4583 22.4583 22.8984 21.9444 23.2385C20.7935 24 19.1957 24 16 24C12.8043 24 11.2065 24 10.0556 23.2385C9.54168 22.8984 9.10155 22.4583 8.7615 21.9444C8 20.7935 8 19.1957 8 16Z" fill="#FFFFFC"/>
<path fill-rule="evenodd" clip-rule="evenodd" d="M16 19.257C18.7614 19.257 21 17.6289 21 15.6206C21 13.6123 18.7614 11.9843 16 11.9843C13.2386 11.9843 11 13.6123 11 15.6206C11 16.5202 11.4491 17.3434 12.1932 17.9783L11 20.2683L13.8377 18.9003C14.4921 19.1289 15.2255 19.257 16 19.257Z" fill="#2C2923"/>
</svg>
