<svg width="40" height="40" viewBox="0 0 40 40" fill="none" xmlns="http://www.w3.org/2000/svg">
<rect x="0.5" y="0.5" width="39" height="39" rx="7.5" stroke="#4F4F4F"/>
<path d="M11 20C11 16.4049 11 14.6073 11.8567 13.3126C12.2392 12.7344 12.7344 12.2392 13.3126 11.8567C14.6073 11 16.4049 11 20 11V11C23.5951 11 25.3927 11 26.6874 11.8567C27.2656 12.2392 27.7608 12.7344 28.1433 13.3126C29 14.6073 29 16.4049 29 20V20C29 23.5951 29 25.3927 28.1433 26.6874C27.7608 27.2656 27.2656 27.7608 26.6874 28.1433C25.3927 29 23.5951 29 20 29V29C16.4049 29 14.6073 29 13.3126 28.1433C12.7344 27.7608 12.2392 27.2656 11.8567 26.6874C11 25.3927 11 23.5951 11 20V20Z" fill="#FFFFFC"/>
<path fill-rule="evenodd" clip-rule="evenodd" d="M20 23.6818C23.1066 23.6818 25.625 21.8503 25.625 19.5909C25.625 17.3316 23.1066 15.5 20 15.5C16.8934 15.5 14.375 17.3316 14.375 19.5909C14.375 20.6027 14.8801 21.5288 15.7169 22.2429L14.375 24.8183L17.5659 23.28C18.3025 23.5376 19.1281 23.6818 20 23.6818Z" fill="#2C2923"/>
</svg>
