<svg width="40" height="40" viewBox="0 0 40 40" fill="none" xmlns="http://www.w3.org/2000/svg">
<rect x="0.5" y="0.5" width="39" height="39" rx="7.5" stroke="#4F4F4F"/>
<path fill-rule="evenodd" clip-rule="evenodd" d="M12.1811 12.166H27.8173C29.0135 12.166 30 13.1656 30 14.3776V23.3363C30 24.5483 29.0135 25.5479 27.8173 25.5479H21.6516C21.6516 25.5479 20.3692 28.834 19.9376 28.834C19.506 28.834 18.3222 25.5479 18.3222 25.5479H12.1811C10.985 25.5479 9.99844 24.5483 9.99844 23.3363V14.3776C9.99844 13.1656 10.985 12.166 12.1811 12.166ZM14.4994 20.9373C15.0173 20.9373 15.4983 20.7874 15.8065 20.4375C16.1272 20.0877 16.2751 19.7503 16.2751 19.1631C16.2751 18.6258 16.0778 18.1385 15.8189 17.8261C15.5476 17.5138 15.1037 17.2514 14.6844 17.2639C14.1911 17.2889 13.7719 17.3763 13.4512 17.6512H13.4266V15.6645H12.2551V20.8499H13.4266V20.6H13.4389C13.6855 20.7999 14.0308 20.9373 14.4994 20.9373ZM17.1383 20.8998H18.3345V17.7262C18.2358 15.6645 16.5588 15.5646 16.5588 15.5646V16.8515C16.5588 16.8515 17.1383 16.9515 17.1383 17.6887V20.8998ZM22.5888 20.5375C22.7861 20.3501 22.9341 20.1501 23.0328 19.9127C23.1314 19.6753 23.1807 19.4379 23.1807 19.1756C23.1807 18.9132 23.1314 18.6758 23.0328 18.4384C22.9218 18.201 22.7861 18.0011 22.5888 17.8136C22.4039 17.6387 22.1819 17.5013 21.9353 17.4013C21.6886 17.3013 21.4297 17.2514 21.1584 17.2514C20.8994 17.2514 20.6405 17.3013 20.3938 17.4013C20.1472 17.5013 19.9376 17.6387 19.7403 17.8136C19.543 18.0011 19.395 18.2135 19.2963 18.4384C19.1977 18.6758 19.1484 18.9132 19.1484 19.1756C19.1484 19.4379 19.1977 19.6878 19.2963 19.9127C19.395 20.1377 19.543 20.3501 19.7403 20.5375C19.9252 20.7124 20.1472 20.8499 20.3938 20.9498C20.6281 21.0498 20.8871 21.0997 21.1584 21.0997C21.4297 21.0997 21.6886 21.0498 21.9353 20.9498C22.1819 20.8499 22.4039 20.7124 22.5888 20.5375ZM27.1761 22.2743C27.5707 21.8869 27.7434 21.3371 27.7434 20.425H27.7557V17.2889H26.5842V17.5762H26.5719C26.2882 17.3138 25.9923 17.2014 25.536 17.2014C25.0181 17.2014 24.5742 17.3763 24.2536 17.7512C23.9453 18.126 23.785 18.6258 23.785 19.263C23.785 19.8253 23.9206 20.2751 24.2042 20.6125C24.4879 20.9498 24.9071 21.1247 25.3881 21.1247C25.9183 21.1247 26.3006 20.9873 26.5719 20.6125H26.5842V20.8499C26.5842 21.4746 25.9306 21.7995 25.4497 21.7495V22.6866C26.017 22.7615 26.6952 22.7366 27.1761 22.2743ZM20.5797 18.576C20.7277 18.4135 20.925 18.3261 21.1469 18.3261C21.3812 18.3261 21.5785 18.401 21.7265 18.576C21.8868 18.7509 21.9731 18.9383 21.9731 19.1757C21.9731 19.4131 21.8868 19.613 21.7265 19.7755C21.5662 19.9379 21.3689 20.0254 21.1469 20.0254C20.925 20.0254 20.74 19.9379 20.5797 19.7755C20.4194 19.6005 20.3454 19.4131 20.3454 19.1757C20.3454 18.9383 20.4194 18.7384 20.5797 18.576ZM13.6618 18.5886C13.8098 18.4262 14.0071 18.3387 14.2291 18.3387C14.4634 18.3387 14.6483 18.4137 14.8086 18.5886C14.969 18.7511 15.0553 18.951 15.0553 19.1884C15.0553 19.4258 14.969 19.6257 14.8086 19.7881C14.6483 19.9506 14.451 20.038 14.2291 20.038C14.0071 20.038 13.8221 19.9506 13.6618 19.7881C13.5015 19.6132 13.4275 19.4258 13.4275 19.1884C13.4275 18.951 13.5015 18.7511 13.6618 18.5886ZM25.7715 18.3387C25.5495 18.3387 25.3522 18.4262 25.2043 18.5886C25.0439 18.7511 24.97 18.951 24.97 19.1884C24.97 19.4258 25.0439 19.6132 25.2043 19.7881C25.3646 19.9506 25.5495 20.038 25.7715 20.038C25.9935 20.038 26.1908 19.9506 26.3511 19.7881C26.5114 19.6257 26.5977 19.4258 26.5977 19.1884C26.5977 18.951 26.5114 18.7511 26.3511 18.5886C26.1908 18.4137 25.9935 18.3387 25.7715 18.3387Z" fill="#FFFFFC"/>
</svg>
