<svg width="32" height="32" viewBox="0 0 32 32" fill="none" xmlns="http://www.w3.org/2000/svg">
<rect width="32" height="32" rx="8" fill="#2C2923"/>
<path fill-rule="evenodd" clip-rule="evenodd" d="M8 16C8 12.8043 8 11.2065 8.7615 10.0556C9.10155 9.54168 9.54168 9.10155 10.0556 8.7615C11.2065 8 12.8043 8 16 8C19.1957 8 20.7935 8 21.9444 8.7615C22.4583 9.10155 22.8984 9.54168 23.2385 10.0556C24 11.2065 24 12.8043 24 16C24 19.1957 24 20.7935 23.2385 21.9444C22.8984 22.4583 22.4583 22.8984 21.9444 23.2385C20.7935 24 19.1957 24 16 24C12.8043 24 11.2065 24 10.0556 23.2385C9.54168 22.8984 9.10155 22.4583 8.7615 21.9444C8 20.7935 8 19.1957 8 16ZM20.1416 16.0002C20.1416 18.2876 18.2873 20.1419 15.9999 20.1419C13.7125 20.1419 11.8582 18.2876 11.8582 16.0002C11.8582 13.7128 13.7125 11.8585 15.9999 11.8585C18.2873 11.8585 20.1416 13.7128 20.1416 16.0002ZM15.9999 18.7406C17.5134 18.7406 18.7403 17.5137 18.7403 16.0002C18.7403 14.4867 17.5134 13.2598 15.9999 13.2598C14.4864 13.2598 13.2594 14.4867 13.2594 16.0002C13.2594 17.5137 14.4864 18.7406 15.9999 18.7406ZM20.3051 12.6236C20.8426 12.6236 21.2783 12.1879 21.2783 11.6504C21.2783 11.113 20.8426 10.6772 20.3051 10.6772C19.7677 10.6772 19.332 11.113 19.332 11.6504C19.332 12.1879 19.7677 12.6236 20.3051 12.6236Z" fill="#FFFFFC"/>
</svg>
