<svg width="32" height="32" viewBox="0 0 32 32" fill="none" xmlns="http://www.w3.org/2000/svg">
<rect width="32" height="32" rx="8" fill="#2C2923"/>
<path d="M22.8408 8H9.15923C7.41256 8 6 9.35143 6 11.0166V18.1679C6 19.8331 7.41256 21.1805 9.15923 21.1805H13.8748L15.4819 23.6702C15.4819 23.6702 15.4988 23.7024 15.5327 23.7426C15.6257 23.8954 15.7991 24 16.0021 24C16.2009 24 16.3743 23.8954 16.4673 23.7466C16.5096 23.7024 16.5223 23.6702 16.5223 23.6702L18.1294 21.1805H22.8408C24.5832 21.1805 26 19.8331 26 18.1679V11.0166C26 9.35143 24.5832 8 22.8408 8Z" fill="#FFFFFC"/>
<path d="M11.0121 13.4003C11.0121 13.4003 10.5279 13.4003 10.0849 13.8283V12.1052H9V16.6325H10.0962V16.2796C10.0962 16.2796 10.3552 16.7489 11.0084 16.7489C11.0084 16.7489 12.54 16.6926 12.54 15.0559C12.5438 15.0521 12.4874 13.4003 11.0121 13.4003ZM10.7719 15.7879C10.3852 15.7879 10.0736 15.4763 10.0736 15.0896C10.0736 14.703 10.3852 14.3914 10.7719 14.3914C11.1585 14.3914 11.4701 14.703 11.4701 15.0896C11.4701 15.4763 11.1585 15.7879 10.7719 15.7879Z" fill="#2C2923"/>
<path d="M12.8926 12V13.0511C12.8926 13.0511 13.3881 13.0286 13.3881 13.9521V16.6324H14.4355V13.7043C14.4355 13.7043 14.4805 12 12.8926 12Z" fill="#2C2923"/>
<path d="M16.9995 13.4155C16.9995 13.4155 15.2014 13.4155 15.2014 15.0898C15.2014 15.0898 15.145 16.7453 16.9995 16.7453C16.9995 16.7453 18.8352 16.7416 18.8352 15.0898C18.8352 15.0898 18.8953 13.4155 16.9995 13.4155ZM16.9995 15.788C16.6129 15.788 16.3013 15.4765 16.3013 15.0898C16.3013 14.7031 16.6129 14.3916 16.9995 14.3916C17.3862 14.3916 17.6978 14.7031 17.6978 15.0898C17.6978 15.4765 17.3862 15.788 16.9995 15.788Z" fill="#2C2923"/>
<path d="M21.8343 13.5208V13.8286C21.8343 13.8286 21.5227 13.4156 20.9221 13.4156C20.9221 13.4156 19.3867 13.3481 19.3867 15.0787C19.3867 15.0787 19.3717 16.6929 20.8808 16.6929C20.8808 16.6929 21.4965 16.7154 21.8343 16.2799V16.5314C21.8343 16.5314 21.9132 17.3273 21.1436 17.3273H20.8808V18.2883H21.305C21.305 18.2883 22.8929 18.3071 22.8929 16.5915V13.5208H21.8343ZM21.1849 15.7882C20.7982 15.7882 20.4866 15.4766 20.4866 15.0899C20.4866 14.7033 20.7982 14.3917 21.1849 14.3917C21.5715 14.3917 21.8831 14.7033 21.8831 15.0899C21.8831 15.4766 21.5715 15.7882 21.1849 15.7882Z" fill="#2C2923"/>
</svg>
