<svg width="48" height="49" viewBox="0 0 48 49" fill="none" xmlns="http://www.w3.org/2000/svg">
<rect x="0.5" y="1" width="47" height="47" rx="7.5" stroke="#4F4F4F"/>
<path d="M28.9949 14.5H19.0051C16.2452 14.5 14 16.7459 14 19.5066V28.6485C14 31.4092 16.2452 33.655 19.0051 33.655H28.9949C31.7548 33.655 34 31.4092 34 28.6485V19.5066C34 16.7459 31.7548 14.5 28.9949 14.5ZM15.7656 19.5066C15.7656 17.72 17.2191 16.2661 19.0051 16.2661H28.9949C30.7809 16.2661 32.2344 17.72 32.2344 19.5066V28.6485C32.2344 30.435 30.7809 31.8889 28.9949 31.8889H19.0051C17.2191 31.8889 15.7656 30.435 15.7656 28.6485V19.5066Z" fill="#FFFFFC"/>
<path d="M23.9998 28.7333C26.5663 28.7333 28.6554 26.6447 28.6554 24.0764C28.6554 21.508 26.5674 19.4194 23.9998 19.4194C21.4322 19.4194 19.3442 21.508 19.3442 24.0764C19.3442 26.6447 21.4322 28.7333 23.9998 28.7333ZM23.9998 21.1867C25.5935 21.1867 26.8898 22.4833 26.8898 24.0775C26.8898 25.6717 25.5935 26.9683 23.9998 26.9683C22.4061 26.9683 21.1099 25.6717 21.1099 24.0775C21.1099 22.4833 22.4061 21.1867 23.9998 21.1867Z" fill="#FFFFFC"/>
<path d="M29.0866 20.1716C29.7777 20.1716 30.3409 19.6093 30.3409 18.9169C30.3409 18.2244 29.7788 17.6621 29.0866 17.6621C28.3943 17.6621 27.8322 18.2244 27.8322 18.9169C27.8322 19.6093 28.3943 20.1716 29.0866 20.1716Z" fill="#FFFFFC"/>
</svg>
