<svg width="40" height="40" viewBox="0 0 40 40" fill="none" xmlns="http://www.w3.org/2000/svg">
<rect x="0.5" y="0.5" width="39" height="39" rx="7.5" stroke="#4F4F4F"/>
<path fill-rule="evenodd" clip-rule="evenodd" d="M27.8193 12.9657C28.6803 13.2179 29.3578 13.9669 29.5872 14.9216C30.0035 16.6485 30 20.2499 30 20.2499C30 20.2499 30 23.8512 29.5836 25.5781C29.3543 26.5289 28.6768 27.2779 27.8158 27.534C26.2562 27.9959 20 27.9959 20 27.9959C20 27.9959 13.7438 27.9959 12.1842 27.534C11.3232 27.2818 10.6457 26.5328 10.4164 25.5781C10 23.8512 10 20.2499 10 20.2499C10 20.2499 10 16.6485 10.4199 14.9177C10.6493 13.9669 11.3267 13.2179 12.1877 12.9618C13.7474 12.5 20.0035 12.5 20.0035 12.5C20.0035 12.5 26.2562 12.5 27.8193 12.9657ZM17.7511 16.9785V23.5215L23.5024 20.25L17.7511 16.9785Z" fill="#FFFFFC"/>
</svg>
