<svg width="24" height="25" viewBox="0 0 24 25" fill="none" xmlns="http://www.w3.org/2000/svg">
<path d="M17.4035 16.0385C17.4035 17.5532 16.8816 18.8421 15.838 19.9053C14.7945 20.9684 13.5182 21.5 12.0092 21.5C10.5002 21.5 9.2207 20.9684 8.1707 19.9053C7.1207 18.8421 6.5957 17.5532 6.5957 16.0385V7.30775C6.5957 6.25008 6.95945 5.351 7.68695 4.6105C8.41462 3.87017 9.30729 3.5 10.365 3.5C11.4226 3.5 12.3152 3.87017 13.0427 4.6105C13.7704 5.351 14.1342 6.25008 14.1342 7.30775V15.577C14.1342 16.1642 13.9293 16.6699 13.5195 17.0943C13.1098 17.5186 12.6105 17.7308 12.0215 17.7308C11.4325 17.7308 10.9258 17.5219 10.5015 17.1043C10.0771 16.6866 9.86495 16.1775 9.86495 15.577V7.26925H10.865V15.577C10.865 15.8962 10.9742 16.1682 11.1927 16.3932C11.4114 16.6182 11.6803 16.7308 11.9995 16.7308C12.3188 16.7308 12.5877 16.6182 12.8062 16.3932C13.0249 16.1682 13.1342 15.8962 13.1342 15.577V7.2885C13.1304 6.5115 12.8632 5.8525 12.3327 5.3115C11.8024 4.7705 11.1465 4.5 10.365 4.5C9.58945 4.5 8.93404 4.77375 8.3987 5.32125C7.86337 5.86858 7.5957 6.53075 7.5957 7.30775V16.0385C7.59187 17.2732 8.01945 18.3254 8.87845 19.1953C9.73729 20.0651 10.7832 20.5 12.0162 20.5C13.2315 20.5 14.2646 20.0651 15.1155 19.1953C15.9663 18.3254 16.3956 17.2732 16.4035 16.0385V7.26925H17.4035V16.0385Z" fill="#2C2923"/>
</svg>
