<svg width="32" height="32" viewBox="0 0 32 32" fill="none" xmlns="http://www.w3.org/2000/svg">
<mask id="mask0_651_5114" style="mask-type:alpha" maskUnits="userSpaceOnUse" x="0" y="0" width="32" height="32">
<rect width="32" height="32" fill="#D9D9D9"/>
</mask>
<g mask="url(#mask0_651_5114)">
<path d="M16 20.088L11.956 16.044L12.7649 15.222L15.4286 17.8857V8H16.5714V17.8857L19.2351 15.222L20.044 16.044L16 20.088ZM9.84629 24C9.32019 24 8.88095 23.8238 8.52857 23.4714C8.17619 23.119 8 22.6798 8 22.1537L8 19.3846H9.14286V22.1537C9.14286 22.3297 9.2161 22.491 9.36257 22.6374C9.50905 22.7839 9.67029 22.8571 9.84629 22.8571H22.1537C22.3297 22.8571 22.491 22.7839 22.6374 22.6374C22.7839 22.491 22.8571 22.3297 22.8571 22.1537V19.3846H24V22.1537C24 22.6798 23.8238 23.119 23.4714 23.4714C23.119 23.8238 22.6798 24 22.1537 24H9.84629Z" fill="#2C2923"/>
</g>
</svg>
