<svg width="20" height="21" viewBox="0 0 20 21" fill="none" xmlns="http://www.w3.org/2000/svg">
<mask id="mask0_25_4191" style="mask-type:alpha" maskUnits="userSpaceOnUse" x="0" y="0" width="20" height="21">
<rect y="0.5" width="20" height="20" fill="#D9D9D9"/>
</mask>
<g mask="url(#mask0_25_4191)">
<path d="M10 15.5C10.2778 15.5 10.5139 15.4028 10.7083 15.2083C10.9028 15.0139 11 14.7778 11 14.5C11 14.2222 10.9028 13.9861 10.7083 13.7917C10.5139 13.5972 10.2778 13.5 10 13.5C9.72222 13.5 9.48611 13.5972 9.29167 13.7917C9.09722 13.9861 9 14.2222 9 14.5C9 14.7778 9.09722 15.0139 9.29167 15.2083C9.48611 15.4028 9.72222 15.5 10 15.5ZM9.25 12.3125H10.7708C10.7708 11.7986 10.816 11.434 10.9062 11.2188C10.9965 11.0035 11.2153 10.7292 11.5625 10.3958C12.0486 9.92361 12.3854 9.52083 12.5729 9.1875C12.7604 8.85417 12.8542 8.48611 12.8542 8.08333C12.8542 7.31944 12.5938 6.69792 12.0729 6.21875C11.5521 5.73958 10.8889 5.5 10.0833 5.5C9.375 5.5 8.76042 5.6875 8.23958 6.0625C7.71875 6.4375 7.35417 6.94444 7.14583 7.58333L8.5 8.14583C8.625 7.75694 8.82292 7.45486 9.09375 7.23958C9.36458 7.02431 9.68056 6.91667 10.0417 6.91667C10.4306 6.91667 10.75 7.02778 11 7.25C11.25 7.47222 11.375 7.76389 11.375 8.125C11.375 8.44444 11.2674 8.72917 11.0521 8.97917C10.8368 9.22917 10.5972 9.47222 10.3333 9.70833C9.84722 10.1528 9.54514 10.5174 9.42708 10.8021C9.30903 11.0868 9.25 11.5903 9.25 12.3125ZM10 18.5C8.90278 18.5 7.86806 18.2917 6.89583 17.875C5.92361 17.4583 5.07292 16.8854 4.34375 16.1562C3.61458 15.4271 3.04167 14.5764 2.625 13.6042C2.20833 12.6319 2 11.5972 2 10.5C2 9.38889 2.20833 8.35069 2.625 7.38542C3.04167 6.42014 3.61458 5.57292 4.34375 4.84375C5.07292 4.11458 5.92361 3.54167 6.89583 3.125C7.86806 2.70833 8.90278 2.5 10 2.5C11.1111 2.5 12.1493 2.70833 13.1146 3.125C14.0799 3.54167 14.9271 4.11458 15.6562 4.84375C16.3854 5.57292 16.9583 6.42014 17.375 7.38542C17.7917 8.35069 18 9.38889 18 10.5C18 11.5972 17.7917 12.6319 17.375 13.6042C16.9583 14.5764 16.3854 15.4271 15.6562 16.1562C14.9271 16.8854 14.0799 17.4583 13.1146 17.875C12.1493 18.2917 11.1111 18.5 10 18.5Z" fill="#2C2923"/>
</g>
</svg>
