<svg width="40" height="40" viewBox="0 0 40 40" fill="none" xmlns="http://www.w3.org/2000/svg">
<rect x="0.5" y="0.5" width="39" height="39" rx="7.5" stroke="#4F4F4F"/>
<path d="M24.4954 10.5H15.5046C13.0207 10.5 11 12.6105 11 15.2047V23.7953C11 26.3895 13.0207 28.5 15.5046 28.5H24.4954C26.9793 28.5 29 26.3895 29 23.7953V15.2047C29 12.6105 26.9793 10.5 24.4954 10.5ZM12.5891 15.2047C12.5891 13.5259 13.8972 12.1596 15.5046 12.1596H24.4954C26.1028 12.1596 27.4109 13.5259 27.4109 15.2047V23.7953C27.4109 25.4741 26.1028 26.8404 24.4954 26.8404H15.5046C13.8972 26.8404 12.5891 25.4741 12.5891 23.7953V15.2047Z" fill="#FFFFFC"/>
<path d="M19.9998 23.9534C22.4115 23.9534 24.3747 21.9908 24.3747 19.5773C24.3747 17.1638 22.4126 15.2012 19.9998 15.2012C17.5871 15.2012 15.625 17.1638 15.625 19.5773C15.625 21.9908 17.5871 23.9534 19.9998 23.9534ZM19.9998 16.8619C21.4974 16.8619 22.7155 18.0803 22.7155 19.5784C22.7155 21.0764 21.4974 22.2949 19.9998 22.2949C18.5022 22.2949 17.2841 21.0764 17.2841 19.5784C17.2841 18.0803 18.5022 16.8619 19.9998 16.8619Z" fill="#FFFFFC"/>
<path d="M24.7798 15.907C25.4293 15.907 25.9586 15.3786 25.9586 14.7279C25.9586 14.0772 25.4303 13.5488 24.7798 13.5488C24.1294 13.5488 23.6011 14.0772 23.6011 14.7279C23.6011 15.3786 24.1294 15.907 24.7798 15.907Z" fill="#FFFFFC"/>
</svg>
