<svg width="48" height="49" viewBox="0 0 48 49" fill="none" xmlns="http://www.w3.org/2000/svg">
<rect x="0.5" y="1" width="47" height="47" rx="7.5" stroke="#4F4F4F"/>
<path d="M14.729 24C14.729 20.2051 14.729 18.3077 15.6333 16.941C16.0371 16.3307 16.5597 15.8081 17.17 15.4043C18.5367 14.5 20.4341 14.5 24.229 14.5C28.0239 14.5 29.9213 14.5 31.288 15.4043C31.8983 15.8081 32.4209 16.3307 32.8247 16.941C33.729 18.3077 33.729 20.2051 33.729 24C33.729 27.7949 33.729 29.6923 32.8247 31.059C32.4209 31.6693 31.8983 32.1919 31.288 32.5957C29.9213 33.5 28.0239 33.5 24.229 33.5C20.4341 33.5 18.5367 33.5 17.17 32.5957C16.5597 32.1919 16.0371 31.6693 15.6333 31.059C14.729 29.6923 14.729 27.7949 14.729 24Z" fill="#FFFFFC"/>
<path fill-rule="evenodd" clip-rule="evenodd" d="M24.229 27.8864C27.5082 27.8864 30.1665 25.9531 30.1665 23.5682C30.1665 21.1833 27.5082 19.25 24.229 19.25C20.9498 19.25 18.2915 21.1833 18.2915 23.5682C18.2915 24.6364 18.8249 25.6141 19.7085 26.3679L18.2915 29.0874L21.6614 27.4628C22.4385 27.7343 23.3093 27.8864 24.229 27.8864Z" fill="#2C2923"/>
</svg>
