<svg width="48" height="49" viewBox="0 0 48 49" fill="none" xmlns="http://www.w3.org/2000/svg">
<rect x="0.5" y="1" width="47" height="47" rx="7.5" stroke="#4F4F4F"/>
<path fill-rule="evenodd" clip-rule="evenodd" d="M32.5978 17.2157C33.5447 17.4679 34.2898 18.2169 34.5421 19.1716C35 20.8985 34.9961 24.4999 34.9961 24.4999C34.9961 24.4999 34.9961 28.1012 34.5382 29.8281C34.2859 30.7789 33.5408 31.5279 32.5939 31.784C30.8786 32.2459 23.9981 32.2459 23.9981 32.2459C23.9981 32.2459 17.1175 32.2459 15.4022 31.784C14.4553 31.5318 13.7102 30.7828 13.4579 29.8281C13 28.1012 13 24.4999 13 24.4999C13 24.4999 13 20.8985 13.4618 19.1677C13.7141 18.2169 14.4592 17.4679 15.4061 17.2118C17.1214 16.75 24.0019 16.75 24.0019 16.75C24.0019 16.75 30.8786 16.75 32.5978 17.2157ZM21.7511 21.2284V27.7714L27.5024 24.4999L21.7511 21.2284Z" fill="#FFFFFC"/>
</svg>
