<svg width="20" height="20" viewBox="0 0 20 20" fill="none" xmlns="http://www.w3.org/2000/svg">
<mask id="mask0_390_27331" style="mask-type:alpha" maskUnits="userSpaceOnUse" x="0" y="0" width="20" height="20">
<rect width="20" height="20" fill="#D9D9D9"/>
</mask>
<g mask="url(#mask0_390_27331)">
<path d="M4.67926 17.5009C4.29565 17.5009 3.97537 17.3724 3.71842 17.1155C3.46148 16.8585 3.33301 16.5382 3.33301 16.1546L3.33301 5.5138C3.33301 5.13019 3.46148 4.80991 3.71842 4.55297C3.97537 4.29602 4.29565 4.16755 4.67926 4.16755H6.15342V2.30859H7.05092V4.16755L13.0126 4.16755V2.30859H13.8459V4.16755H15.3201C15.7037 4.16755 16.024 4.29602 16.2809 4.55297C16.5379 4.80991 16.6663 5.13019 16.6663 5.5138V16.1546C16.6663 16.5382 16.5379 16.8585 16.2809 17.1155C16.024 17.3724 15.7037 17.5009 15.3201 17.5009H4.67926ZM4.67926 16.6676H15.3201C15.4484 16.6676 15.566 16.6142 15.6728 16.5073C15.7796 16.4005 15.833 16.283 15.833 16.1546V8.84714H4.16634L4.16634 16.1546C4.16634 16.283 4.21974 16.4005 4.32655 16.5073C4.43336 16.6142 4.55092 16.6676 4.67926 16.6676ZM4.16634 8.01359H15.833V5.5138C15.833 5.38547 15.7796 5.2679 15.6728 5.16109C15.566 5.05429 15.4484 5.00089 15.3201 5.00089L4.67926 5.00089C4.55092 5.00089 4.43336 5.05429 4.32655 5.16109C4.21974 5.2679 4.16634 5.38547 4.16634 5.5138L4.16634 8.01359Z" fill="#A07D3B"/>
</g>
</svg>
