<svg width="24" height="24" viewBox="0 0 24 24" fill="none" xmlns="http://www.w3.org/2000/svg">
<mask id="mask0_1133_24123" style="mask-type:alpha" maskUnits="userSpaceOnUse" x="0" y="0" width="24" height="24">
<rect width="24" height="24" fill="#D9D9D9"/>
</mask>
<g mask="url(#mask0_1133_24123)">
<path d="M12.3981 17.082L7.64403 19.9672C7.5566 19.9891 7.48009 20 7.41452 20C7.34895 20 7.28337 19.9781 7.2178 19.9344C7.15223 19.8907 7.10304 19.8306 7.07026 19.7541C7.03747 19.6776 7.04294 19.5956 7.08665 19.5082L8.33255 14.1311L4.16862 10.4918C4.10304 10.4481 4.05386 10.388 4.02108 10.3115C3.98829 10.235 3.99375 10.153 4.03747 10.0656C4.05933 10 4.09758 9.94536 4.15222 9.90164C4.20687 9.85792 4.27791 9.83607 4.36534 9.83607L9.87354 9.34426L12.0375 4.22951C12.0812 4.16393 12.1304 4.10929 12.185 4.06557C12.2397 4.02186 12.3107 4 12.3981 4C12.4856 4 12.5566 4.02186 12.6112 4.06557C12.6659 4.10929 12.7151 4.16393 12.7588 4.22951L14.9227 9.34426L20.4309 9.83607C20.5183 9.83607 20.5894 9.85792 20.644 9.90164C20.6987 9.94536 20.7479 10 20.7916 10.0656C20.8134 10.153 20.808 10.235 20.7752 10.3115C20.7424 10.388 20.6932 10.4481 20.6276 10.4918L16.4637 14.1311L17.7424 19.5082C17.7642 19.5956 17.7588 19.6776 17.726 19.7541C17.6932 19.8306 17.644 19.8907 17.5785 19.9344C17.5129 19.9781 17.4473 20 17.3817 20C17.3162 20 17.2397 19.9891 17.1522 19.9672L12.3981 17.082Z" fill="#9F8554"/>
</g>
</svg>
