<svg width="121" height="60" viewBox="0 0 121 60" fill="none" xmlns="http://www.w3.org/2000/svg">
<mask id="path-1-inside-1_1327_14503" fill="white">
<path fill-rule="evenodd" clip-rule="evenodd" d="M120.5 42L120.5 60L0.499997 60L0.499998 42C7.04559 42 12.3519 36.6274 12.3519 30C12.3519 23.3726 7.0456 18 0.499999 18L0.5 -5.24536e-06L120.5 0L120.5 18C113.954 18 108.648 23.3726 108.648 30C108.648 36.6274 113.954 42 120.5 42Z"/>
</mask>
<path fill-rule="evenodd" clip-rule="evenodd" d="M120.5 42L120.5 60L0.499997 60L0.499998 42C7.04559 42 12.3519 36.6274 12.3519 30C12.3519 23.3726 7.0456 18 0.499999 18L0.5 -5.24536e-06L120.5 0L120.5 18C113.954 18 108.648 23.3726 108.648 30C108.648 36.6274 113.954 42 120.5 42Z" fill="#FFFFFC"/>
<path d="M120.5 60L120.5 61L121.5 61L121.5 60L120.5 60ZM120.5 42L121.5 42L121.5 41L120.5 41L120.5 42ZM0.499997 60L-0.500003 60L-0.500003 61L0.499997 61L0.499997 60ZM0.499998 42L0.499998 41L-0.500002 41L-0.500002 42L0.499998 42ZM0.499999 18L-0.500001 18L-0.500001 19L0.499999 19L0.499999 18ZM0.5 -5.24536e-06L0.5 -1.00001L-0.5 -1.00001L-0.5 -5.28907e-06L0.5 -5.24536e-06ZM120.5 0L121.5 4.37114e-08L121.5 -1L120.5 -1L120.5 0ZM120.5 18L120.5 19L121.5 19L121.5 18L120.5 18ZM121.5 60L121.5 42L119.5 42L119.5 60L121.5 60ZM0.499997 61L120.5 61L120.5 59L0.499997 59L0.499997 61ZM-0.500002 42L-0.500003 60L1.5 60L1.5 42L-0.500002 42ZM11.3519 30C11.3519 36.0869 6.48163 41 0.499998 41L0.499998 43C7.60955 43 13.3519 37.168 13.3519 30L11.3519 30ZM0.499999 19C6.48164 19 11.3519 23.9131 11.3519 30L13.3519 30C13.3519 22.832 7.60956 17 0.499999 17L0.499999 19ZM-0.5 -5.28907e-06L-0.500001 18L1.5 18L1.5 -5.20165e-06L-0.5 -5.28907e-06ZM120.5 -1L0.5 -1.00001L0.5 0.999995L120.5 1L120.5 -1ZM121.5 18L121.5 4.37114e-08L119.5 -4.37114e-08L119.5 18L121.5 18ZM120.5 17C113.39 17 107.648 22.832 107.648 30L109.648 30C109.648 23.9131 114.518 19 120.5 19L120.5 17ZM107.648 30C107.648 37.168 113.39 43 120.5 43L120.5 41C114.518 41 109.648 36.0869 109.648 30L107.648 30Z" fill="#E4DED3" mask="url(#path-1-inside-1_1327_14503)"/>
</svg>
