<svg width="130" height="24" viewBox="0 0 130 24" fill="none" xmlns="http://www.w3.org/2000/svg">
<path d="M18.1441 5.02214L15.5862 9.44896L16.4688 10.9756L20.7831 3.5H12.1501L13.0327 5.02214H18.1441Z" fill="#FFFFFD"/>
<path d="M18.1441 5.02214L15.5862 9.44896L16.4688 10.9756L20.7831 3.5H12.1501L13.0327 5.02214H18.1441Z" fill="#FFFFFD"/>
<path d="M10.3893 6.54879L18.1441 19.9734H13.0328L12.1501 21.5H20.7831L10.3893 3.5L0 21.5H10.3893L13.6497 15.8528L12.7716 14.3261L9.51113 19.9734H2.63898L10.3893 6.54879Z" fill="#FFFFFD"/>
<path d="M10.3893 14.1992C11.1255 14.1992 11.7223 13.6024 11.7223 12.8662C11.7223 12.13 11.1255 11.5332 10.3893 11.5332C9.65308 11.5332 9.05627 12.13 9.05627 12.8662C9.05627 13.6024 9.65308 14.1992 10.3893 14.1992Z" fill="#FFFFFD"/>
<path d="M64.5513 4.55859H62.8625V16.371H64.5513V4.55859Z" fill="#FFFFFD"/>
<path d="M56.6164 4.99023C54.2881 4.99023 52.3967 6.87715 52.3967 9.2099C52.3967 11.5426 54.2881 13.4296 56.6164 13.4296C58.9446 13.4296 60.836 11.5426 60.836 9.2099C60.836 6.87715 58.9446 4.99023 56.6164 4.99023ZM56.6164 11.8534C55.2924 11.8534 54.2161 10.669 54.2161 9.2054C54.2161 7.7418 55.2879 6.55741 56.6164 6.55741C57.9449 6.55741 59.0167 7.7418 59.0167 9.2054C59.0167 10.669 57.9449 11.8534 56.6164 11.8534Z" fill="#FFFFFD"/>
<path d="M56.1931 18.3983V14.6875H54.5088V18.628L55.3509 20.0871H64.8891V18.3983H56.1931Z" fill="#FFFFFD"/>
<path d="M21.5801 14.1917H23.6066L26.6464 8.95882L29.6817 14.1917H31.7082L26.6464 5.41016L21.5801 14.1917Z" fill="#FFFFFD"/>
<path d="M34.4102 4.55859H32.7214V20.424H34.4102V4.55859Z" fill="#FFFFFD"/>
<path d="M79.8403 4.55859V9.28264H77.8138V4.55859H76.1295V20.424H77.8138V10.9714H79.8403V20.424H81.5291V4.55859H79.8403Z" fill="#FFFFFD"/>
<path d="M72.2521 8.56252V7.09892H74.7875V5.41016H68.0234V7.09892H70.5633V8.56252L67.3119 14.1872H69.2619L71.4055 10.4765L73.5491 14.1872H75.499L72.2521 8.56252Z" fill="#FFFFFD"/>
<path d="M48.2806 4.55859V9.28264H46.2901V4.55859H44.6013V12.4935H38.5218V7.08949H43.2638V5.40073H36.8375V12.7187L37.6797 14.1778H44.6013V20.424H46.2901V10.9714H48.2806V20.424H49.9694V4.55859H48.2806Z" fill="#FFFFFD"/>
<path d="M86.875 5.66602H88.9015V17.2757H94.927V19.0275H86.8795V5.66602H86.875Z" fill="#A7A19F"/>
<path d="M97.0031 5.66602H105.366V7.41783H99.0296V11.4619H104.925V13.1957H99.0296V17.2757H105.438V19.0275H97.0031V5.66602Z" fill="#A7A19F"/>
<path d="M107.852 5.66602H116.215V7.41783H109.878V11.4619H115.773V13.1957H109.878V17.2757H116.287V19.0275H107.852V5.66602Z" fill="#A7A19F"/>
<path d="M118.038 5.66602H128.374V7.41783H124.231V19.0275H122.204V7.42233H118.043V5.67052L118.038 5.66602Z" fill="#A7A19F"/>
</svg>
