<svg width="172" height="24" viewBox="0 0 172 24" fill="none" xmlns="http://www.w3.org/2000/svg">
<g clip-path="url(#clip0_4275_31469)">
<path d="M24.1921 2.02952L20.7816 7.93195L21.9585 9.96748L27.7108 0H16.2001L17.377 2.02952H24.1921Z" fill="#FFFFFD"/>
<path d="M24.1921 2.02952L20.7816 7.93195L21.9585 9.96748L27.7108 0H16.2001L17.377 2.02952H24.1921Z" fill="#FFFFFD"/>
<path d="M13.8524 4.06505L24.1921 21.9645H17.377L16.2001 24H27.7108L13.8524 0L0 24H13.8524L18.1996 16.4704L17.0288 14.4348L12.6815 21.9645H3.51864L13.8524 4.06505Z" fill="#FFFFFD"/>
<path d="M13.8524 14.2676C14.834 14.2676 15.6297 13.4718 15.6297 12.4902C15.6297 11.5086 14.834 10.7129 13.8524 10.7129C12.8708 10.7129 12.0751 11.5086 12.0751 12.4902C12.0751 13.4718 12.8708 14.2676 13.8524 14.2676Z" fill="#FFFFFD"/>
<path d="M86.0685 1.41016H83.8168V17.16H86.0685V1.41016Z" fill="#FFFFFD"/>
<path d="M75.4886 1.98633C72.3843 1.98633 69.8624 4.50222 69.8624 7.61255C69.8624 10.7229 72.3843 13.2388 75.4886 13.2388C78.5929 13.2388 81.1148 10.7229 81.1148 7.61255C81.1148 4.50222 78.5929 1.98633 75.4886 1.98633ZM75.4886 11.1372C73.7233 11.1372 72.2882 9.55801 72.2882 7.60654C72.2882 5.65508 73.7173 4.0759 75.4886 4.0759C77.2599 4.0759 78.689 5.65508 78.689 7.60654C78.689 9.55801 77.2599 11.1372 75.4886 11.1372Z" fill="#FFFFFD"/>
<path d="M74.9241 19.8618V14.9141H72.6785V20.168L73.8013 22.1135H86.5188V19.8618H74.9241Z" fill="#FFFFFD"/>
<path d="M28.7736 14.2537H31.4756L35.5286 7.27647L39.5757 14.2537H42.2777L35.5286 2.54492L28.7736 14.2537Z" fill="#FFFFFD"/>
<path d="M45.8804 1.41016H43.6287V22.564H45.8804V1.41016Z" fill="#FFFFFD"/>
<path d="M106.454 1.41016V7.70888H103.752V1.41016H101.506V22.564H103.752V9.96057H106.454V22.564H108.705V1.41016H106.454Z" fill="#FFFFFD"/>
<path d="M96.3362 6.74807V4.79661H99.7167V2.54492H90.698V4.79661H94.0845V6.74807L89.7493 14.2477H92.3492L95.2074 9.29999L98.0655 14.2477H100.665L96.3362 6.74807Z" fill="#FFFFFD"/>
<path d="M64.3743 1.41016V7.70888H61.7203V1.41016H59.4686V11.9901H51.3625V4.78469H57.6852V2.533H49.1168V12.2903L50.2397 14.2358H59.4686V22.564H61.7203V9.96057H64.3743V22.564H66.6259V1.41016H64.3743Z" fill="#FFFFFD"/>
<path d="M115.833 2.88867H118.535V18.3683H126.569V20.704H115.839V2.88867H115.833Z" fill="#A7A19F"/>
<path d="M129.337 2.88867H140.487V5.22442H132.039V10.6165H139.899V12.9282H132.039V18.3683H140.583V20.704H129.337V2.88867Z" fill="#A7A19F"/>
<path d="M143.802 2.88867H154.952V5.22442H146.504V10.6165H154.364V12.9282H146.504V18.3683H155.048V20.704H143.802V2.88867Z" fill="#A7A19F"/>
<path d="M157.384 2.88867H171.164V5.22442H165.64V20.704H162.938V5.23043H157.39V2.89468L157.384 2.88867Z" fill="#A7A19F"/>
</g>
<defs>
<clipPath id="clip0_4275_31469">
<rect width="171.164" height="24" fill="white"/>
</clipPath>
</defs>
</svg>
