<svg width="131" height="24" viewBox="0 0 131 24" fill="none" xmlns="http://www.w3.org/2000/svg">
<g clip-path="url(#clip0_3241_18779)">
<path d="M18.2113 4.02214L15.6439 8.44896L16.5299 9.97561L20.8601 2.5H12.1951L13.0811 4.02214H18.2113Z" fill="#FFFFFD"/>
<path d="M18.2113 4.02214L15.6439 8.44896L16.5299 9.97561L20.8601 2.5H12.1951L13.0811 4.02214H18.2113Z" fill="#FFFFFD"/>
<path d="M10.4277 5.54879L18.2113 18.9734H13.081L12.1951 20.5H20.86L10.4277 2.5L0 20.5H10.4277L13.7003 14.8528L12.8189 13.3261L9.54634 18.9734H2.64875L10.4277 5.54879Z" fill="#FFFFFD"/>
<path d="M10.4278 13.1992C11.1667 13.1992 11.7657 12.6024 11.7657 11.8662C11.7657 11.13 11.1667 10.5332 10.4278 10.5332C9.68886 10.5332 9.08984 11.13 9.08984 11.8662C9.08984 12.6024 9.68886 13.1992 10.4278 13.1992Z" fill="#FFFFFD"/>
<path d="M64.7904 3.55859H63.0954V15.371H64.7904V3.55859Z" fill="#FFFFFD"/>
<path d="M56.826 3.99023C54.4892 3.99023 52.5908 5.87715 52.5908 8.2099C52.5908 10.5426 54.4892 12.4296 56.826 12.4296C59.1629 12.4296 61.0613 10.5426 61.0613 8.2099C61.0613 5.87715 59.1629 3.99023 56.826 3.99023ZM56.826 10.8534C55.4972 10.8534 54.4169 9.66899 54.4169 8.2054C54.4169 6.7418 55.4926 5.55741 56.826 5.55741C58.1595 5.55741 59.2352 6.7418 59.2352 8.2054C59.2352 9.66899 58.1595 10.8534 56.826 10.8534Z" fill="#FFFFFD"/>
<path d="M56.4012 17.3983V13.6875H54.7107V17.628L55.5559 19.0871H65.1294V17.3983H56.4012Z" fill="#FFFFFD"/>
<path d="M21.6602 13.1917H23.6942L26.7452 7.95882L29.7917 13.1917H31.8257L26.7452 4.41016L21.6602 13.1917Z" fill="#FFFFFD"/>
<path d="M34.5378 3.55859H32.8428V19.424H34.5378V3.55859Z" fill="#FFFFFD"/>
<path d="M80.136 3.55859V8.28264H78.102V3.55859H76.4115V19.424H78.102V9.9714H80.136V19.424H81.831V3.55859H80.136Z" fill="#FFFFFD"/>
<path d="M72.5197 7.56252V6.09892H75.0645V4.41016H68.2754V6.09892H70.8247V7.56252L67.5612 13.1872H69.5184L71.67 9.47646L73.8215 13.1872H75.7787L72.5197 7.56252Z" fill="#FFFFFD"/>
<path d="M48.4595 3.55859V8.28264H46.4616V3.55859H44.7666V11.4935H38.6646V6.08949H43.4242V4.40073H36.9741V11.7187L37.8193 13.1778H44.7666V19.424H46.4616V9.9714H48.4595V19.424H50.1545V3.55859H48.4595Z" fill="#FFFFFD"/>
<path d="M89.3478 4.66602H91.3818V16.2757H97.4296V18.0275H89.3523V4.66602H89.3478Z" fill="#A7A19F"/>
<path d="M99.5179 4.66602H107.912V6.41783H101.552V10.4619H107.469V12.1957H101.552V16.2757H107.984V18.0275H99.5179V4.66602Z" fill="#A7A19F"/>
<path d="M110.407 4.66602H118.8V6.41783H112.441V10.4619H118.357V12.1957H112.441V16.2757H118.873V18.0275H110.407V4.66602Z" fill="#A7A19F"/>
<path d="M120.631 4.66602H131.005V6.41783H126.846V18.0275H124.812V6.42233H120.636V4.67052L120.631 4.66602Z" fill="#A7A19F"/>
</g>
<defs>
<clipPath id="clip0_3241_18779">
<rect width="131" height="18" fill="white" transform="translate(0 2.5)"/>
</clipPath>
</defs>
</svg>
