<svg width="158" height="25" viewBox="0 0 158 25" fill="none" xmlns="http://www.w3.org/2000/svg">
<g clip-path="url(#clip0_2849_32257)">
<path d="M24.1948 2.5321L20.7867 8.43367L21.9594 10.47L27.7128 0.5H16.206L17.3787 2.5321H24.1948Z" fill="#FFFFFC"/>
<path d="M24.1948 2.5321L20.7867 8.43367L21.9594 10.47L27.7128 0.5H16.206L17.3787 2.5321H24.1948Z" fill="#FFFFFC"/>
<path d="M13.8564 4.56421L24.1947 22.4679H17.3787L16.206 24.5H27.7128L13.8564 0.5L0 24.5H13.8564L18.2043 16.9727L17.0316 14.9406L12.6837 22.4679H3.52231L13.8564 4.56421Z" fill="#FFFFFC"/>
<path d="M13.8564 14.7671C14.8384 14.7671 15.6345 13.971 15.6345 12.989C15.6345 12.007 14.8384 11.2109 13.8564 11.2109C12.8744 11.2109 12.0783 12.007 12.0783 12.989C12.0783 13.971 12.8744 14.7671 13.8564 14.7671Z" fill="#FFFFFC"/>
<path d="M128.323 20.8677H114.611V19.7543H120.775V16.9178H116.33V12.2947H125.292V9.93243H116.296V8.83594H126.587V13.3743H117.642V15.8213H126.939V16.9178H122.07V19.7543H128.319V20.8677H128.323Z" fill="#FFFFFC"/>
<path d="M129.001 19.5849H142.713V20.6814H129.001V19.5849ZM137.29 12.3032C137.84 13.061 138.543 13.7088 139.398 14.238C140.253 14.7672 141.121 15.1185 142.006 15.2794L141.401 16.3928C140.63 16.2108 139.877 15.9187 139.14 15.5165C138.403 15.1101 137.739 14.6105 137.146 14.0136C136.553 13.4167 136.104 12.7647 135.791 12.0577C135.478 12.7647 135.025 13.4167 134.436 14.0094C133.848 14.6021 133.183 15.1016 132.442 15.5123C131.706 15.9187 130.952 16.215 130.182 16.3928L129.576 15.2794C130.457 15.1101 131.325 14.7629 132.176 14.2337C133.027 13.7045 133.725 13.061 134.267 12.3032C134.809 11.5454 135.084 10.7538 135.084 9.93245V8.78516H136.464V9.93245C136.464 10.7538 136.739 11.5454 137.29 12.3032Z" fill="#FFFFFC"/>
<path d="M155.299 9.50909C155.299 10.2965 155.278 11.0035 155.236 11.6343C155.194 12.2651 155.096 12.9679 154.935 13.7426H157.031V14.8053H150.85V16.4098H155.414V19.8855H146.35V21.4562H155.934V22.5188H145.037V18.8906H154.101V17.4385H145.008V16.4098H149.554V14.8053H143.407V13.7426H153.606C153.746 13.1034 153.847 12.4726 153.911 11.8545L144.94 12.244L144.771 11.1813L153.966 10.9189C153.978 10.7241 153.983 10.4362 153.983 10.0594V9.47522H145.122V8.4126H155.295V9.50909H155.299Z" fill="#FFFFFC"/>
<path d="M85.7421 2.52344H83.6211V17.3705H85.7421V2.52344Z" fill="#FFFFFC"/>
<path d="M75.7679 3.06104C72.8382 3.06104 70.4675 5.43606 70.4675 8.36144C70.4675 11.2868 72.8425 13.6618 75.7679 13.6618C78.6932 13.6618 81.0683 11.2868 81.0683 8.36144C81.0683 5.43606 78.6932 3.06104 75.7679 3.06104ZM75.7679 11.6932C74.1041 11.6932 72.7536 10.203 72.7536 8.36567C72.7536 6.52831 74.1041 5.0381 75.7679 5.0381C77.4316 5.0381 78.7821 6.52831 78.7821 8.36567C78.7821 10.203 77.4316 11.6932 75.7679 11.6932Z" fill="#FFFFFC"/>
<path d="M75.2387 19.9147V15.2451H73.1177V20.1984L74.1803 22.0315H86.1612V19.9147H75.2387Z" fill="#FFFFFC"/>
<path d="M31.7432 14.6231H34.2875L38.1062 8.04842L41.9249 14.6231H44.4735L38.1062 3.59473L31.7432 14.6231Z" fill="#FFFFFC"/>
<path d="M47.8645 2.52344H45.7435V22.4592H47.8645V2.52344Z" fill="#FFFFFC"/>
<path d="M104.954 2.52344V8.45888H102.41V2.52344H100.289V22.4592H102.41V10.5799H104.954V22.4592H107.075V2.52344H104.954Z" fill="#FFFFFC"/>
<path d="M95.4158 7.54886V5.71574H98.6036V3.59473H90.1069V5.71574H93.2948V7.54886L89.2136 14.6231H91.6606L94.3532 9.95775L97.0499 14.6231H99.4969L95.4158 7.54886Z" fill="#FFFFFC"/>
<path d="M65.2983 2.52344V8.45888H62.792V2.52344H60.671V12.4892H53.0337V5.70283H58.9903V3.58183H50.9127V12.7729L51.9753 14.6102H60.671V22.4592H62.792V10.5799H65.2983V22.4592H67.4193V2.52344H65.2983Z" fill="#FFFFFC"/>
</g>
<defs>
<clipPath id="clip0_2849_32257">
<rect width="157.035" height="24" fill="white" transform="translate(0 0.5)"/>
</clipPath>
</defs>
</svg>
