<svg width="32" height="32" viewBox="0 0 32 32" fill="none" xmlns="http://www.w3.org/2000/svg">
<mask id="mask0_70_27350" style="mask-type:alpha" maskUnits="userSpaceOnUse" x="0" y="0" width="32" height="32">
<rect width="32" height="32" fill="#D9D9D9"/>
</mask>
<g mask="url(#mask0_70_27350)">
<path d="M16 15.9226L5.12833 8.71064V23.386C5.12833 23.6253 5.20522 23.8219 5.359 23.9756C5.51278 24.1294 5.70933 24.2063 5.94867 24.2063H18.1027V25.3346H5.94867C5.40244 25.3346 4.94111 25.1464 4.56467 24.77C4.18822 24.3935 4 23.9322 4 23.386V8.61664C4 8.07041 4.18822 7.60908 4.56467 7.23264C4.94111 6.85619 5.40244 6.66797 5.94867 6.66797H26.0513C26.5976 6.66797 27.0589 6.85619 27.4353 7.23264C27.8118 7.60908 28 8.07041 28 8.61664V18.104H26.8717V8.71064L16 15.9226ZM16 14.6406L26.4617 7.7963H5.53833L16 14.6406ZM24.9607 29.015L24.183 28.2373L27.0267 25.3346H20.0513V24.2063H27.052L24.1497 21.304L24.9607 20.526L29.205 24.7706L24.9607 29.015ZM5.12833 8.71064V25.039V18.104V18.3373V7.7963V8.71064Z" fill="#2C2923"/>
</g>
</svg>
