<svg width="32" height="32" viewBox="0 0 32 32" fill="none" xmlns="http://www.w3.org/2000/svg">
<mask id="mask0_70_27346" style="mask-type:alpha" maskUnits="userSpaceOnUse" x="0" y="0" width="32" height="32">
<rect width="32" height="32" fill="#D9D9D9"/>
</mask>
<g mask="url(#mask0_70_27346)">
<path d="M25.602 15.2105C25.4083 12.6709 24.4215 10.5113 22.6417 8.73149C20.8621 6.95171 18.7083 5.9706 16.18 5.78816V4.66016C17.6027 4.73527 18.9373 5.0596 20.1837 5.63316C21.4301 6.20671 22.5245 6.96738 23.4667 7.91516C24.4089 8.86293 25.1667 9.96005 25.74 11.2065C26.3136 12.4529 26.6437 13.7876 26.7304 15.2105H25.602ZM20.1714 15.2105C19.9776 14.1849 19.5204 13.3055 18.7997 12.5722C18.0788 11.8388 17.2056 11.3895 16.18 11.2242V10.0958C17.5185 10.2612 18.6579 10.8175 19.5984 11.7648C20.5388 12.7122 21.1059 13.8607 21.2997 15.2105H20.1714ZM25.2074 26.6652C23.0245 26.6652 20.758 26.0969 18.408 24.9605C16.0583 23.824 13.8555 22.2279 11.7997 20.1722C9.76081 18.1162 8.17314 15.9175 7.0367 13.5762C5.90025 11.2348 5.33203 8.97271 5.33203 6.78982C5.33203 6.38071 5.46848 6.03538 5.74136 5.75382C6.01425 5.47249 6.35525 5.33182 6.76436 5.33182H9.8247C10.2016 5.33182 10.5206 5.44682 10.7817 5.67682C11.0426 5.9066 11.2244 6.20927 11.327 6.58482L12.009 9.61616C12.0604 9.97594 12.0449 10.2959 11.9627 10.5762C11.8807 10.8566 11.7377 11.0874 11.5337 11.2685L8.5807 14.0242C9.17114 15.0639 9.80292 16.0245 10.476 16.9058C11.1494 17.7869 11.8646 18.6122 12.6217 19.3815C13.4395 20.2139 14.3178 20.9773 15.2567 21.6715C16.1958 22.3659 17.222 23.0179 18.3354 23.6275L21.209 20.6875C21.4295 20.4464 21.6709 20.2866 21.9334 20.2082C22.1958 20.1299 22.4871 20.113 22.8074 20.1575L25.4124 20.7215C25.7895 20.799 26.0926 20.982 26.3217 21.2705C26.5508 21.5587 26.6654 21.8892 26.6654 22.2618V25.2328C26.6654 25.6419 26.5247 25.9829 26.2434 26.2558C25.9618 26.5287 25.6165 26.6652 25.2074 26.6652ZM8.03036 13.0002L10.7517 10.4788C10.8257 10.4104 10.8756 10.3164 10.9014 10.1968C10.9269 10.077 10.9284 9.96594 10.9057 9.86349L10.2484 6.87016C10.2255 6.73349 10.1685 6.63093 10.0774 6.56249C9.98625 6.49427 9.87225 6.46016 9.73536 6.46016H6.8217C6.71925 6.46016 6.63381 6.49427 6.56536 6.56249C6.49692 6.63093 6.4627 6.71649 6.4627 6.81916C6.4667 7.7336 6.60581 8.70904 6.88003 9.74549C7.15403 10.7819 7.53748 11.8668 8.03036 13.0002ZM19.4217 24.1558C20.3295 24.6203 21.3203 24.9656 22.394 25.1918C23.4678 25.4178 24.3958 25.5368 25.178 25.5488C25.2807 25.5488 25.3663 25.5147 25.4347 25.4465C25.5029 25.378 25.537 25.2925 25.537 25.1898V22.3132C25.537 22.1763 25.5029 22.0623 25.4347 21.9712C25.3663 21.88 25.2637 21.823 25.127 21.8002L22.5627 21.2678C22.4603 21.2449 22.3706 21.2464 22.2937 21.2722C22.2166 21.2977 22.1354 21.3475 22.05 21.4215L19.4217 24.1558Z" fill="#2C2923"/>
</g>
</svg>
