<svg width="32" height="32" viewBox="0 0 32 32" fill="none" xmlns="http://www.w3.org/2000/svg">
<mask id="mask0_2059_62075" style="mask-type:alpha" maskUnits="userSpaceOnUse" x="0" y="0" width="32" height="32">
<rect width="32" height="32" fill="#D9D9D9"/>
</mask>
<g mask="url(#mask0_2059_62075)">
<path d="M16.0286 21.5147L20.3843 17.142L19.5756 16.3333L16.5926 19.277V12.7967H15.4646V19.277L12.4646 16.3333L11.656 17.142L16.0286 21.5147ZM8.61664 28C8.07041 28 7.60908 27.8118 7.23264 27.4353C6.85619 27.0589 6.66797 26.5976 6.66797 26.0513V11.2257L13.8936 4H23.386C23.9322 4 24.3935 4.18822 24.77 4.56467C25.1464 4.94111 25.3346 5.40245 25.3346 5.94867V26.0513C25.3346 26.5976 25.1464 27.0589 24.77 27.4353C24.3935 27.8118 23.9322 28 23.386 28H8.61664ZM8.61664 26.8717H23.386C23.5911 26.8717 23.7791 26.7862 23.95 26.6153C24.1209 26.4444 24.2063 26.2564 24.2063 26.0513V5.94867C24.2063 5.74356 24.1209 5.55555 23.95 5.38467C23.7791 5.21378 23.5911 5.12833 23.386 5.12833H14.3926L7.7963 11.7193V26.0513C7.7963 26.2564 7.88175 26.4444 8.05264 26.6153C8.22352 26.7862 8.41152 26.8717 8.61664 26.8717ZM8.61664 26.8717H7.7963H24.2063H8.61664Z" fill="#A07D3B"/>
</g>
</svg>
