<svg width="48" height="48" viewBox="0 0 48 48" fill="none" xmlns="http://www.w3.org/2000/svg">
<mask id="mask0_11_3250" style="mask-type:alpha" maskUnits="userSpaceOnUse" x="0" y="0" width="48" height="48">
<rect width="48" height="48" fill="#D9D9D9"/>
</mask>
<g mask="url(#mask0_11_3250)">
<path d="M23.999 32.923C24.3253 32.923 24.586 32.8258 24.781 32.6315C24.9757 32.4372 25.073 32.177 25.073 31.851C25.073 31.5247 24.9758 31.264 24.7815 31.069C24.5872 30.8743 24.327 30.777 24.001 30.777C23.6747 30.777 23.414 30.8742 23.219 31.0685C23.0243 31.2628 22.927 31.523 22.927 31.849C22.927 32.1753 23.0242 32.436 23.2185 32.631C23.4128 32.8257 23.673 32.923 23.999 32.923ZM23.304 26.4655H24.8425V14.1615H23.304V26.4655ZM24.02 42C21.514 42 19.1758 41.5277 17.0055 40.583C14.8348 39.6383 12.9307 38.348 11.293 36.712C9.65533 35.076 8.36383 33.1725 7.4185 31.0015C6.47283 28.8302 6 26.4902 6 23.9815C6 21.4985 6.47233 19.164 7.417 16.978C8.36167 14.7923 9.652 12.889 11.288 11.268C12.924 9.647 14.8275 8.36383 16.9985 7.4185C19.1698 6.47283 21.5098 6 24.0185 6C26.5015 6 28.836 6.47233 31.022 7.417C33.2077 8.36167 35.111 9.64367 36.732 11.263C38.353 12.8823 39.6362 14.7867 40.5815 16.976C41.5272 19.165 42 21.4997 42 23.98C42 26.486 41.5277 28.8242 40.583 30.9945C39.6383 33.1652 38.3563 35.0663 36.737 36.698C35.1177 38.3293 33.2133 39.6208 31.024 40.5725C28.835 41.5242 26.5003 42 24.02 42ZM24.025 40.4615C28.5877 40.4615 32.4678 38.8608 35.6655 35.6595C38.8628 32.4582 40.4615 28.5633 40.4615 23.975C40.4615 19.4123 38.866 15.5322 35.675 12.3345C32.4837 9.13717 28.592 7.5385 24 7.5385C19.4283 7.5385 15.5418 9.134 12.3405 12.325C9.13917 15.5163 7.5385 19.408 7.5385 24C7.5385 28.5717 9.13917 32.4582 12.3405 35.6595C15.5418 38.8608 19.4367 40.4615 24.025 40.4615Z" fill="#7A746A"/>
</g>
</svg>
