<svg width="32" height="32" viewBox="0 0 32 32" fill="none" xmlns="http://www.w3.org/2000/svg">
<mask id="mask0_2059_62089" style="mask-type:alpha" maskUnits="userSpaceOnUse" x="0" y="0" width="32" height="32">
<rect width="32" height="32" fill="#D9D9D9"/>
</mask>
<g mask="url(#mask0_2059_62089)">
<path d="M16 17.0957C15.2898 17.0957 14.7011 16.8529 14.234 16.3673C13.7669 15.8818 13.5333 15.2824 13.5333 14.5693V6.46167C13.5333 5.77589 13.7702 5.19422 14.244 4.71667C14.7176 4.23889 15.3024 4 15.9987 4C16.6949 4 17.2803 4.23889 17.755 4.71667C18.2294 5.19422 18.4667 5.77589 18.4667 6.46167V14.5693C18.4667 15.2824 18.2331 15.8818 17.766 16.3673C17.2989 16.8529 16.7102 17.0957 16 17.0957ZM15.436 27.3333V22.5087C13.3402 22.3389 11.5769 21.4976 10.146 19.9847C8.71533 18.4718 8 16.6667 8 14.5693H9.12833C9.12833 16.4753 9.79756 18.09 11.136 19.4133C12.4747 20.7367 14.0937 21.3983 15.993 21.3983C17.8923 21.3983 19.5137 20.7367 20.857 19.4133C22.2001 18.09 22.8717 16.4753 22.8717 14.5693H24C24 16.6667 23.2847 18.4718 21.854 19.9847C20.4231 21.4976 18.6598 22.3389 16.564 22.5087V27.3333H15.436ZM16 15.9677C16.3811 15.9677 16.6994 15.8336 16.955 15.5653C17.2106 15.2973 17.3383 14.963 17.3383 14.5623V6.46167C17.3383 6.08389 17.2101 5.76722 16.9537 5.51167C16.6972 5.25611 16.3793 5.12833 16 5.12833C15.6207 5.12833 15.3028 5.25611 15.0463 5.51167C14.7899 5.76722 14.6617 6.08389 14.6617 6.46167V14.5693C14.6617 14.9653 14.7894 15.2973 15.045 15.5653C15.3006 15.8336 15.6189 15.9677 16 15.9677Z" fill="#A07D3B"/>
</g>
</svg>
