<svg width="24" height="24" viewBox="0 0 24 24" fill="none" xmlns="http://www.w3.org/2000/svg">
<mask id="mask0_754_30105" style="mask-type:alpha" maskUnits="userSpaceOnUse" x="0" y="0" width="24" height="24">
<rect width="24" height="24" fill="#9F8554"/>
</mask>
<g mask="url(#mask0_754_30105)">
<path d="M4.81744 21C4.29956 21 3.86719 20.8266 3.52031 20.4797C3.17344 20.1328 3 19.7004 3 19.1826V4.81744C3 4.29956 3.17344 3.86719 3.52031 3.52031C3.86719 3.17344 4.29956 3 4.81744 3H19.1826C19.7004 3 20.1328 3.17344 20.4797 3.52031C20.8266 3.86719 21 4.29956 21 4.81744V19.1826C21 19.7004 20.8266 20.1328 20.4797 20.4797C20.1328 20.8266 19.7004 21 19.1826 21H4.81744ZM4.81744 19.875H19.1826C19.3558 19.875 19.5145 19.8029 19.6587 19.6587C19.8029 19.5145 19.875 19.3558 19.875 19.1826V4.81744C19.875 4.64419 19.8029 4.48547 19.6587 4.34128C19.5145 4.19709 19.3558 4.125 19.1826 4.125H4.81744C4.64419 4.125 4.48547 4.19709 4.34128 4.34128C4.19709 4.48547 4.125 4.64419 4.125 4.81744V19.1826C4.125 19.3558 4.19709 19.5145 4.34128 19.6587C4.48547 19.8029 4.64419 19.875 4.81744 19.875Z" fill="#DDDDDD"/>
<path d="M4.81744 19.875H19.1826C19.3558 19.875 19.5145 19.8029 19.6587 19.6587C19.8029 19.5145 19.875 19.3558 19.875 19.1826V4.81744C19.875 4.64419 19.8029 4.48547 19.6587 4.34128C19.5145 4.19709 19.3558 4.125 19.1826 4.125H4.81744C4.64419 4.125 4.48547 4.19709 4.34128 4.34128C4.19709 4.48547 4.125 4.64419 4.125 4.81744V19.1826C4.125 19.3558 4.19709 19.5145 4.34128 19.6587C4.48547 19.8029 4.64419 19.875 4.81744 19.875Z" fill="#EFEFEF"/>
</g>
</svg>
