<svg width="32" height="32" viewBox="0 0 32 32" fill="none" xmlns="http://www.w3.org/2000/svg">
<mask id="mask0_2059_62082" style="mask-type:alpha" maskUnits="userSpaceOnUse" x="0" y="0" width="32" height="32">
<rect width="32" height="32" fill="#D9D9D9"/>
</mask>
<g mask="url(#mask0_2059_62082)">
<path d="M5.33203 21.1794V20.0514H21.691V21.1794H5.33203ZM5.33203 16.5641V15.4361H21.691V16.5641H5.33203ZM5.33203 11.9487V10.8207H21.691V11.9487H5.33203ZM25.936 21.3334C25.7363 21.3334 25.5686 21.2671 25.433 21.1344C25.2973 21.0017 25.2294 20.8373 25.2294 20.6411C25.2294 20.4297 25.2983 20.253 25.436 20.1107C25.5736 19.9685 25.7441 19.8974 25.9477 19.8974C26.1401 19.8974 26.3078 19.9685 26.4507 20.1107C26.5938 20.253 26.6654 20.4306 26.6654 20.6437C26.6654 20.8422 26.5938 21.0067 26.4507 21.1374C26.3074 21.2681 26.1358 21.3334 25.936 21.3334ZM25.936 16.7437C25.7363 16.7437 25.5686 16.6743 25.433 16.5354C25.2973 16.3965 25.2294 16.2152 25.2294 15.9914C25.2294 15.8119 25.2983 15.6531 25.436 15.5151C25.5736 15.3769 25.7441 15.3077 25.9477 15.3077C26.1401 15.3077 26.3078 15.3769 26.4507 15.5151C26.5938 15.6533 26.6654 15.8186 26.6654 16.0111C26.6654 16.2253 26.5938 16.401 26.4507 16.5381C26.3074 16.6752 26.1358 16.7437 25.936 16.7437ZM25.936 12.1027C25.7363 12.1027 25.5686 12.0364 25.433 11.9037C25.2973 11.7709 25.2294 11.6064 25.2294 11.4104C25.2294 11.1991 25.2983 11.0223 25.436 10.8801C25.5736 10.7379 25.7441 10.6667 25.9477 10.6667C26.1401 10.6667 26.3078 10.7379 26.4507 10.8801C26.5938 11.0223 26.6654 11.1999 26.6654 11.4127C26.6654 11.6112 26.5938 11.7759 26.4507 11.9067C26.3074 12.0374 26.1358 12.1027 25.936 12.1027Z" fill="#A07D3B"/>
</g>
</svg>
