<svg width="33" height="32" viewBox="0 0 33 32" fill="none" xmlns="http://www.w3.org/2000/svg">
<mask id="mask0_2059_62159" style="mask-type:alpha" maskUnits="userSpaceOnUse" x="0" y="0" width="33" height="32">
<rect x="0.667969" width="32" height="32" fill="#D9D9D9"/>
</mask>
<g mask="url(#mask0_2059_62159)">
<path d="M14.0624 20.3703L20.9172 16L14.0624 11.6297V20.3703ZM6.51407 26C5.9966 26 5.55955 25.8235 5.20292 25.4706C4.84628 25.1177 4.66797 24.6852 4.66797 24.1731V7.82688C4.66797 7.31479 4.84628 6.88229 5.20292 6.52938C5.55955 6.17646 5.9966 6 6.51407 6H26.8219C27.3393 6 27.7764 6.17646 28.133 6.52938C28.4897 6.88229 28.668 7.31479 28.668 7.82688V24.1731C28.668 24.6852 28.4897 25.1177 28.133 25.4706C27.7764 25.8235 27.3393 26 26.8219 26H6.51407ZM6.51407 24.9422H26.8219C27.0162 24.9422 27.1943 24.8621 27.3562 24.7019C27.5181 24.5417 27.599 24.3654 27.599 24.1731V7.82688C27.599 7.63458 27.5181 7.45833 27.3562 7.29812C27.1943 7.13792 27.0162 7.05781 26.8219 7.05781H6.51407C6.31976 7.05781 6.14165 7.13792 5.97976 7.29812C5.81786 7.45833 5.73692 7.63458 5.73692 7.82688V24.1731C5.73692 24.3654 5.81786 24.5417 5.97976 24.7019C6.14165 24.8621 6.31976 24.9422 6.51407 24.9422Z" fill="#A07D3B"/>
</g>
</svg>
