<svg width="24" height="25" viewBox="0 0 24 25" fill="none" xmlns="http://www.w3.org/2000/svg">
<mask id="mask0_51_24810" style="mask-type:alpha" maskUnits="userSpaceOnUse" x="0" y="0" width="24" height="25">
<rect y="0.5" width="24" height="24" fill="#D9D9D9"/>
</mask>
<g mask="url(#mask0_51_24810)">
<path d="M5 10.1155H19V7.11578C19 6.96178 18.9359 6.8207 18.8077 6.69253C18.6796 6.56436 18.5385 6.50028 18.3845 6.50028H5.6155C5.4615 6.50028 5.32042 6.56436 5.19225 6.69253C5.06408 6.8207 5 6.96178 5 7.11578V10.1155ZM5.6155 21.5003C5.15517 21.5003 4.77083 21.3461 4.4625 21.0378C4.15417 20.7294 4 20.3451 4 19.8848V7.11578C4 6.65545 4.15417 6.27111 4.4625 5.96278C4.77083 5.65445 5.15517 5.50028 5.6155 5.50028H7.3845V3.26953H8.4615V5.50028H15.6155V3.26953H16.6155V5.50028H18.3845C18.8448 5.50028 19.2292 5.65445 19.5375 5.96278C19.8458 6.27111 20 6.65545 20 7.11578V12.3675C19.8372 12.3074 19.6724 12.2625 19.5057 12.233C19.3391 12.2035 19.1705 12.1766 19 12.1523V11.1158H5V19.8848C5 20.0388 5.06408 20.1799 5.19225 20.308C5.32042 20.4362 5.4615 20.5003 5.6155 20.5003H12.3193C12.3717 20.6874 12.4388 20.8612 12.5203 21.0215C12.6016 21.1817 12.6865 21.3413 12.775 21.5003H5.6155ZM18.3845 22.5003C17.2705 22.5003 16.3253 22.1121 15.549 21.3358C14.7727 20.5596 14.3845 19.6144 14.3845 18.5003C14.3845 17.3861 14.7727 16.4409 15.549 15.6648C16.3253 14.8884 17.2705 14.5003 18.3845 14.5003C19.4987 14.5003 20.4439 14.8884 21.2203 15.6648C21.9964 16.4409 22.3845 17.3861 22.3845 18.5003C22.3845 19.6144 21.9964 20.5596 21.2203 21.3358C20.4439 22.1121 19.4987 22.5003 18.3845 22.5003ZM20.0405 20.7023L20.5865 20.156L18.7693 18.3388V15.6158H18V18.6618L20.0405 20.7023Z" fill="#2C2923"/>
</g>
</svg>
