<svg width="60" height="60" viewBox="0 0 60 60" fill="none" xmlns="http://www.w3.org/2000/svg">
<rect x="0.5" y="0.5" width="59" height="59" stroke="#E4DED3"/>
<mask id="mask0_51_28554" style="mask-type:alpha" maskUnits="userSpaceOnUse" x="10" y="10" width="40" height="40">
<rect x="10" y="10" width="40" height="40" fill="#D9D9D9"/>
</mask>
<g mask="url(#mask0_51_28554)">
<path d="M21.8532 43.3333C21.6484 43.3333 21.473 43.2721 21.3269 43.1496C21.1805 43.0271 21.1073 42.8668 21.1073 42.6688V39.4742C20.4748 39.2847 19.8545 38.7807 19.2465 37.9621C18.6382 37.1435 18.334 36.2181 18.334 35.1858V19.7779C18.334 18.1193 19.2686 16.9083 21.1377 16.145C23.0069 15.3817 25.963 15 30.0061 15C34.1463 15 37.125 15.3719 38.9419 16.1158C40.7588 16.8594 41.6673 18.0801 41.6673 19.7779V35.1858C41.6673 36.2181 41.3632 37.1435 40.7548 37.9621C40.1468 38.7807 39.5265 39.2847 38.894 39.4742V42.6688C38.894 42.8668 38.8208 43.0271 38.6744 43.1496C38.5283 43.2721 38.3529 43.3333 38.1482 43.3333H38.0477C37.8244 43.3333 37.6397 43.2721 37.4936 43.1496C37.3472 43.0271 37.274 42.8668 37.274 42.6688V39.9658H22.7273V42.6688C22.7273 42.8668 22.6541 43.0271 22.5077 43.1496C22.3616 43.2721 22.1769 43.3333 21.9536 43.3333H21.8532ZM19.7444 28.7117H40.2569V20.5942H19.7444V28.7117ZM24.0036 36.1196C24.5016 36.1196 24.9216 35.9461 25.2636 35.5992C25.6055 35.2525 25.7765 34.83 25.7765 34.3317C25.7765 33.8336 25.603 33.4088 25.2561 33.0571C24.9091 32.7057 24.4865 32.53 23.9882 32.53C23.4901 32.53 23.0654 32.7082 22.714 33.0646C22.3623 33.4212 22.1865 33.8486 22.1865 34.3467C22.1865 34.845 22.3648 35.2651 22.7215 35.6071C23.0779 35.9488 23.5052 36.1196 24.0036 36.1196ZM36.0132 36.1196C36.5112 36.1196 36.9359 35.9461 37.2873 35.5992C37.639 35.2525 37.8148 34.83 37.8148 34.3317C37.8148 33.8336 37.6365 33.4088 37.2798 33.0571C36.9234 32.7057 36.4961 32.53 35.9977 32.53C35.4997 32.53 35.0797 32.7082 34.7377 33.0646C34.3958 33.4212 34.2248 33.8486 34.2248 34.3467C34.2248 34.845 34.3983 35.2651 34.7452 35.6071C35.0922 35.9488 35.5148 36.1196 36.0132 36.1196ZM19.6952 19.1837H40.2977C39.928 18.2457 38.9181 17.5489 37.2682 17.0933C35.6184 16.6381 33.2002 16.4104 30.0136 16.4104C26.6525 16.4104 24.1647 16.6324 22.5502 17.0763C20.9361 17.5204 19.9844 18.2229 19.6952 19.1837ZM23.1119 38.5554H36.8894C37.8288 38.5554 38.625 38.2144 39.2777 37.5325C39.9305 36.8506 40.2569 36.0469 40.2569 35.1217V30.1217H19.7444V35.1217C19.7444 36.0469 20.0708 36.8506 20.7236 37.5325C21.3763 38.2144 22.1725 38.5554 23.1119 38.5554Z" fill="#2C2923"/>
</g>
</svg>
