<svg width="33" height="32" viewBox="0 0 33 32" fill="none" xmlns="http://www.w3.org/2000/svg">
<mask id="mask0_2059_62166" style="mask-type:alpha" maskUnits="userSpaceOnUse" x="0" y="0" width="33" height="32">
<rect x="0.332031" width="32" height="32" fill="#D9D9D9"/>
</mask>
<g mask="url(#mask0_2059_62166)">
<path d="M7.61273 28C7.06651 28 6.60517 27.8118 6.22873 27.4354C5.85228 27.0589 5.66406 26.5976 5.66406 26.0514V8.41038C5.66406 7.86416 5.85228 7.40283 6.22873 7.02638C6.60517 6.64994 7.06651 6.46171 7.61273 6.46171H10.2367V3.69238H11.5101V6.46171H21.2537V3.69238H22.4417V6.46171H25.0487C25.595 6.46171 26.0563 6.64994 26.4327 7.02638C26.8092 7.40283 26.9974 7.86416 26.9974 8.41038V26.0514C26.9974 26.5976 26.8092 27.0589 26.4327 27.4354C26.0563 27.8118 25.595 28 25.0487 28H7.61273ZM7.61273 26.8717H25.0487C25.2538 26.8717 25.4418 26.7863 25.6127 26.6154C25.7836 26.4445 25.8691 26.2565 25.8691 26.0514V14.0514H6.7924V26.0514C6.7924 26.2565 6.87784 26.4445 7.04873 26.6154C7.21962 26.7863 7.40762 26.8717 7.61273 26.8717ZM6.7924 12.923H25.8691V8.41038C25.8691 8.20527 25.7836 8.01716 25.6127 7.84605C25.4418 7.67516 25.2538 7.58972 25.0487 7.58972H7.61273C7.40762 7.58972 7.21962 7.67516 7.04873 7.84605C6.87784 8.01716 6.7924 8.20527 6.7924 8.41038V12.923ZM16.3307 18.8717C16.0556 18.8717 15.8158 18.7696 15.6114 18.5654C15.4072 18.3612 15.3051 18.1214 15.3051 17.846C15.3051 17.5709 15.4072 17.3313 15.6114 17.127C15.8158 16.9228 16.0556 16.8207 16.3307 16.8207C16.6058 16.8207 16.8456 16.9228 17.0501 17.127C17.2543 17.3313 17.3564 17.5709 17.3564 17.846C17.3564 18.1214 17.2543 18.3612 17.0501 18.5654C16.8456 18.7696 16.6058 18.8717 16.3307 18.8717ZM10.9974 18.8717C10.7223 18.8717 10.4825 18.7696 10.2781 18.5654C10.0738 18.3612 9.97173 18.1214 9.97173 17.846C9.97173 17.5709 10.0738 17.3313 10.2781 17.127C10.4825 16.9228 10.7223 16.8207 10.9974 16.8207C11.2725 16.8207 11.5123 16.9228 11.7167 17.127C11.921 17.3313 12.0231 17.5709 12.0231 17.846C12.0231 18.1214 11.921 18.3612 11.7167 18.5654C11.5123 18.7696 11.2725 18.8717 10.9974 18.8717ZM21.6641 18.8717C21.389 18.8717 21.1492 18.7696 20.9447 18.5654C20.7405 18.3612 20.6384 18.1214 20.6384 17.846C20.6384 17.5709 20.7405 17.3313 20.9447 17.127C21.1492 16.9228 21.389 16.8207 21.6641 16.8207C21.9392 16.8207 22.179 16.9228 22.3834 17.127C22.5876 17.3313 22.6897 17.5709 22.6897 17.846C22.6897 18.1214 22.5876 18.3612 22.3834 18.5654C22.179 18.7696 21.9392 18.8717 21.6641 18.8717ZM16.3307 24C16.0556 24 15.8158 23.8979 15.6114 23.6937C15.4072 23.4895 15.3051 23.2497 15.3051 22.9744C15.3051 22.6993 15.4072 22.4595 15.6114 22.2551C15.8158 22.0508 16.0556 21.9487 16.3307 21.9487C16.6058 21.9487 16.8456 22.0508 17.0501 22.2551C17.2543 22.4595 17.3564 22.6993 17.3564 22.9744C17.3564 23.2497 17.2543 23.4895 17.0501 23.6937C16.8456 23.8979 16.6058 24 16.3307 24ZM10.9974 24C10.7223 24 10.4825 23.8979 10.2781 23.6937C10.0738 23.4895 9.97173 23.2497 9.97173 22.9744C9.97173 22.6993 10.0738 22.4595 10.2781 22.2551C10.4825 22.0508 10.7223 21.9487 10.9974 21.9487C11.2725 21.9487 11.5123 22.0508 11.7167 22.2551C11.921 22.4595 12.0231 22.6993 12.0231 22.9744C12.0231 23.2497 11.921 23.4895 11.7167 23.6937C11.5123 23.8979 11.2725 24 10.9974 24ZM21.6641 24C21.389 24 21.1492 23.8979 20.9447 23.6937C20.7405 23.4895 20.6384 23.2497 20.6384 22.9744C20.6384 22.6993 20.7405 22.4595 20.9447 22.2551C21.1492 22.0508 21.389 21.9487 21.6641 21.9487C21.9392 21.9487 22.179 22.0508 22.3834 22.2551C22.5876 22.4595 22.6897 22.6993 22.6897 22.9744C22.6897 23.2497 22.5876 23.4895 22.3834 23.6937C22.179 23.8979 21.9392 24 21.6641 24Z" fill="#A07D3B"/>
</g>
</svg>
