<svg width="60" height="60" viewBox="0 0 60 60" fill="none" xmlns="http://www.w3.org/2000/svg">
<rect x="0.5" y="0.5" width="59" height="59" stroke="#E4DED3"/>
<mask id="mask0_51_28544" style="mask-type:alpha" maskUnits="userSpaceOnUse" x="10" y="10" width="40" height="40">
<rect x="10" y="10" width="40" height="40" fill="#D9D9D9"/>
</mask>
<g mask="url(#mask0_51_28544)">
<path d="M29.2957 38.8375H30.7057V43.5896H38.5498V45H21.4836V43.5896H29.2957V38.8375ZM23.2057 15H36.7957C38.1473 15 39.2972 15.474 40.2452 16.4221C41.1933 17.3701 41.6673 18.52 41.6673 19.8717V36.1113C41.6673 37.3085 41.2475 38.32 40.4077 39.1458C39.568 39.9717 38.5705 40.3846 37.4152 40.3846H33.9111V35.6729H26.0902V40.3846H22.6073C21.4101 40.3846 20.3986 39.9717 19.5727 39.1458C18.7469 38.32 18.334 37.3085 18.334 36.1113V19.8717C18.334 18.52 18.8011 17.3701 19.7352 16.4221C20.6694 15.474 21.8262 15 23.2057 15ZM19.7444 29.1025V36.1113C19.7444 36.9174 20.02 37.5961 20.5711 38.1475C21.1225 38.6986 21.8012 38.9742 22.6073 38.9742H24.6802V34.2629H35.3211V38.9742H37.4152C38.1866 38.9742 38.8532 38.6986 39.4148 38.1475C39.9762 37.5961 40.2569 36.9174 40.2569 36.1113V29.1025H19.7444ZM19.7444 21.0258V27.6925H40.2569V21.0258H19.7444ZM23.2057 16.4104C22.2834 16.4104 21.4948 16.7194 20.8398 17.3375C20.1848 17.9558 19.8207 18.7151 19.7473 19.6154H40.254C40.1807 18.7151 39.8148 17.9558 39.1565 17.3375C38.4984 16.7194 37.7115 16.4104 36.7957 16.4104H23.2057Z" fill="#2C2923"/>
</g>
</svg>
