<svg width="167" height="24" viewBox="0 0 167 24" fill="none" xmlns="http://www.w3.org/2000/svg">
<g clip-path="url(#clip0_3241_977)">
<path d="M23.2983 2.44496L20.0299 8.10145L21.1577 10.0522L26.6704 0.5H15.6393L16.7672 2.44496H23.2983Z" fill="#FFFFFD"/>
<path d="M23.2983 2.44496L20.0299 8.10145L21.1577 10.0522L26.6704 0.5H15.6393L16.7672 2.44496H23.2983Z" fill="#FFFFFD"/>
<path d="M13.3894 4.39567L23.2983 21.5493H16.7672L15.6393 23.5H26.6704L13.3894 0.5L0.114197 23.5H13.3894L17.5555 16.2841L16.4334 14.3334L12.2673 21.5493H3.48623L13.3894 4.39567Z" fill="#FFFFFD"/>
<path d="M13.3894 14.1722C14.3301 14.1722 15.0927 13.4096 15.0927 12.4689C15.0927 11.5282 14.3301 10.7656 13.3894 10.7656C12.4487 10.7656 11.6861 11.5282 11.6861 12.4689C11.6861 13.4096 12.4487 14.1722 13.3894 14.1722Z" fill="#FFFFFD"/>
<path d="M82.5966 1.85156H80.4387V16.9451H82.5966V1.85156Z" fill="#FFFFFD"/>
<path d="M72.4575 2.4043C69.4825 2.4043 67.0657 4.81536 67.0657 7.79609C67.0657 10.7768 69.4825 13.1879 72.4575 13.1879C75.4324 13.1879 77.8492 10.7768 77.8492 7.79609C77.8492 4.81536 75.4324 2.4043 72.4575 2.4043ZM72.4575 11.1739C70.7657 11.1739 69.3904 9.66049 69.3904 7.79034C69.3904 5.92018 70.7599 4.4068 72.4575 4.4068C74.155 4.4068 75.5245 5.92018 75.5245 7.79034C75.5245 9.66049 74.155 11.1739 72.4575 11.1739Z" fill="#FFFFFD"/>
<path d="M71.9165 19.5345V14.793H69.7644V19.828L70.8405 21.6924H83.0281V19.5345H71.9165Z" fill="#FFFFFD"/>
<path d="M27.6889 14.1604H30.2783L34.1625 7.47385L38.0409 14.1604H40.6303L34.1625 2.93945L27.6889 14.1604Z" fill="#FFFFFD"/>
<path d="M44.0829 1.85156H41.9251V22.124H44.0829V1.85156Z" fill="#FFFFFD"/>
<path d="M102.132 1.85156V7.88784H99.543V1.85156H97.3909V22.124H99.543V10.0457H102.132V22.124H104.29V1.85156H102.132Z" fill="#FFFFFD"/>
<path d="M92.4364 6.96747V5.09732H95.6761V2.93945H87.0331V5.09732H90.2786V6.96747L86.124 14.1546H88.6156L91.3546 9.41306L94.0937 14.1546H96.5853L92.4364 6.96747Z" fill="#FFFFFD"/>
<path d="M61.8062 1.85156V7.88784H59.2628V1.85156H57.1049V11.9907H49.3366V5.08549H55.3959V2.92762H47.1845V12.2784L48.2606 14.1428H57.1049V22.124H59.2628V10.0457H61.8062V22.124H63.9641V1.85156H61.8062Z" fill="#FFFFFD"/>
<path d="M113.86 3.26758H116.449V18.1022H124.148V20.3406H113.865V3.26758H113.86Z" fill="#A7A19F"/>
<path d="M126.807 3.26758H137.493V5.50601H129.396V10.6734H136.929V12.8888H129.396V18.1022H137.585V20.3406H126.807V3.26758Z" fill="#A7A19F"/>
<path d="M140.669 3.26758H151.355V5.50601H143.259V10.6734H150.791V12.8888H143.259V18.1022H151.447V20.3406H140.669V3.26758Z" fill="#A7A19F"/>
<path d="M153.685 3.26758H166.892V5.50601H161.598V20.3406H159.008V5.51176H153.691V3.27333L153.685 3.26758Z" fill="#A7A19F"/>
</g>
<defs>
<clipPath id="clip0_3241_977">
<rect width="166.772" height="23" fill="white" transform="translate(0.114197 0.5)"/>
</clipPath>
</defs>
</svg>
