<svg width="217" height="40" viewBox="0 0 217 40" fill="none" xmlns="http://www.w3.org/2000/svg">
<path d="M30.2402 8.37023L25.977 15.7483L27.4481 18.2927L34.6385 5.83333H20.2502L21.7213 8.37023H30.2402Z" fill="#2C2923"/>
<path d="M30.2402 8.37023L25.977 15.7483L27.4481 18.2927L34.6385 5.83333H20.2502L21.7213 8.37023H30.2402Z" fill="#2C2923"/>
<path d="M17.3155 10.9146L30.2402 33.2889H21.7213L20.2502 35.8333H34.6385L17.3155 5.83333L0 35.8333H17.3155L22.7496 26.4213L21.286 23.8769L15.8519 33.2889H4.3983L17.3155 10.9146Z" fill="#2C2923"/>
<path d="M17.3155 23.6667C18.5425 23.6667 19.5371 22.672 19.5371 21.445C19.5371 20.218 18.5425 19.2234 17.3155 19.2234C16.0885 19.2234 15.0938 20.218 15.0938 21.445C15.0938 22.672 16.0885 23.6667 17.3155 23.6667Z" fill="#2C2923"/>
<path d="M107.586 7.59724H104.771V27.2845H107.586V7.59724Z" fill="#2C2923"/>
<path d="M94.3606 8.31778C90.4802 8.31778 87.3278 11.4626 87.3278 15.3506C87.3278 19.2385 90.4802 22.3833 94.3606 22.3833C98.241 22.3833 101.393 19.2385 101.393 15.3506C101.393 11.4626 98.241 8.31778 94.3606 8.31778ZM94.3606 19.7564C92.1539 19.7564 90.3601 17.7824 90.3601 15.343C90.3601 12.9037 92.1464 10.9297 94.3606 10.9297C96.5748 10.9297 98.3611 12.9037 98.3611 15.343C98.3611 17.7824 96.5748 19.7564 94.3606 19.7564Z" fill="#2C2923"/>
<path d="M93.6551 30.662V24.4774H90.848V31.0448L92.2515 33.4767H108.148V30.662H93.6551Z" fill="#2C2923"/>
<path d="M35.9668 23.6518H39.3443L44.4106 14.9302L49.4694 23.6518H52.847L44.4106 9.01581L35.9668 23.6518Z" fill="#2C2923"/>
<path d="M57.3503 7.59724H54.5357V34.0396H57.3503V7.59724Z" fill="#2C2923"/>
<path d="M133.067 7.59724V15.4706H129.69V7.59724H126.882V34.0396H129.69V18.2853H133.067V34.0396H135.882V7.59724H133.067Z" fill="#2C2923"/>
<path d="M120.42 14.2697V11.8304H124.646V9.01581H113.372V11.8304H117.606V14.2697L112.186 23.6443H115.436L119.009 17.4596L122.582 23.6443H125.832L120.42 14.2697Z" fill="#2C2923"/>
<path d="M80.4677 7.59724V15.4706H77.1502V7.59724H74.3356V20.8222H64.203V11.8154H72.1064V9.0008H61.3959V21.1974L62.7994 23.6293H74.3356V34.0396H77.1502V18.2853H80.4677V34.0396H83.2823V7.59724H80.4677Z" fill="#2C2923"/>
<path d="M144.792 9.44336H148.169V28.7929H158.212V31.7126H144.799V9.44336H144.792Z" fill="#7A746A"/>
<path d="M161.672 9.44336H175.61V12.363H165.049V19.1031H174.874V21.9928H165.049V28.7929H175.73V31.7126H161.672V9.44336Z" fill="#7A746A"/>
<path d="M179.753 9.44336H193.691V12.363H183.13V19.1031H192.955V21.9928H183.13V28.7929H193.811V31.7126H179.753V9.44336Z" fill="#7A746A"/>
<path d="M196.731 9.44336H213.956V12.363H207.051V31.7126H203.673V12.3706H196.738V9.45087L196.731 9.44336Z" fill="#7A746A"/>
</svg>
