<svg width="171" height="26" viewBox="0 0 171 26" fill="none" xmlns="http://www.w3.org/2000/svg">
<g clip-path="url(#clip0_2849_28753)">
<path d="M26.6503 2.20145L22.9583 8.59481L24.2287 10.8008L30.4615 0H17.9958L19.2663 2.20145H26.6503Z" fill="#FFFFFC"/>
<path d="M26.6503 2.20145L22.9583 8.59481L24.2287 10.8008L30.4615 0H17.9958L19.2663 2.20145H26.6503Z" fill="#FFFFFC"/>
<path d="M15.4504 4.40289L26.6503 23.7986H19.2663L17.9959 26H30.4616L15.4504 0L0.439331 26H15.4504L20.1606 17.8455L18.8902 15.644L14.18 23.7986H4.25517L15.4504 4.40289Z" fill="#FFFFFC"/>
<path d="M15.4504 15.456C16.5143 15.456 17.3767 14.5936 17.3767 13.5298C17.3767 12.4659 16.5143 11.6035 15.4504 11.6035C14.3866 11.6035 13.5242 12.4659 13.5242 13.5298C13.5242 14.5936 14.3866 15.456 15.4504 15.456Z" fill="#FFFFFC"/>
<path d="M139.456 22.0647H124.601V20.8585H131.279V17.7856H126.463V12.7773H136.172V10.2181H126.426V9.03027H137.576V13.9468H127.885V16.5977H137.956V17.7856H132.682V20.8585H139.452V22.0647H139.456Z" fill="#FFFFFC"/>
<path d="M140.19 20.6754H155.045V21.8632H140.19V20.6754ZM149.17 12.7868C149.766 13.6078 150.528 14.3095 151.454 14.8828C152.38 15.4561 153.321 15.8368 154.279 16.011L153.623 17.2173C152.789 17.02 151.972 16.7036 151.174 16.2679C150.376 15.8276 149.656 15.2864 149.014 14.6397C148.372 13.993 147.886 13.2868 147.546 12.5208C147.207 13.2868 146.716 13.993 146.079 14.6351C145.441 15.2772 144.721 15.8184 143.919 16.2633C143.121 16.7036 142.304 17.0246 141.47 17.2173L140.814 16.011C141.768 15.8276 142.708 15.4515 143.63 14.8782C144.552 14.3049 145.308 13.6078 145.895 12.7868C146.482 11.9659 146.781 11.1082 146.781 10.2185V8.97559H148.276V10.2185C148.276 11.1082 148.574 11.9659 149.17 12.7868Z" fill="#FFFFFC"/>
<path d="M168.68 9.75964C168.68 10.6127 168.657 11.3786 168.612 12.062C168.566 12.7454 168.46 13.5067 168.286 14.346H170.556V15.4972H163.86V17.2354H168.804V21.0008H158.985V22.7023H169.368V23.8535H157.563V19.923H167.382V18.3499H157.531V17.2354H162.457V15.4972H155.797V14.346H166.846C166.997 13.6535 167.107 12.9701 167.176 12.3005L157.458 12.7224L157.274 11.5712L167.236 11.2869C167.249 11.0759 167.254 10.7641 167.254 10.3559V9.72295H157.655V8.57178H168.676V9.75964H168.68Z" fill="#FFFFFC"/>
<path d="M93.3266 2.19238H91.0288V18.2767H93.3266V2.19238Z" fill="#FFFFFC"/>
<path d="M82.5212 2.7749C79.3474 2.7749 76.7791 5.34784 76.7791 8.51701C76.7791 11.6862 79.352 14.2591 82.5212 14.2591C85.6903 14.2591 88.2633 11.6862 88.2633 8.51701C88.2633 5.34784 85.6903 2.7749 82.5212 2.7749ZM82.5212 12.1265C80.7187 12.1265 79.2557 10.5121 79.2557 8.52159C79.2557 6.53112 80.7187 4.91673 82.5212 4.91673C84.3236 4.91673 85.7866 6.53112 85.7866 8.52159C85.7866 10.5121 84.3236 12.1265 82.5212 12.1265Z" fill="#FFFFFC"/>
<path d="M81.9478 21.0329V15.9741H79.6501V21.3401L80.8013 23.326H93.7806V21.0329H81.9478Z" fill="#FFFFFC"/>
<path d="M34.8278 15.3H37.5842L41.721 8.17738L45.8579 15.3H48.6189L41.721 3.35254L34.8278 15.3Z" fill="#FFFFFC"/>
<path d="M52.2926 2.19238H49.9948V23.7895H52.2926V2.19238Z" fill="#FFFFFC"/>
<path d="M114.139 2.19238V8.62244H111.383V2.19238H109.085V23.7895H111.383V10.9202H114.139V23.7895H116.437V2.19238H114.139Z" fill="#FFFFFC"/>
<path d="M103.806 7.63619V5.6503H107.26V3.35254H98.0551V5.6503H101.509V7.63619L97.0874 15.3H99.7383L102.655 10.2458L105.577 15.3H108.228L103.806 7.63619Z" fill="#FFFFFC"/>
<path d="M71.1791 2.19238V8.62244H68.464V2.19238H66.1663V12.9886H57.8925V5.63673H64.3455V3.33897H55.5947V13.2959L56.7459 15.2864H66.1663V23.7895H68.464V10.9202H71.1791V23.7895H73.4769V2.19238H71.1791Z" fill="#FFFFFC"/>
</g>
<defs>
<clipPath id="clip0_2849_28753">
<rect width="170.121" height="26" fill="white" transform="translate(0.439331)"/>
</clipPath>
</defs>
</svg>
