<svg width="176" height="25" viewBox="0 0 176 25" fill="none" xmlns="http://www.w3.org/2000/svg">
<g clip-path="url(#clip0_4066_43383)">
<path d="M25.1809 2.52952L21.7703 8.43195L22.9472 10.4675L28.6995 0.5H17.1889L18.3658 2.52952H25.1809Z" fill="#2C2923"/>
<path d="M25.1809 2.52952L21.7703 8.43195L22.9472 10.4675L28.6995 0.5H17.1889L18.3658 2.52952H25.1809Z" fill="#2C2923"/>
<path d="M14.8411 4.56505L25.1809 22.4645H18.3658L17.1889 24.5H28.6995L14.8411 0.5L0.988739 24.5H14.8411L19.1884 16.9704L18.0175 14.9348L13.6703 22.4645H4.50738L14.8411 4.56505Z" fill="#2C2923"/>
<path d="M14.8411 14.7667C15.8227 14.7667 16.6185 13.971 16.6185 12.9894C16.6185 12.0078 15.8227 11.212 14.8411 11.212C13.8595 11.212 13.0638 12.0078 13.0638 12.9894C13.0638 13.971 13.8595 14.7667 14.8411 14.7667Z" fill="#2C2923"/>
<path d="M87.0573 1.91101H84.8056V17.6608H87.0573V1.91101Z" fill="#2C2923"/>
<path d="M76.4773 2.48743C73.373 2.48743 70.8511 5.00331 70.8511 8.11365C70.8511 11.224 73.373 13.7399 76.4773 13.7399C79.5817 13.7399 82.1036 11.224 82.1036 8.11365C82.1036 5.00331 79.5817 2.48743 76.4773 2.48743ZM76.4773 11.6383C74.712 11.6383 73.2769 10.0591 73.2769 8.10764C73.2769 6.15618 74.706 4.57699 76.4773 4.57699C78.2487 4.57699 79.6777 6.15618 79.6777 8.10764C79.6777 10.0591 78.2487 11.6383 76.4773 11.6383Z" fill="#2C2923"/>
<path d="M75.9129 20.3629V15.4152H73.6672V20.6691L74.7901 22.6146H87.5076V20.3629H75.9129Z" fill="#2C2923"/>
<path d="M29.7623 14.7547H32.4643L36.5174 7.77745L40.5644 14.7547H43.2664L36.5174 3.0459L29.7623 14.7547Z" fill="#2C2923"/>
<path d="M46.8691 1.91101H44.6175V23.0649H46.8691V1.91101Z" fill="#2C2923"/>
<path d="M107.443 1.91101V8.20973H104.741V1.91101H102.495V23.0649H104.741V10.4614H107.443V23.0649H109.694V1.91101H107.443Z" fill="#2C2923"/>
<path d="M97.325 7.24905V5.29759H100.706V3.0459H91.6868V5.29759H95.0733V7.24905L90.738 14.7487H93.338L96.1961 9.80096L99.0543 14.7487H101.654L97.325 7.24905Z" fill="#2C2923"/>
<path d="M65.363 1.91101V8.20973H62.709V1.91101H60.4573V12.4909H52.3513V5.28554H58.674V3.03385H50.1056V12.7912L51.2284 14.7366H60.4573V23.0649H62.709V10.4614H65.363V23.0649H67.6147V1.91101H65.363Z" fill="#2C2923"/>
<path d="M119.68 3.38818H122.382V18.8678H130.416V21.2035H119.686V3.38818H119.68Z" fill="#A7A19F"/>
<path d="M133.19 3.38818H144.34V5.72394H135.892V11.116H143.752V13.4277H135.892V18.8678H144.436V21.2035H133.19V3.38818Z" fill="#A7A19F"/>
<path d="M147.655 3.38818H158.805V5.72394H150.357V11.116H158.217V13.4277H150.357V18.8678H158.901V21.2035H147.655V3.38818Z" fill="#A7A19F"/>
<path d="M161.237 3.38818H175.017V5.72394H169.493V21.2035H166.791V5.72994H161.243V3.39419L161.237 3.38818Z" fill="#A7A19F"/>
</g>
<defs>
<clipPath id="clip0_4066_43383">
<rect width="174.023" height="24" fill="white" transform="translate(0.988739 0.5)"/>
</clipPath>
</defs>
</svg>
