<svg width="165" height="24" viewBox="0 0 165 24" fill="none" xmlns="http://www.w3.org/2000/svg">
<g clip-path="url(#clip0_4275_31175)">
<path d="M23.6679 2.44496L20.3995 8.10145L21.5273 10.0522L27.0399 0.5H16.0089L17.1368 2.44496H23.6679Z" fill="#FFFFFD"/>
<path d="M23.6679 2.44496L20.3995 8.10145L21.5273 10.0522L27.0399 0.5H16.0089L17.1368 2.44496H23.6679Z" fill="#FFFFFD"/>
<path d="M13.759 4.39567L23.6679 21.5493H17.1368L16.0089 23.5H27.0399L13.759 0.5L0.483765 23.5H13.759L17.9251 16.2841L16.803 14.3334L12.6369 21.5493H3.85579L13.759 4.39567Z" fill="#FFFFFD"/>
<path d="M13.7589 14.1722C14.6996 14.1722 15.4622 13.4096 15.4622 12.4689C15.4622 11.5282 14.6996 10.7656 13.7589 10.7656C12.8182 10.7656 12.0557 11.5282 12.0557 12.4689C12.0557 13.4096 12.8182 14.1722 13.7589 14.1722Z" fill="#FFFFFD"/>
<path d="M82.9662 1.85156H80.8083V16.9451H82.9662V1.85156Z" fill="#FFFFFD"/>
<path d="M72.8271 2.4043C69.8521 2.4043 67.4353 4.81536 67.4353 7.79609C67.4353 10.7768 69.8521 13.1879 72.8271 13.1879C75.8021 13.1879 78.2189 10.7768 78.2189 7.79609C78.2189 4.81536 75.8021 2.4043 72.8271 2.4043ZM72.8271 11.1739C71.1353 11.1739 69.76 9.66049 69.76 7.79034C69.76 5.92018 71.1296 4.4068 72.8271 4.4068C74.5246 4.4068 75.8941 5.92018 75.8941 7.79034C75.8941 9.66049 74.5246 11.1739 72.8271 11.1739Z" fill="#FFFFFD"/>
<path d="M72.2861 19.5345V14.793H70.134V19.828L71.2101 21.6924H83.3977V19.5345H72.2861Z" fill="#FFFFFD"/>
<path d="M28.0585 14.1604H30.6479L34.5321 7.47385L38.4105 14.1604H40.9999L34.5321 2.93945L28.0585 14.1604Z" fill="#FFFFFD"/>
<path d="M44.4525 1.85156H42.2947V22.124H44.4525V1.85156Z" fill="#FFFFFD"/>
<path d="M102.502 1.85156V7.88784H99.9126V1.85156H97.7605V22.124H99.9126V10.0457H102.502V22.124H104.66V1.85156H102.502Z" fill="#FFFFFD"/>
<path d="M92.806 6.96747V5.09732H96.0457V2.93945H87.4027V5.09732H90.6481V6.96747L86.4935 14.1546H88.9851L91.7242 9.41306L94.4633 14.1546H96.9549L92.806 6.96747Z" fill="#FFFFFD"/>
<path d="M62.1758 1.85156V7.88784H59.6324V1.85156H57.4745V11.9907H49.7062V5.08549H55.7655V2.92762H47.5541V12.2784L48.6301 14.1428H57.4745V22.124H59.6324V10.0457H62.1758V22.124H64.3337V1.85156H62.1758Z" fill="#FFFFFD"/>
<path d="M111.49 3.26758H114.08V18.1022H121.779V20.3406H111.496V3.26758H111.49Z" fill="#A7A19F"/>
<path d="M124.432 3.26758H135.117V5.50601H127.021V10.6734H134.553V12.8888H127.021V18.1022H135.209V20.3406H124.432V3.26758Z" fill="#A7A19F"/>
<path d="M138.294 3.26758H148.98V5.50601H140.883V10.6734H148.416V12.8888H140.883V18.1022H149.072V20.3406H138.294V3.26758Z" fill="#A7A19F"/>
<path d="M151.31 3.26758H164.516V5.50601H159.222V20.3406H156.633V5.51176H151.316V3.27333L151.31 3.26758Z" fill="#A7A19F"/>
</g>
<defs>
<clipPath id="clip0_4275_31175">
<rect width="164.033" height="23" fill="white" transform="translate(0.483765 0.5)"/>
</clipPath>
</defs>
</svg>
