<svg width="172" height="24" viewBox="0 0 172 24" fill="none" xmlns="http://www.w3.org/2000/svg">
<g clip-path="url(#clip0_4211_86319)">
<path d="M24.6099 2.02952L21.1994 7.93195L22.3762 9.96748L28.1286 0H16.6179L17.7948 2.02952H24.6099Z" fill="#2C2923"/>
<path d="M24.6099 2.02952L21.1994 7.93195L22.3762 9.96748L28.1286 0H16.6179L17.7948 2.02952H24.6099Z" fill="#2C2923"/>
<path d="M14.2701 4.06505L24.6099 21.9645H17.7948L16.6179 24H28.1285L14.2701 0L0.417725 24H14.2701L18.6174 16.4704L17.4465 14.4348L13.0992 21.9645H3.93636L14.2701 4.06505Z" fill="#2C2923"/>
<path d="M14.27 14.2676C15.2516 14.2676 16.0473 13.4718 16.0473 12.4902C16.0473 11.5086 15.2516 10.7129 14.27 10.7129C13.2884 10.7129 12.4927 11.5086 12.4927 12.4902C12.4927 13.4718 13.2884 14.2676 14.27 14.2676Z" fill="#2C2923"/>
<path d="M86.4863 1.41016H84.2346V17.16H86.4863V1.41016Z" fill="#2C2923"/>
<path d="M75.9065 1.98633C72.8022 1.98633 70.2803 4.50222 70.2803 7.61255C70.2803 10.7229 72.8022 13.2388 75.9065 13.2388C79.0108 13.2388 81.5327 10.7229 81.5327 7.61255C81.5327 4.50222 79.0108 1.98633 75.9065 1.98633ZM75.9065 11.1372C74.1412 11.1372 72.7061 9.55801 72.7061 7.60654C72.7061 5.65508 74.1352 4.0759 75.9065 4.0759C77.6778 4.0759 79.1069 5.65508 79.1069 7.60654C79.1069 9.55801 77.6778 11.1372 75.9065 11.1372Z" fill="#2C2923"/>
<path d="M75.3421 19.8618V14.9141H73.0964V20.168L74.2193 22.1135H86.9368V19.8618H75.3421Z" fill="#2C2923"/>
<path d="M29.1914 14.2537H31.8934L35.9465 7.27647L39.9935 14.2537H42.6955L35.9465 2.54492L29.1914 14.2537Z" fill="#2C2923"/>
<path d="M46.2983 1.41016H44.0466V22.564H46.2983V1.41016Z" fill="#2C2923"/>
<path d="M106.872 1.41016V7.70888H104.17V1.41016H101.924V22.564H104.17V9.96057H106.872V22.564H109.123V1.41016H106.872Z" fill="#2C2923"/>
<path d="M96.7542 6.74807V4.79661H100.135V2.54492H91.1159V4.79661H94.5025V6.74807L90.1672 14.2477H92.7672L95.6253 9.29999L98.4835 14.2477H101.083L96.7542 6.74807Z" fill="#2C2923"/>
<path d="M64.7921 1.41016V7.70888H62.1381V1.41016H59.8864V11.9901H51.7804V4.78469H58.1031V2.533H49.5347V12.2903L50.6575 14.2358H59.8864V22.564H62.1381V9.96057H64.7921V22.564H67.0438V1.41016H64.7921Z" fill="#2C2923"/>
<path d="M116.25 2.88867H118.953V18.3683H126.987V20.704H116.256V2.88867H116.25Z" fill="#A7A19F"/>
<path d="M129.755 2.88867H140.905V5.22442H132.457V10.6165H140.317V12.9282H132.457V18.3683H141.001V20.704H129.755V2.88867Z" fill="#A7A19F"/>
<path d="M144.219 2.88867H155.37V5.22442H146.922V10.6165H154.781V12.9282H146.922V18.3683H155.466V20.704H144.219V2.88867Z" fill="#A7A19F"/>
<path d="M157.802 2.88867H171.582V5.22442H166.058V20.704H163.356V5.23043H157.808V2.89468L157.802 2.88867Z" fill="#A7A19F"/>
</g>
<defs>
<clipPath id="clip0_4211_86319">
<rect width="171.164" height="24" fill="white" transform="translate(0.417725)"/>
</clipPath>
</defs>
</svg>
