<svg width="148" height="48" viewBox="0 0 148 48" fill="none" xmlns="http://www.w3.org/2000/svg">
<g clip-path="url(#clip0_282_7477)">
<path fill-rule="evenodd" clip-rule="evenodd" d="M23.413 20.604C23.371 20.374 23.173 20.204 22.931 20.204H5.31505L5.22705 20.211C5.11423 20.2316 5.0122 20.2911 4.93875 20.3792C4.86529 20.4673 4.82506 20.5783 4.82505 20.693V47.511L4.83305 47.598C4.85437 47.7105 4.91409 47.8121 5.002 47.8854C5.08992 47.9587 5.20057 47.9992 5.31505 48H7.69005L7.77605 47.992C8.00305 47.951 8.17805 47.749 8.17805 47.511V40.246L8.18605 40.159C8.20695 40.0467 8.26672 39.9454 8.35485 39.8728C8.44299 39.8003 8.55387 39.761 8.66805 39.762H12.222L12.309 39.754C12.536 39.712 12.711 39.51 12.711 39.272V31.942L12.719 31.852C12.7393 31.7392 12.7988 31.6372 12.887 31.564C12.9752 31.4908 13.0864 31.4511 13.201 31.452H22.931L23.02 31.445C23.25 31.403 23.42 31.205 23.42 30.963V20.693L23.413 20.604ZM42.871 32.715C42.831 32.487 42.6311 32.314 42.391 32.314H14.06L13.972 32.323C13.744 32.363 13.571 32.563 13.571 32.803V47.51L13.579 47.598C13.5996 47.7106 13.659 47.8123 13.7469 47.8856C13.8348 47.9589 13.9456 47.999 14.06 47.999H23.616L23.703 47.991C23.8155 47.9702 23.9172 47.9108 23.9904 47.8229C24.0636 47.7351 24.1038 47.6244 24.104 47.51V40.246L24.112 40.159C24.1324 40.0468 24.1915 39.9453 24.2791 39.8722C24.3666 39.7991 24.477 39.759 24.591 39.759H32.0661L32.155 39.767C32.2673 39.788 32.3688 39.8475 32.4418 39.9354C32.5148 40.0232 32.5549 40.1338 32.555 40.248V47.51L32.564 47.598C32.5846 47.7104 32.6439 47.812 32.7316 47.8853C32.8192 47.9585 32.9298 47.9988 33.044 47.999H42.391L42.479 47.991C42.5913 47.97 42.6928 47.9105 42.7658 47.8226C42.8388 47.7348 42.8789 47.6242 42.8791 47.51V32.803L42.871 32.715ZM63.954 36.471C63.117 36.262 62.1511 36.158 61.0541 36.158C59.9571 36.158 58.9951 36.262 58.1651 36.471C57.3361 36.68 56.639 36.966 56.076 37.326C55.5131 37.687 55.0921 38.116 54.8101 38.614C54.528 39.112 54.3881 39.642 54.3881 40.204C54.385 40.7558 54.5308 41.2981 54.8101 41.774C55.0921 42.257 55.5131 42.68 56.076 43.04C56.639 43.4 57.335 43.685 58.1651 43.895C58.994 44.104 59.9571 44.209 61.0531 44.209C62.1511 44.209 63.1171 44.104 63.953 43.895C64.79 43.686 65.49 43.4 66.053 43.04C66.6161 42.679 67.041 42.257 67.33 41.774C67.619 41.291 67.763 40.767 67.763 40.204C67.763 39.642 67.619 39.112 67.33 38.614C67.041 38.116 66.616 37.687 66.054 37.326C65.49 36.966 64.79 36.681 63.954 36.471ZM83.259 36.471C82.4221 36.262 81.455 36.158 80.359 36.158C79.262 36.158 78.3 36.262 77.47 36.471C76.64 36.68 75.944 36.966 75.381 37.326C74.818 37.687 74.396 38.116 74.115 38.614C73.833 39.112 73.693 39.642 73.693 40.204C73.69 40.7558 73.8358 41.2981 74.115 41.774C74.396 42.257 74.818 42.68 75.381 43.04C75.944 43.4 76.64 43.685 77.47 43.895C78.299 44.104 79.262 44.209 80.358 44.209C81.455 44.209 82.4221 44.104 83.258 43.895C84.096 43.686 84.795 43.4 85.358 43.04C85.9211 42.679 86.346 42.257 86.635 41.774C86.923 41.291 87.068 40.767 87.068 40.204C87.068 39.642 86.923 39.112 86.635 38.614C86.346 38.116 85.9211 37.687 85.358 37.326C84.795 36.966 84.096 36.681 83.259 36.471ZM59.2141 38.463C59.7201 38.354 60.3321 38.3 61.0541 38.3C61.7751 38.3 62.389 38.354 62.8941 38.463C63.3981 38.571 63.81 38.711 64.127 38.884C64.444 39.058 64.675 39.261 64.82 39.491C64.964 39.722 65.036 39.96 65.036 40.205C65.036 40.45 64.964 40.685 64.82 40.908C64.675 41.132 64.444 41.33 64.127 41.504C63.81 41.676 63.3981 41.817 62.8941 41.925C62.389 42.034 61.7751 42.088 61.0541 42.088C60.3321 42.088 59.7201 42.034 59.2141 41.925C58.709 41.817 58.3021 41.676 57.9921 41.504C57.681 41.33 57.4541 41.132 57.3101 40.908C57.166 40.685 57.093 40.45 57.093 40.205C57.093 39.96 57.166 39.721 57.3101 39.491C57.4541 39.26 57.682 39.058 57.9921 38.884C58.301 38.711 58.709 38.571 59.2141 38.463ZM78.519 38.463C79.024 38.354 79.637 38.3 80.359 38.3C81.08 38.3 81.694 38.354 82.199 38.463C82.703 38.571 83.115 38.711 83.432 38.884C83.749 39.058 83.98 39.261 84.124 39.491C84.269 39.722 84.341 39.96 84.341 40.205C84.341 40.45 84.269 40.685 84.124 40.908C83.98 41.132 83.749 41.33 83.432 41.504C83.115 41.676 82.703 41.817 82.199 41.925C81.694 42.034 81.08 42.088 80.359 42.088C79.637 42.088 79.024 42.034 78.519 41.925C78.014 41.817 77.606 41.676 77.296 41.504C76.986 41.33 76.759 41.132 76.615 40.908C76.47 40.685 76.398 40.45 76.398 40.205C76.398 39.96 76.47 39.721 76.615 39.491C76.759 39.26 76.986 39.058 77.296 38.884C77.606 38.711 78.014 38.571 78.519 38.463ZM67.373 28.691V23.995H64.712V35.941H67.373V30.942H70.382V28.691H67.373ZM86.678 28.691V23.995H84.017V35.941H86.678V30.942H89.687V28.691H86.678ZM59.225 26.494C59.29 25.852 59.315 25.185 59.301 24.492H56.5751C56.633 25.589 56.5681 26.592 56.3801 27.5C56.2035 28.3803 55.8818 29.2252 55.4281 30C54.9612 30.7813 54.3767 31.4859 53.695 32.089C52.989 32.724 52.1511 33.316 51.1851 33.864L53.111 35.638C54.1063 35.0651 55.0292 34.3748 55.8601 33.582C56.6502 32.8211 57.3214 31.9457 57.8511 30.985C58.387 31.8363 59.0389 32.6087 59.788 33.28C60.5397 33.9491 61.3812 34.5098 62.288 34.946L63.932 33.193C62.677 32.573 61.6521 31.873 60.8601 31.093C60.0525 30.2951 59.3864 29.3659 58.89 28.345C59.048 27.754 59.16 27.136 59.225 26.494ZM78.53 26.494C78.595 25.852 78.62 25.185 78.606 24.492H75.88C75.938 25.589 75.872 26.592 75.685 27.5C75.5085 28.3803 75.1867 29.2252 74.733 30C74.2662 30.7813 73.6817 31.4859 73 32.089C72.293 32.724 71.456 33.316 70.49 33.864L72.416 35.638C73.4114 35.0652 74.3343 34.3749 75.165 33.582C75.9553 32.8212 76.6265 31.9457 77.156 30.985C77.6917 31.8362 78.3433 32.6086 79.092 33.28C79.8437 33.9491 80.6852 34.5098 81.592 34.946L83.237 33.193C81.982 32.573 80.957 31.873 80.165 31.093C79.3575 30.2951 78.6914 29.3659 78.195 28.345C78.353 27.754 78.465 27.136 78.53 26.494ZM42.8721 20.602C42.8301 20.375 42.6311 20.202 42.3931 20.202L42.392 20.201H24.772L24.684 20.21C24.456 20.25 24.283 20.45 24.283 20.69V30.964L24.291 31.052C24.3116 31.1646 24.371 31.2663 24.4589 31.3396C24.5468 31.4129 24.6576 31.453 24.772 31.453H42.391L42.479 31.444C42.5912 31.4231 42.6925 31.3636 42.7655 31.276C42.8385 31.1884 42.8787 31.0781 42.8791 30.964V20.689L42.8721 20.602ZM10.694 25.367L10.812 25.357L10.927 25.36C11.0938 25.3713 11.2562 25.4189 11.4028 25.4993C11.5494 25.5796 11.6767 25.691 11.7759 25.8255C11.8752 25.9601 11.9439 26.1146 11.9775 26.2784C12.011 26.4422 12.0085 26.6113 11.97 26.774C11.9157 27.0025 11.7925 27.2088 11.617 27.3649C11.4415 27.5211 11.2223 27.6196 10.989 27.647L10.867 27.655C10.5733 27.661 10.2884 27.5543 10.0709 27.3567C9.85344 27.1592 9.7199 26.8858 9.69775 26.5929C9.6756 26.2999 9.76652 26.0096 9.95182 25.7816C10.1371 25.5536 10.4027 25.4052 10.694 25.367ZM13.679 15.7209C13.4072 15.4634 13.0465 15.3208 12.672 15.323C12.2868 15.323 11.9174 15.476 11.645 15.7484C11.3726 16.0208 11.2195 16.3903 11.2195 16.7755C11.2195 17.1607 11.3726 17.5302 11.645 17.8026C11.9174 18.075 12.2868 18.228 12.672 18.228L12.812 18.221C13.1849 18.1871 13.5303 18.0104 13.776 17.7279C14.0217 17.4454 14.1488 17.0789 14.1308 16.7049C14.1127 16.3309 13.9509 15.9784 13.679 15.7209ZM3.77505 10.104L3.58505 10.099V10.1C2.87568 10.0998 2.18218 10.31 1.59229 10.704C1.0024 11.098 0.542622 11.6581 0.271112 12.3135C-0.000398346 12.9688 -0.0714389 13.69 0.0669769 14.3857C0.205393 15.0815 0.547046 15.7205 1.04872 16.222C1.55039 16.7236 2.18954 17.065 2.88531 17.2033C3.58109 17.3415 4.30223 17.2702 4.95751 16.9986C5.61279 16.7269 6.17276 16.2669 6.5666 15.6769C6.96044 15.0869 7.17044 14.3934 7.17005 13.684C7.17054 12.7659 6.81862 11.8827 6.1869 11.2166C5.55517 10.5504 4.69184 10.1522 3.77505 10.104ZM5.80311 11.5861L5.80305 11.586L5.80205 11.585C5.8024 11.5854 5.80276 11.5858 5.80311 11.5861ZM5.80311 11.5861L5.90205 11.779C6.12139 12.2458 6.23585 12.7549 6.2374 13.2706C6.23894 13.7863 6.12753 14.2961 5.91099 14.7642C5.69444 15.2322 5.37803 15.6472 4.98397 15.9799C4.58992 16.3126 4.12779 16.555 3.63005 16.69L3.44805 16.734H3.58405C4.39342 16.734 5.16971 16.4128 5.74249 15.841C6.31527 15.2691 6.63772 14.4934 6.63905 13.684C6.63905 12.8666 6.31749 12.131 5.80311 11.5861ZM22.057 12.1539C21.6087 11.7307 21.0114 11.5015 20.395 11.516C20.0817 11.5068 19.7698 11.5606 19.4776 11.6742C19.1855 11.7878 18.9191 11.9588 18.6942 12.1772C18.4694 12.3956 18.2906 12.6569 18.1686 12.9456C18.0465 13.2343 17.9836 13.5446 17.9836 13.858C17.9836 14.1714 18.0465 14.4817 18.1686 14.7704C18.2906 15.0591 18.4694 15.3204 18.6942 15.5388C18.9191 15.7572 19.1855 15.9282 19.4776 16.0418C19.7698 16.1554 20.0817 16.2092 20.395 16.2L20.555 16.195C21.171 16.1674 21.7512 15.8979 22.1696 15.445C22.588 14.9922 22.8109 14.3925 22.7898 13.7763C22.7687 13.1602 22.5054 12.5771 22.057 12.1539ZM22.123 13.5127C22.1103 13.1542 22.0141 12.8037 21.842 12.489L21.95 12.612C22.1847 12.9052 22.3318 13.2586 22.3744 13.6317C22.417 14.0047 22.3534 14.3823 22.191 14.7208C22.0285 15.0593 21.7737 15.3451 21.456 15.5452C21.1383 15.7453 20.7705 15.8517 20.395 15.852C20.364 15.852 20.334 15.852 20.304 15.847C20.6547 15.7717 20.983 15.6156 21.2627 15.3911C21.5424 15.1666 21.7659 14.8798 21.9152 14.5537C22.0646 14.2276 22.1357 13.8712 22.123 13.5127ZM12.89 0.005L12.671 0C11.3317 0 10.0462 0.532052 9.09916 1.47911C8.1521 2.42617 7.62005 3.71066 7.62005 5.05C7.62005 6.38934 8.1521 7.67383 9.09916 8.62089C10.0462 9.56795 11.3307 10.1 12.67 10.1C14.01 10.0995 15.295 9.56693 16.2425 8.61942C17.19 7.67192 17.7225 6.38698 17.723 5.047C17.7222 3.7458 17.2191 2.49515 16.3187 1.55581C15.4183 0.616457 14.19 0.0609125 12.89 0.005ZM15.916 2.337L15.791 2.097C16.5503 2.89126 16.9731 3.94825 16.971 5.047C16.9708 6.15145 16.5458 7.21352 15.7841 8.01324C15.0223 8.81297 13.9822 9.28909 12.879 9.343L12.671 9.348L12.575 9.347L12.479 9.343C13.2133 9.18505 13.9022 8.86275 14.4939 8.40033C15.0857 7.93791 15.565 7.34738 15.8958 6.67312C16.2266 5.99886 16.4002 5.2584 16.4037 4.50739C16.4072 3.75637 16.2405 3.01432 15.916 2.337ZM23.0939 3.27584C22.9029 3.09522 22.6499 2.9947 22.387 2.995C22.1147 2.995 21.8534 3.1032 21.6608 3.2958C21.4682 3.4884 21.36 3.74962 21.36 4.022C21.36 4.29438 21.4682 4.5556 21.6608 4.7482C21.8534 4.9408 22.1147 5.049 22.387 5.049L22.499 5.043C22.7604 5.01463 23.0009 4.88713 23.171 4.68676C23.3412 4.48638 23.428 4.2284 23.4137 3.96592C23.3993 3.70344 23.2849 3.45646 23.0939 3.27584ZM144.053 27.977C144.166 26.8119 144.21 25.6412 144.184 24.471V24.47H131.047V26.591H141.414C141.411 26.9663 141.396 27.3415 141.371 27.716C140.558 27.8044 139.742 27.8621 138.924 27.889C138.088 27.918 137.23 27.932 136.35 27.932H130.96V29.88H135.96C136.911 29.88 137.821 29.859 138.686 29.815C139.553 29.772 140.382 29.678 141.176 29.534C141.104 30.183 140.995 30.869 140.852 31.59H128.125V33.712H136.198V35.248H131.025V37.37H141.479V38.647H131.025V44.057H144.66V41.914H133.688V40.616H144.163V35.248H138.904V33.711H147.083V31.591H143.578C143.783 30.393 143.942 29.1874 144.053 27.977ZM105.379 31.981V25.293H92.6105V27.565H102.695V29.794H92.6305V36.353H97.6095V39.079H89.6875V41.309H108.257V39.079H100.336V36.353H105.986V34.123H95.2725V31.981H105.379ZM127.563 41.244V39.015L108.993 39.014V41.244H127.563ZM119.761 26.515C119.811 26.004 119.822 25.473 119.793 24.925H117.109C117.138 26.18 117.001 27.285 116.698 28.237C116.411 29.158 115.948 30.0143 115.335 30.758C114.729 31.486 113.975 32.118 113.073 32.651C112.091 33.2222 111.059 33.7006 109.989 34.08L111.633 36.114C113.031 35.6103 114.342 34.8913 115.518 33.983C116.687 33.0905 117.669 31.9758 118.408 30.703C119.176 31.9307 120.141 33.0239 121.265 33.939C122.376 34.841 123.674 35.559 125.16 36.093L126.784 34.058C125.066 33.424 123.624 32.623 122.455 31.656C121.287 30.69 120.305 29.478 119.511 28.02C119.627 27.5244 119.711 27.0216 119.761 26.515Z" fill="#2C2923"/>
</g>
<defs>
<clipPath id="clip0_282_7477">
<rect width="148" height="48" fill="white"/>
</clipPath>
</defs>
</svg>
