<svg width="598" height="128" viewBox="0 0 598 128" fill="none" xmlns="http://www.w3.org/2000/svg">
<path d="M3.13362 59V57.608L9.46962 57.08H9.94962V59H3.13362ZM8.22162 59C8.31762 53.72 8.31762 48.392 8.31762 43.16V40.28C8.31762 34.904 8.31762 29.528 8.22162 24.296H11.6296C11.5336 29.576 11.5336 34.904 11.5336 41.288V43.976C11.5336 48.392 11.5336 53.72 11.6296 59H8.22162ZM9.94962 59V57.416H26.4616L25.0216 58.424L26.4136 50.024H28.3336L27.9016 59H9.94962ZM3.13362 25.688V24.296H16.8136V25.688L10.3816 26.168H9.46962L3.13362 25.688ZM50.9161 59V57.608L57.2521 57.08H57.7321V59H50.9161ZM56.0041 59C56.1001 53.72 56.1001 48.392 56.1001 43.016V40.28C56.1001 34.904 56.1001 29.576 56.0041 24.296H59.4121C59.3161 29.528 59.3161 34.904 59.3161 40.904V41.864C59.3161 48.392 59.3161 53.72 59.4121 59H56.0041ZM57.7321 59V57.416H75.5401L73.9561 58.472L75.2521 50.552H77.1241L76.6921 59H57.7321ZM57.7321 42.2V40.616H69.1561V42.2H57.7321ZM68.9161 47.144L68.2921 41.816V40.808L68.9161 35.624H70.4041V47.144H68.9161ZM50.9161 25.688V24.296H57.7321V26.168H57.2521L50.9161 25.688ZM74.4361 32.696L73.1401 24.728L74.7721 25.928H57.7321V24.296H75.8761L76.3081 32.696H74.4361ZM100.667 59V57.608L107.003 57.08H107.483V59H100.667ZM105.755 59C105.851 53.72 105.851 48.392 105.851 43.016V40.28C105.851 34.904 105.851 29.576 105.755 24.296H109.163C109.067 29.528 109.067 34.904 109.067 40.904V41.864C109.067 48.392 109.067 53.72 109.163 59H105.755ZM107.483 59V57.416H125.291L123.707 58.472L125.003 50.552H126.875L126.443 59H107.483ZM107.483 42.2V40.616H118.907V42.2H107.483ZM118.667 47.144L118.043 41.816V40.808L118.667 35.624H120.155V47.144H118.667ZM100.667 25.688V24.296H107.483V26.168H107.003L100.667 25.688ZM124.187 32.696L122.891 24.728L124.523 25.928H107.483V24.296H125.627L126.059 32.696H124.187ZM155.891 59V57.608L162.755 57.08H163.667L170.531 57.608V59H155.891ZM161.507 59C161.651 53.72 161.651 48.392 161.651 43.016V40.28C161.651 34.904 161.651 29.576 161.507 24.296H164.915C164.819 29.528 164.819 34.904 164.819 40.28V43.016C164.819 48.392 164.819 53.72 164.915 59H161.507ZM148.787 33.08L149.219 24.296H177.203L177.683 33.08H175.811L174.419 24.296L175.907 25.928H150.515L152.051 24.296L150.611 33.08H148.787ZM240.962 59.72C236.978 59.72 233.282 58.424 231.122 56.984L231.362 50.072H233.138L234.242 57.512L232.37 56.552L232.226 55.112C235.298 57.416 237.362 58.088 240.818 58.088C246.146 58.088 249.842 55.688 249.842 50.84C249.842 47.288 248.066 45.368 242.45 43.112L240.482 42.296C234.962 40.04 232.082 37.064 232.082 32.408C232.082 26.504 236.978 23.528 242.738 23.528C246.386 23.528 248.786 24.488 251.138 26.12L250.946 32.648H249.074L247.97 25.496L249.842 26.456L249.89 27.848C247.538 25.928 245.618 25.208 242.786 25.208C238.226 25.208 234.866 27.368 234.866 31.736C234.866 35.432 237.266 37.496 241.106 39.08L243.218 39.896C250.514 42.872 252.674 45.512 252.674 50.264C252.674 56.168 247.826 59.72 240.962 59.72ZM292.087 59.72C284.839 59.72 280.087 55.784 280.087 45.992V40.424C280.087 35 280.087 29.624 279.991 24.296H283.351C283.255 29.576 283.255 34.904 283.255 40.424V45.272C283.255 54.248 286.855 57.464 292.567 57.464C299.335 57.464 302.407 53.768 302.407 44.456V24.296H304.135L304.087 45.656C304.087 55.112 299.863 59.72 292.087 59.72ZM275.335 25.688V24.296H288.727V25.688L282.343 26.168H281.431L275.335 25.688ZM296.503 25.688V24.296H308.743V25.688L303.559 26.168H302.695L296.503 25.688ZM331.236 59V57.608L337.572 57.08H338.484L344.868 57.608V59H331.236ZM336.324 59C336.42 53.72 336.42 48.392 336.42 43.016V40.28C336.42 34.904 336.42 29.576 336.324 24.296H339.732C339.588 29.576 339.588 34.856 339.588 41.672V42.536C339.588 48.392 339.588 53.72 339.732 59H336.324ZM357.636 59.384C354.756 59.384 353.748 58.568 353.22 56.696L350.532 48.104C349.332 44.12 348.036 42.776 343.62 42.776H338.052V41.336H345.108C350.484 41.336 353.892 37.832 353.892 33.32C353.892 28.712 351.108 25.832 344.964 25.832H338.052V24.296H345.204C352.74 24.296 357.012 27.512 357.012 33.32C357.012 38.168 353.316 42.008 346.692 42.488V42.056C350.868 42.488 352.356 44.12 353.556 48.056L356.868 58.04L355.476 57.224L361.332 57.608V59C360.468 59.192 359.22 59.384 357.636 59.384ZM331.236 25.688V24.296H338.052V26.168H337.572L331.236 25.688ZM394.759 59.384L382.519 24.296H385.879L396.679 56.456H395.767L395.959 55.736L406.135 24.296H408.055L396.439 59.384H394.759ZM378.727 25.688V24.296H391.975V25.736L385.543 26.168H384.727L378.727 25.688ZM400.183 25.736V24.296H411.943V25.688L406.759 26.168H405.943L400.183 25.736ZM433.504 59V57.608L439.84 57.08H440.752L447.136 57.608V59H433.504ZM438.592 59C438.688 53.72 438.688 48.392 438.688 43.016V40.28C438.688 34.904 438.688 29.576 438.592 24.296H442C441.904 29.528 441.904 34.904 441.904 40.28V43.016C441.904 48.392 441.904 53.72 442 59H438.592ZM433.504 25.688V24.296H447.136V25.688L440.752 26.168H439.84L433.504 25.688ZM484.558 59.384L472.318 24.296H475.678L486.478 56.456H485.566L485.758 55.736L495.934 24.296H497.854L486.238 59.384H484.558ZM468.526 25.688V24.296H481.774V25.736L475.342 26.168H474.526L468.526 25.688ZM489.982 25.736V24.296H501.742V25.688L496.558 26.168H495.742L489.982 25.736ZM516.175 59V57.608L520.879 57.128H521.695L526.879 57.608V59H516.175ZM519.727 59L531.343 23.96H533.407L545.215 59H541.951L531.199 26.264H532.159L531.967 26.936L521.599 59H519.727ZM524.863 46.904L524.959 45.416H539.311L539.407 46.904H524.863ZM535.855 59V57.608L542.239 57.128H543.199L549.295 57.608V59H535.855ZM570.571 59V57.608L576.907 57.08H577.387V59H570.571ZM575.659 59C575.755 53.72 575.755 48.392 575.755 43.16V40.28C575.755 34.904 575.755 29.528 575.659 24.296H579.067C578.971 29.576 578.971 34.904 578.971 41.288V43.976C578.971 48.392 578.971 53.72 579.067 59H575.659ZM577.387 59V57.416H593.899L592.459 58.424L593.851 50.024H595.771L595.339 59H577.387ZM570.571 25.688V24.296H584.251V25.688L577.819 26.168H576.907L570.571 25.688Z" fill="#2C2923"/>
<rect y="102" width="211" height="1" fill="#504B42"/>
<path d="M236.127 116V114.656L249.631 92.8L249.311 94.016V93.536H238.783L239.935 92.672L238.399 98.944H236.607L236.895 92.32H254.047V93.696L240.607 115.616L240.863 114.016V114.816H252.159L251.007 115.648L252.799 109.216H254.399L254.239 116H236.127ZM269.309 116V114.976L274.205 114.496H274.653V116H269.309ZM272.285 116C272.381 112.416 272.381 108.672 272.381 104.928V103.424C272.381 99.68 272.381 96 272.285 92.32H277.021C276.925 95.936 276.925 99.68 276.925 103.616V104.512C276.925 108.608 276.925 112.32 277.021 116H272.285ZM274.653 116V114.816H286.909L284.605 115.904L286.173 109.664H287.805L287.773 116H274.653ZM274.653 104.512V103.392H282.525V104.512H274.653ZM282.173 107.744L281.693 104.192V103.52L282.173 100H283.613V107.744H282.173ZM269.309 93.376V92.32H274.653V93.792H274.205L269.309 93.376ZM285.501 98.464L283.997 92.384L286.237 93.536H274.653V92.32H287.165L287.197 98.464H285.501ZM303.102 116V114.976L307.998 114.496H308.926L313.822 114.976V116H303.102ZM306.078 116C306.174 112.416 306.174 108.672 306.174 104.928V103.424C306.174 99.68 306.174 96 306.078 92.32H310.75C310.654 95.968 310.654 99.616 310.654 103.904V104.736C310.654 108.608 310.654 112.32 310.75 116H306.078ZM321.95 116.448C319.294 116.448 317.918 115.648 317.566 113.44L316.414 108.672C315.87 106.016 315.07 104.864 312.478 104.864H308.51V103.712H312.99C316.574 103.712 318.206 101.344 318.206 98.4C318.206 95.264 316.446 93.472 312.99 93.472H308.446V92.32H314.046C319.486 92.32 322.494 94.496 322.494 98.336C322.494 101.344 320.19 104.064 314.142 104.416V104.064C319.198 104.32 320.51 105.92 321.182 109.28L322.654 115.648L320.414 114.656L325.406 114.976V116C324.286 116.288 323.39 116.448 321.95 116.448ZM303.102 93.376V92.32H308.446V93.792H307.998L303.102 93.376ZM350.092 116.608C344.204 116.608 339.052 112.288 339.052 104.16C339.052 96.128 344.204 91.712 350.092 91.712C356.012 91.712 361.132 96.064 361.132 104.16C361.132 112.224 356.044 116.608 350.092 116.608ZM350.092 115.424C354.348 115.424 356.364 110.56 356.364 104.16C356.364 97.792 354.348 92.896 350.092 92.896C345.868 92.896 343.82 97.792 343.82 104.16C343.82 110.56 345.868 115.424 350.092 115.424Z" fill="#2C2923"/>
<rect x="387" y="102" width="211" height="1" fill="#504B42"/>
</svg>
