<svg width="56" height="56" viewBox="0 0 56 56" fill="none" xmlns="http://www.w3.org/2000/svg">
<rect width="56" height="56" rx="28" fill="#A07D3B"/>
<mask id="mask0_4519_47016" style="mask-type:alpha" maskUnits="userSpaceOnUse" x="16" y="16" width="24" height="24">
<rect x="16" y="16" width="24" height="24" fill="#D9D9D9"/>
</mask>
<g mask="url(#mask0_4519_47016)">
<path d="M21 35H22.098L32.7962 24.302L31.698 23.2038L21 33.902V35ZM20 36V33.4808L33.1807 20.2865C33.2832 20.1952 33.3963 20.1246 33.52 20.0747C33.6438 20.0249 33.7729 20 33.9072 20C34.0416 20 34.1717 20.0212 34.2977 20.0635C34.4236 20.1058 34.5398 20.1821 34.6462 20.2923L35.7135 21.3655C35.8237 21.4718 35.899 21.5885 35.9395 21.7155C35.9798 21.8427 36 21.9698 36 22.0968C36 22.2322 35.9772 22.3619 35.9315 22.4857C35.8858 22.6094 35.8132 22.7225 35.7135 22.825L22.5192 36H20ZM32.2375 23.7625L31.698 23.2038L32.7962 24.302L32.2375 23.7625Z" fill="#FFFFFC"/>
</g>
</svg>
