<svg width="36" height="37" viewBox="0 0 36 37" fill="none" xmlns="http://www.w3.org/2000/svg">
<rect x="0.333333" y="0.833333" width="35.3333" height="35.3333" rx="3.66667" stroke="#4F4F4F" stroke-width="0.666667"/>
<path d="M11 18.5C11 15.7038 11 14.3057 11.6663 13.2987C11.9639 12.849 12.349 12.4639 12.7987 12.1663C13.8057 11.5 15.2038 11.5 18 11.5C20.7962 11.5 22.1943 11.5 23.2013 12.1663C23.651 12.4639 24.0361 12.849 24.3337 13.2987C25 14.3057 25 15.7038 25 18.5C25 21.2962 25 22.6943 24.3337 23.7013C24.0361 24.151 23.651 24.5361 23.2013 24.8337C22.1943 25.5 20.7962 25.5 18 25.5C15.2038 25.5 13.8057 25.5 12.7987 24.8337C12.349 24.5361 11.9639 24.151 11.6663 23.7013C11 22.6943 11 21.2962 11 18.5Z" fill="#FFFFFC"/>
<path fill-rule="evenodd" clip-rule="evenodd" d="M18.1878 21.1506C20.1642 21.1506 21.7663 19.8857 21.7663 18.3253C21.7663 16.7649 20.1642 15.5 18.1878 15.5C16.2115 15.5 14.6094 16.7649 14.6094 18.3253C14.6094 18.7777 14.7441 19.2053 14.9835 19.5844L14.0005 21.4996L15.9638 20.5388C16.5745 20.9218 17.3473 21.1506 18.1878 21.1506Z" fill="#2C2923"/>
</svg>
