<svg width="36" height="37" viewBox="0 0 36 37" fill="none" xmlns="http://www.w3.org/2000/svg">
<rect x="0.333333" y="0.833333" width="35.3333" height="35.3333" rx="3.66667" stroke="#4F4F4F" stroke-width="0.666667"/>
<path fill-rule="evenodd" clip-rule="evenodd" d="M23.4735 13.8005C24.0762 13.9633 24.5505 14.4467 24.711 15.0627C25.0025 16.1772 25 18.5013 25 18.5013C25 18.5013 25 20.8253 24.7085 21.9398C24.548 22.5533 24.0737 23.0367 23.4711 23.202C22.3793 23.5 18 23.5 18 23.5C18 23.5 13.6207 23.5 12.5289 23.202C11.9263 23.0392 11.452 22.5558 11.2915 21.9398C11 20.8253 11 18.5013 11 18.5013C11 18.5013 11 16.1772 11.2939 15.0602C11.4545 14.4467 11.9287 13.9633 12.5314 13.798C13.6231 13.5 18.0025 13.5 18.0025 13.5C18.0025 13.5 22.3793 13.5 23.4735 13.8005ZM17 16.5V20.5L20 18.5L17 16.5Z" fill="#FBFAF6"/>
</svg>
