<svg width="36" height="37" viewBox="0 0 36 37" fill="none" xmlns="http://www.w3.org/2000/svg">
<rect x="0.333333" y="0.833333" width="35.3333" height="35.3333" rx="3.66667" stroke="#4F4F4F" stroke-width="0.666667"/>
<path fill-rule="evenodd" clip-rule="evenodd" d="M11.6369 12.5H23.3631C24.2602 12.5 25 13.2196 25 14.0922V20.542C25 21.4145 24.2602 22.1342 23.3631 22.1342H18.7392C18.7392 22.1342 17.7774 24.5 17.4538 24.5C17.1301 24.5 16.2423 22.1342 16.2423 22.1342H11.6369C10.7398 22.1342 10 21.4145 10 20.542V14.0922C10 13.2196 10.7398 12.5 11.6369 12.5ZM13.3755 18.8148C13.7639 18.8148 14.1245 18.7069 14.3557 18.455C14.5962 18.2031 14.7072 17.9603 14.7072 17.5375C14.7072 17.1507 14.5592 16.7998 14.365 16.575C14.1615 16.3501 13.8286 16.1612 13.5142 16.1702C13.1443 16.1882 12.8298 16.2511 12.5894 16.449H12.5709V15.0187H11.6924V18.7519H12.5709V18.572H12.5801C12.7651 18.7159 13.024 18.8148 13.3755 18.8148ZM15.3545 18.7879H16.2515V16.503C16.1776 15.0187 14.9199 14.9468 14.9199 14.9468V15.8733C14.9199 15.8733 15.3545 15.9453 15.3545 16.476V18.7879ZM19.442 18.527C19.59 18.3921 19.701 18.2481 19.775 18.0772C19.849 17.9063 19.8859 17.7354 19.8859 17.5465C19.8859 17.3576 19.849 17.1867 19.775 17.0157C19.6917 16.8448 19.59 16.7009 19.442 16.566C19.3033 16.44 19.1369 16.3411 18.9519 16.2691C18.767 16.1972 18.5728 16.1612 18.3693 16.1612C18.1751 16.1612 17.9809 16.1972 17.7959 16.2691C17.611 16.3411 17.4538 16.44 17.3058 16.566C17.1578 16.7009 17.0469 16.8538 16.9729 17.0157C16.8989 17.1867 16.8619 17.3576 16.8619 17.5465C16.8619 17.7354 16.8989 17.9153 16.9729 18.0772C17.0469 18.2391 17.1578 18.3921 17.3058 18.527C17.4445 18.6529 17.611 18.7519 17.7959 18.8238C17.9716 18.8958 18.1658 18.9318 18.3693 18.9318C18.5728 18.9318 18.767 18.8958 18.9519 18.8238C19.1369 18.7519 19.3033 18.6529 19.442 18.527ZM22.8822 19.7774C23.1782 19.4985 23.3076 19.1027 23.3076 18.446H23.3169V16.1882H22.4383V16.3951H22.4291C22.2164 16.2061 21.9945 16.1252 21.6523 16.1252C21.2639 16.1252 20.9309 16.2511 20.6905 16.521C20.4593 16.7909 20.3391 17.1507 20.3391 17.6094C20.3391 18.0142 20.4408 18.3381 20.6535 18.581C20.8662 18.8238 21.1806 18.9498 21.5413 18.9498C21.939 18.9498 22.2256 18.8508 22.4291 18.581H22.4383V18.7519C22.4383 19.2016 21.9482 19.4355 21.5875 19.3996V20.0742C22.0129 20.1282 22.5216 20.1102 22.8822 19.7774ZM17.9355 17.1145C18.0464 16.9975 18.1944 16.9346 18.3609 16.9346C18.5366 16.9346 18.6845 16.9885 18.7955 17.1145C18.9157 17.2404 18.9805 17.3753 18.9805 17.5463C18.9805 17.7172 18.9157 17.8611 18.7955 17.978C18.6753 18.095 18.5273 18.158 18.3609 18.158C18.1944 18.158 18.0557 18.095 17.9355 17.978C17.8153 17.8521 17.7598 17.7172 17.7598 17.5463C17.7598 17.3753 17.8153 17.2314 17.9355 17.1145ZM12.748 17.1233C12.8589 17.0063 13.0069 16.9434 13.1734 16.9434C13.3491 16.9434 13.4878 16.9973 13.608 17.1233C13.7282 17.2402 13.793 17.3841 13.793 17.5551C13.793 17.726 13.7282 17.8699 13.608 17.9868C13.4878 18.1038 13.3398 18.1667 13.1734 18.1667C13.0069 18.1667 12.8682 18.1038 12.748 17.9868C12.6278 17.8609 12.5723 17.726 12.5723 17.5551C12.5723 17.3841 12.6278 17.2402 12.748 17.1233ZM21.8296 16.9434C21.6632 16.9434 21.5152 17.0063 21.4042 17.1233C21.284 17.2402 21.2285 17.3841 21.2285 17.5551C21.2285 17.726 21.284 17.8609 21.4042 17.9868C21.5244 18.1038 21.6632 18.1667 21.8296 18.1667C21.9961 18.1667 22.1441 18.1038 22.2643 17.9868C22.3845 17.8699 22.4492 17.726 22.4492 17.5551C22.4492 17.3841 22.3845 17.2402 22.2643 17.1233C22.1441 16.9973 21.9961 16.9434 21.8296 16.9434Z" fill="#FBFAF6"/>
</svg>
