<svg width="32" height="32" viewBox="0 0 32 32" fill="none" xmlns="http://www.w3.org/2000/svg">
<mask id="mask0_2667_44929" style="mask-type:alpha" maskUnits="userSpaceOnUse" x="0" y="0" width="32" height="32">
<rect width="32" height="32" fill="#D9D9D9"/>
</mask>
<g mask="url(#mask0_2667_44929)">
<path fill-rule="evenodd" clip-rule="evenodd" d="M20.3007 14.6503C20.3007 17.7709 17.7709 20.3007 14.6503 20.3007C11.5297 20.3007 9 17.7709 9 14.6503C9 11.5297 11.5297 9 14.6503 9C17.7709 9 20.3007 11.5297 20.3007 14.6503ZM19.2928 19.4121C18.0944 20.5807 16.4564 21.3007 14.6503 21.3007C10.9775 21.3007 8 18.3232 8 14.6503C8 10.9775 10.9775 8 14.6503 8C18.3232 8 21.3007 10.9775 21.3007 14.6503C21.3007 16.1566 20.7999 17.5459 19.9558 18.6609L24.442 23.1471C24.6373 23.3423 24.6373 23.6589 24.442 23.8542C24.2467 24.0495 23.9302 24.0495 23.7349 23.8542L19.2928 19.4121Z" fill="#2C2923"/>
</g>
</svg>
