<svg width="32" height="32" viewBox="0 0 32 32" fill="none" xmlns="http://www.w3.org/2000/svg">
<mask id="mask0_3879_36168" style="mask-type:alpha" maskUnits="userSpaceOnUse" x="4" y="4" width="24" height="24">
<rect x="4" y="4" width="24" height="24" fill="#BEBEBC"/>
</mask>
<g mask="url(#mask0_3879_36168)">
<path d="M11.9719 22.918L16.3981 20.2295L20.8244 22.9508L19.6768 17.8689L23.5785 14.4918L18.4309 14.0328L16.3981 9.27869L14.3653 14L9.2178 14.459L13.1194 17.8689L11.9719 22.918ZM16.3981 21.082L11.644 23.9672C11.5566 23.9891 11.4801 24 11.4145 24C11.3489 24 11.2834 23.9781 11.2178 23.9344C11.1522 23.8907 11.103 23.8306 11.0703 23.7541C11.0375 23.6776 11.0429 23.5956 11.0867 23.5082L12.3326 18.1311L8.16862 14.4918C8.10304 14.4481 8.05386 14.388 8.02108 14.3115C7.98829 14.235 7.99375 14.153 8.03747 14.0656C8.05933 14 8.09758 13.9454 8.15222 13.9016C8.20687 13.8579 8.27791 13.8361 8.36534 13.8361L13.8735 13.3443L16.0375 8.22951C16.0812 8.16393 16.1304 8.10929 16.185 8.06557C16.2397 8.02186 16.3107 8 16.3981 8C16.4856 8 16.5566 8.02186 16.6112 8.06557C16.6659 8.10929 16.7151 8.16393 16.7588 8.22951L18.9227 13.3443L24.4309 13.8361C24.5183 13.8361 24.5894 13.8579 24.644 13.9016C24.6987 13.9454 24.7479 14 24.7916 14.0656C24.8134 14.153 24.808 14.235 24.7752 14.3115C24.7424 14.388 24.6932 14.4481 24.6276 14.4918L20.4637 18.1311L21.7424 23.5082C21.7642 23.5956 21.7588 23.6776 21.726 23.7541C21.6932 23.8306 21.644 23.8907 21.5785 23.9344C21.5129 23.9781 21.4473 24 21.3817 24C21.3162 24 21.2397 23.9891 21.1522 23.9672L16.3981 21.082Z" fill="#A07D3B"/>
</g>
</svg>
