<svg width="24" height="24" viewBox="0 0 24 24" fill="none" xmlns="http://www.w3.org/2000/svg">
<rect width="24" height="24" rx="6" fill="#2C2923"/>
<path fill-rule="evenodd" clip-rule="evenodd" d="M6 12C6 9.60324 6 8.40486 6.57113 7.5417C6.82616 7.15626 7.15626 6.82616 7.5417 6.57113C8.40486 6 9.60324 6 12 6C14.3968 6 15.5951 6 16.4583 6.57113C16.8437 6.82616 17.1738 7.15626 17.4289 7.5417C18 8.40486 18 9.60324 18 12C18 14.3968 18 15.5951 17.4289 16.4583C17.1738 16.8437 16.8437 17.1738 16.4583 17.4289C15.5951 18 14.3968 18 12 18C9.60324 18 8.40486 18 7.5417 17.4289C7.15626 17.1738 6.82616 16.8437 6.57113 16.4583C6 15.5951 6 14.3968 6 12ZM15.1066 12.0002C15.1066 13.7157 13.7159 15.1065 12.0003 15.1065C10.2848 15.1065 8.89404 13.7157 8.89404 12.0002C8.89404 10.2846 10.2848 8.89392 12.0003 8.89392C13.7159 8.89392 15.1066 10.2846 15.1066 12.0002ZM12.0003 14.0555C13.1354 14.0555 14.0557 13.1353 14.0557 12.0002C14.0557 10.8651 13.1354 9.94486 12.0003 9.94486C10.8652 9.94486 9.94498 10.8651 9.94498 12.0002C9.94498 13.1353 10.8652 14.0555 12.0003 14.0555ZM15.2291 9.46782C15.6323 9.46782 15.959 9.14104 15.959 8.73794C15.959 8.33484 15.6323 8.00806 15.2291 8.00806C14.826 8.00806 14.4993 8.33484 14.4993 8.73794C14.4993 9.14104 14.826 9.46782 15.2291 9.46782Z" fill="#FFFFFC"/>
</svg>
