<svg width="24" height="24" viewBox="0 0 24 24" fill="none" xmlns="http://www.w3.org/2000/svg">
<mask id="mask0_1945_16838" style="mask-type:alpha" maskUnits="userSpaceOnUse" x="0" y="0" width="24" height="24">
<rect width="24" height="24" fill="#D9D9D9"/>
</mask>
<g mask="url(#mask0_1945_16838)">
<path fill-rule="evenodd" clip-rule="evenodd" d="M16.3007 10.6503C16.3007 13.7709 13.7709 16.3007 10.6503 16.3007C7.52974 16.3007 5 13.7709 5 10.6503C5 7.52974 7.52974 5 10.6503 5C13.7709 5 16.3007 7.52974 16.3007 10.6503ZM15.2928 15.4121C14.0944 16.5807 12.4564 17.3007 10.6503 17.3007C6.97746 17.3007 4 14.3232 4 10.6503C4 6.97746 6.97746 4 10.6503 4C14.3232 4 17.3007 6.97746 17.3007 10.6503C17.3007 12.1566 16.7999 13.5459 15.9558 14.6609L20.442 19.1471C20.6373 19.3423 20.6373 19.6589 20.442 19.8542C20.2467 20.0495 19.9302 20.0495 19.7349 19.8542L15.2928 15.4121Z" fill="#2C2923"/>
</g>
</svg>
