<svg width="36" height="36" viewBox="0 0 36 36" fill="none" xmlns="http://www.w3.org/2000/svg">
<path d="M14.375 26.675L6.225 18.525C6.14167 18.4417 6.08333 18.3583 6.05 18.275C6.01667 18.1917 6 18.1 6 18C6 17.9 6.01667 17.8083 6.05 17.725C6.08333 17.6417 6.14167 17.5583 6.225 17.475L14.4 9.3C14.5167 9.18333 14.65 9.125 14.8 9.125C14.95 9.125 15.0917 9.19167 15.225 9.325C15.3417 9.44167 15.4 9.58333 15.4 9.75C15.4 9.91667 15.3417 10.0583 15.225 10.175L7.4 18L15.25 25.85C15.3667 25.9667 15.425 26.1 15.425 26.25C15.425 26.4 15.3583 26.5417 15.225 26.675C15.1083 26.7917 14.9667 26.85 14.8 26.85C14.6333 26.85 14.4917 26.7917 14.375 26.675Z" fill="#2C2923"/>
</svg>
