<svg width="40" height="40" viewBox="0 0 40 40" fill="none" xmlns="http://www.w3.org/2000/svg">
<mask id="mask0_2984_85803" style="mask-type:alpha" maskUnits="userSpaceOnUse" x="0" y="0" width="40" height="40">
<rect width="40" height="40" fill="#D9D9D9"/>
</mask>
<g mask="url(#mask0_2984_85803)">
<path d="M17.975 25.625L25.2875 20.9375C25.6375 20.7125 25.8125 20.4 25.8125 20C25.8125 19.6 25.6375 19.2875 25.2875 19.0625L17.975 14.375C17.6 14.125 17.2188 14.1063 16.8313 14.3188C16.4438 14.5313 16.25 14.8625 16.25 15.3125V24.6875C16.25 25.1375 16.4438 25.4688 16.8313 25.6813C17.2188 25.8938 17.6 25.875 17.975 25.625ZM20 35C17.925 35 15.975 34.6063 14.15 33.8188C12.325 33.0312 10.7375 31.9625 9.3875 30.6125C8.0375 29.2625 6.96875 27.675 6.18125 25.85C5.39375 24.025 5 22.075 5 20C5 17.925 5.39375 15.975 6.18125 14.15C6.96875 12.325 8.0375 10.7375 9.3875 9.3875C10.7375 8.0375 12.325 6.96875 14.15 6.18125C15.975 5.39375 17.925 5 20 5C22.075 5 24.025 5.39375 25.85 6.18125C27.675 6.96875 29.2625 8.0375 30.6125 9.3875C31.9625 10.7375 33.0312 12.325 33.8188 14.15C34.6063 15.975 35 17.925 35 20C35 22.075 34.6063 24.025 33.8188 25.85C33.0312 27.675 31.9625 29.2625 30.6125 30.6125C29.2625 31.9625 27.675 33.0312 25.85 33.8188C24.025 34.6063 22.075 35 20 35Z" fill="#615D56" fill-opacity="0.5"/>
</g>
</svg>
