<svg width="24" height="24" viewBox="0 0 24 24" fill="none" xmlns="http://www.w3.org/2000/svg">
<mask id="mask0_2667_44926" style="mask-type:alpha" maskUnits="userSpaceOnUse" x="0" y="0" width="24" height="24">
<rect width="24" height="24" fill="#D9D9D9"/>
</mask>
<g mask="url(#mask0_2667_44926)">
<path d="M8.4 16.3077L12 12.7078L15.6 16.3077L16.3077 15.6L12.7078 12L16.3077 8.4L15.6 7.69225L12 11.2923L8.4 7.69225L7.69225 8.4L11.2923 12L7.69225 15.6L8.4 16.3077ZM12.0033 21C10.7587 21 9.58867 20.7638 8.493 20.2915C7.3975 19.8192 6.4445 19.1782 5.634 18.3685C4.8235 17.5588 4.18192 16.6067 3.70925 15.512C3.23642 14.4175 3 13.2479 3 12.0033C3 10.7587 3.23617 9.58867 3.7085 8.493C4.18083 7.3975 4.82183 6.4445 5.6315 5.634C6.44117 4.8235 7.39333 4.18192 8.488 3.70925C9.5825 3.23642 10.7521 3 11.9967 3C13.2413 3 14.4113 3.23617 15.507 3.7085C16.6025 4.18083 17.5555 4.82183 18.366 5.6315C19.1765 6.44117 19.8181 7.39333 20.2908 8.488C20.7636 9.5825 21 10.7521 21 11.9967C21 13.2413 20.7638 14.4113 20.2915 15.507C19.8192 16.6025 19.1782 17.5555 18.3685 18.366C17.5588 19.1765 16.6067 19.8181 15.512 20.2908C14.4175 20.7636 13.2479 21 12.0033 21Z" fill="#BEBEBC"/>
</g>
</svg>
