<svg width="24" height="24" viewBox="0 0 24 24" fill="none" xmlns="http://www.w3.org/2000/svg">
<path d="M8.375 20.675L0.225 12.525C0.141667 12.4417 0.0833335 12.3583 0.0500002 12.275C0.0166669 12.1917 0 12.1 0 12C0 11.9 0.0166669 11.8083 0.0500002 11.725C0.0833335 11.6417 0.141667 11.5583 0.225 11.475L8.4 3.3C8.51667 3.18333 8.65 3.125 8.8 3.125C8.95 3.125 9.09167 3.19167 9.225 3.325C9.34167 3.44167 9.4 3.58333 9.4 3.75C9.4 3.91667 9.34167 4.05833 9.225 4.175L1.4 12L9.25 19.85C9.36667 19.9667 9.425 20.1 9.425 20.25C9.425 20.4 9.35833 20.5417 9.225 20.675C9.10833 20.7917 8.96667 20.85 8.8 20.85C8.63333 20.85 8.49167 20.7917 8.375 20.675Z" fill="#2C2923"/>
</svg>
