<svg width="36" height="37" viewBox="0 0 36 37" fill="none" xmlns="http://www.w3.org/2000/svg">
<rect x="0.333333" y="0.833333" width="35.3333" height="35.3333" rx="3.66667" stroke="#4F4F4F" stroke-width="0.666667"/>
<path d="M21.4964 11.5H14.5036C12.5717 11.5 11 13.1415 11 15.1592V21.8408C11 23.8585 12.5717 25.5 14.5036 25.5H21.4964C23.4283 25.5 25 23.8585 25 21.8408V15.1592C25 13.1415 23.4283 11.5 21.4964 11.5ZM12.2359 15.1592C12.2359 13.8535 13.2534 12.7908 14.5036 12.7908H21.4964C22.7466 12.7908 23.7641 13.8535 23.7641 15.1592V21.8408C23.7641 23.1465 22.7466 24.2092 21.4964 24.2092H14.5036C13.2534 24.2092 12.2359 23.1465 12.2359 21.8408V15.1592Z" fill="#FBFAF6"/>
<path d="M18.1037 21.8811C19.8147 21.8811 21.2074 20.4887 21.2074 18.7765C21.2074 17.0643 19.8154 15.6719 18.1037 15.6719C16.392 15.6719 15 17.0643 15 18.7765C15 20.4887 16.392 21.8811 18.1037 21.8811ZM18.1037 16.8501C19.1662 16.8501 20.0304 17.7145 20.0304 18.7773C20.0304 19.84 19.1662 20.7045 18.1037 20.7045C17.0412 20.7045 16.1771 19.84 16.1771 18.7773C16.1771 17.7145 17.0412 16.8501 18.1037 16.8501Z" fill="#FBFAF6"/>
<path d="M21.4945 16.173C21.9552 16.173 22.3307 15.7981 22.3307 15.3365C22.3307 14.8749 21.9559 14.5 21.4945 14.5C21.033 14.5 20.6582 14.8749 20.6582 15.3365C20.6582 15.7981 21.033 16.173 21.4945 16.173Z" fill="#FBFAF6"/>
</svg>
