<svg width="24" height="24" viewBox="0 0 24 24" fill="none" xmlns="http://www.w3.org/2000/svg">
<rect width="24" height="24" rx="6" fill="#2C2923"/>
<path d="M17.1306 6H6.86942C5.55942 6 4.5 7.01357 4.5 8.26244V13.6259C4.5 14.8748 5.55942 15.8854 6.86942 15.8854H10.4061L11.6114 17.7526C11.6114 17.7526 11.6241 17.7768 11.6495 17.8069C11.7193 17.9216 11.8493 18 12.0016 18C12.1507 18 12.2807 17.9216 12.3505 17.81C12.3822 17.7768 12.3917 17.7526 12.3917 17.7526L13.5971 15.8854H17.1306C18.4374 15.8854 19.5 14.8748 19.5 13.6259V8.26244C19.5 7.01357 18.4374 6 17.1306 6Z" fill="#FFFFFC"/>
<path d="M8.2591 10.0504C8.2591 10.0504 7.8959 10.0504 7.56367 10.3714V9.0791H6.75V12.4746H7.57212V12.2099C7.57212 12.2099 7.76639 12.5619 8.25629 12.5619C8.25629 12.5619 9.405 12.5196 9.405 11.2921C9.40782 11.2893 9.36559 10.0504 8.2591 10.0504ZM8.07891 11.8411C7.78891 11.8411 7.55523 11.6074 7.55523 11.3174C7.55523 11.0274 7.78891 10.7937 8.07891 10.7937C8.3689 10.7937 8.60259 11.0274 8.60259 11.3174C8.60259 11.6074 8.3689 11.8411 8.07891 11.8411Z" fill="#2C2923"/>
<path d="M9.66992 9V9.78834C9.66992 9.78834 10.0416 9.77144 10.0416 10.4641V12.4743H10.8271V10.2782C10.8271 10.2782 10.8609 9 9.66992 9Z" fill="#2C2923"/>
<path d="M12.7491 10.0615C12.7491 10.0615 11.4005 10.0615 11.4005 11.3172C11.4005 11.3172 11.3583 12.5589 12.7491 12.5589C12.7491 12.5589 14.1259 12.556 14.1259 11.3172C14.1259 11.3172 14.171 10.0615 12.7491 10.0615ZM12.7491 11.8409C12.4592 11.8409 12.2255 11.6072 12.2255 11.3172C12.2255 11.0272 12.4592 10.7935 12.7491 10.7935C13.0391 10.7935 13.2728 11.0272 13.2728 11.3172C13.2728 11.6072 13.0391 11.8409 12.7491 11.8409Z" fill="#2C2923"/>
<path d="M16.3757 10.1406V10.3715C16.3757 10.3715 16.1421 10.0618 15.6916 10.0618C15.6916 10.0618 14.54 10.0111 14.54 11.309C14.54 11.309 14.5288 12.5197 15.6606 12.5197C15.6606 12.5197 16.1223 12.5366 16.3757 12.21V12.3986C16.3757 12.3986 16.4349 12.9955 15.8577 12.9955H15.6606V13.7163H15.9788C15.9788 13.7163 17.1697 13.7304 17.1697 12.4437V10.1406H16.3757ZM15.8887 11.8412C15.5987 11.8412 15.365 11.6075 15.365 11.3175C15.365 11.0275 15.5987 10.7938 15.8887 10.7938C16.1787 10.7938 16.4123 11.0275 16.4123 11.3175C16.4123 11.6075 16.1787 11.8412 15.8887 11.8412Z" fill="#2C2923"/>
</svg>
