<svg width="24" height="24" viewBox="0 0 24 24" fill="none" xmlns="http://www.w3.org/2000/svg">
<rect width="24" height="24" rx="6" fill="#2C2923"/>
<path d="M6 12C6 9.60324 6 8.40486 6.57113 7.5417C6.82616 7.15626 7.15626 6.82616 7.5417 6.57113C8.40486 6 9.60324 6 12 6C14.3968 6 15.5951 6 16.4583 6.57113C16.8437 6.82616 17.1738 7.15626 17.4289 7.5417C18 8.40486 18 9.60324 18 12C18 14.3968 18 15.5951 17.4289 16.4583C17.1738 16.8437 16.8437 17.1738 16.4583 17.4289C15.5951 18 14.3968 18 12 18C9.60324 18 8.40486 18 7.5417 17.4289C7.15626 17.1738 6.82616 16.8437 6.57113 16.4583C6 15.5951 6 14.3968 6 12Z" fill="#FFFFFC"/>
<path fill-rule="evenodd" clip-rule="evenodd" d="M12 14.4428C14.0711 14.4428 15.75 13.2218 15.75 11.7156C15.75 10.2093 14.0711 8.98828 12 8.98828C9.92894 8.98828 8.25 10.2093 8.25 11.7156C8.25 12.3902 8.58679 13.0076 9.14476 13.4837L8.2498 15.2014L10.3782 14.1753C10.869 14.3468 11.4191 14.4428 12 14.4428Z" fill="#2C2923"/>
</svg>
