<svg width="96" height="40" viewBox="0 0 96 40" fill="none" xmlns="http://www.w3.org/2000/svg">
<mask id="path-1-inside-1_2324_48533" fill="white">
<path fill-rule="evenodd" clip-rule="evenodd" d="M96 28.1998L96 40L-1.74846e-06 40L-1.22393e-06 28.0002C4.41827 28.0002 8 24.3737 8 19.9002C8 15.4267 4.41828 11.8002 -5.15805e-07 11.8002L0 -4.19629e-06L96 0L96 11.9998C91.5817 11.9998 88 15.6263 88 20.0998C88 24.5733 91.5817 28.1998 96 28.1998Z"/>
</mask>
<path fill-rule="evenodd" clip-rule="evenodd" d="M96 28.1998L96 40L-1.74846e-06 40L-1.22393e-06 28.0002C4.41827 28.0002 8 24.3737 8 19.9002C8 15.4267 4.41828 11.8002 -5.15805e-07 11.8002L0 -4.19629e-06L96 0L96 11.9998C91.5817 11.9998 88 15.6263 88 20.0998C88 24.5733 91.5817 28.1998 96 28.1998Z" fill="#FFFFFC"/>
<path d="M96 40L96 41L97 41L97 40L96 40ZM96 28.1998L97 28.1998L97 27.1998L96 27.1998L96 28.1998ZM-1.74846e-06 40L-1 40L-1 41L-1.79217e-06 41L-1.74846e-06 40ZM-1.22393e-06 28.0002L-1.18022e-06 27.0002L-1 27.0002L-1 28.0002L-1.22393e-06 28.0002ZM-5.15805e-07 11.8002L-1 11.8002L-1 12.8002L-5.59516e-07 12.8002L-5.15805e-07 11.8002ZM0 -4.19629e-06L4.37114e-08 -1L-1 -1L-1 -4.24e-06L0 -4.19629e-06ZM96 0L97 4.37114e-08L97 -1L96 -1L96 0ZM96 11.9998L96 12.9998L97 12.9998L97 11.9998L96 11.9998ZM97 40L97 28.1998L95 28.1998L95 40L97 40ZM-1.79217e-06 41L96 41L96 39L-1.70474e-06 39L-1.79217e-06 41ZM-1 28.0002L-1 40L0.999998 40L0.999999 28.0002L-1 28.0002ZM7 19.9002C7 23.8332 3.85432 27.0002 -1.18022e-06 27.0002L-1.26764e-06 29.0002C4.98223 29.0002 9 24.9143 9 19.9002L7 19.9002ZM-5.59516e-07 12.8002C3.85432 12.8002 7 15.9673 7 19.9002L9 19.9002C9 14.8862 4.98224 10.8002 -4.72093e-07 10.8002L-5.59516e-07 12.8002ZM-1 -4.24e-06L-1 11.8002L0.999999 11.8002L1 -4.15258e-06L-1 -4.24e-06ZM96 -1L4.37114e-08 -1L-4.37114e-08 0.999996L96 1L96 -1ZM97 11.9998L97 4.37114e-08L95 -4.37114e-08L95 11.9998L97 11.9998ZM96 10.9998C91.0178 10.9998 87 15.0857 87 20.0998L89 20.0998C89 16.1668 92.1457 12.9998 96 12.9998L96 10.9998ZM87 20.0998C87 25.1138 91.0178 29.1998 96 29.1998L96 27.1998C92.1457 27.1998 89 24.0327 89 20.0998L87 20.0998Z" fill="#E4DED3" mask="url(#path-1-inside-1_2324_48533)"/>
<line x1="16.5" y1="11.6016" x2="16.5" y2="27.6016" stroke="#E4DED3"/>
<path d="M28.668 17.9766C28.4863 16.957 27.6719 16.3711 26.6406 16.3711C25.252 16.3711 24.2676 17.4375 24.2734 19.3594C24.2676 21.3105 25.2578 22.3477 26.6406 22.3477C27.6484 22.3477 28.4629 21.7852 28.668 20.7891H30.2031C29.9688 22.418 28.627 23.7188 26.6172 23.7188C24.3789 23.7188 22.7324 22.0957 22.7383 19.3594C22.7324 16.6172 24.3965 15 26.6172 15C28.4922 15 29.9395 16.0898 30.2031 17.9766H28.668ZM39.0859 19.3594C39.0918 22.1016 37.416 23.7188 35.1953 23.7188C32.9629 23.7188 31.2988 22.0957 31.3047 19.3594C31.2988 16.6172 32.9629 15 35.1953 15C37.416 15 39.0918 16.6172 39.0859 19.3594ZM32.8398 19.3594C32.834 21.2988 33.8125 22.3477 35.1953 22.3477C36.584 22.3477 37.5566 21.2988 37.5508 19.3594C37.5566 17.4199 36.584 16.3711 35.1953 16.3711C33.8125 16.3711 32.834 17.4199 32.8398 19.3594ZM45.8008 15.1172H47.3359V20.6602C47.3301 22.4824 45.959 23.7305 43.8906 23.7305C41.8105 23.7305 40.4512 22.4824 40.4453 20.6602V15.1172H41.9688V20.5312C41.9746 21.6035 42.7188 22.3652 43.8906 22.3711C45.0625 22.3652 45.8008 21.6035 45.8008 20.5312V15.1172ZM48.9062 23.6016V15.1172H52.0938C54.0391 15.1172 55.0762 16.3008 55.082 17.9297C55.0762 19.5527 54.0273 20.7305 52.0703 20.7305H50.4297V23.6016H48.9062ZM50.4297 19.4766H51.8594C53.0078 19.4707 53.5234 18.8262 53.5234 17.9297C53.5234 17.0215 53.0078 16.3945 51.8594 16.3945H50.4297V19.4766ZM63.8828 19.3594C63.8887 22.1016 62.2129 23.7188 59.9922 23.7188C57.7598 23.7188 56.0957 22.0957 56.1016 19.3594C56.0957 16.6172 57.7598 15 59.9922 15C62.2129 15 63.8887 16.6172 63.8828 19.3594ZM57.6367 19.3594C57.6309 21.2988 58.6094 22.3477 59.9922 22.3477C61.3809 22.3477 62.3535 21.2988 62.3477 19.3594C62.3535 17.4199 61.3809 16.3711 59.9922 16.3711C58.6094 16.3711 57.6309 17.4199 57.6367 19.3594ZM72.2148 15.1172V23.6016H70.8555L66.8359 17.8008H66.7656V23.6016H65.2422V15.1172H66.625L70.6211 20.918H70.7031V15.1172H72.2148Z" fill="#A07D3B"/>
<line x1="79.5" y1="11.6016" x2="79.5" y2="27.6016" stroke="#E4DED3"/>
</svg>
