<svg width="102" height="14" viewBox="0 0 102 14" fill="none" xmlns="http://www.w3.org/2000/svg">
<g clip-path="url(#clip0_3282_28481)">
<path d="M14.1121 1.18389L12.1226 4.62697L12.8091 5.81436L16.1646 0H9.45007L10.1366 1.18389H14.1121Z" fill="#FFFFFD"/>
<path d="M14.1121 1.18389L12.1226 4.62697L12.8091 5.81436L16.1646 0H9.45007L10.1366 1.18389H14.1121Z" fill="#FFFFFD"/>
<path d="M8.08056 2.37128L14.1121 12.8126H10.1366L9.45009 14H16.1646L8.08056 0L0 14H8.08056L10.6165 9.60771L9.93345 8.42031L7.39755 12.8126H2.05254L8.08056 2.37128Z" fill="#FFFFFD"/>
<path d="M8.08054 8.32209C8.65314 8.32209 9.11732 7.85791 9.11732 7.28531C9.11732 6.71272 8.65314 6.24854 8.08054 6.24854C7.50794 6.24854 7.04376 6.71272 7.04376 7.28531C7.04376 7.85791 7.50794 8.32209 8.08054 8.32209Z" fill="#FFFFFD"/>
<path d="M50.2066 0.823242H48.8931V10.0106H50.2066V0.823242Z" fill="#FFFFFD"/>
<path d="M44.035 1.15967C42.2242 1.15967 40.7531 2.62727 40.7531 4.44163C40.7531 6.25599 42.2242 7.72359 44.035 7.72359C45.8459 7.72359 47.317 6.25599 47.317 4.44163C47.317 2.62727 45.8459 1.15967 44.035 1.15967ZM44.035 6.49767C43.0052 6.49767 42.1681 5.57648 42.1681 4.43813C42.1681 3.29977 43.0017 2.37858 44.035 2.37858C45.0683 2.37858 45.9019 3.29977 45.9019 4.43813C45.9019 5.57648 45.0683 6.49767 44.035 6.49767Z" fill="#FFFFFD"/>
<path d="M43.7058 11.5868V8.70068H42.3958V11.7655L43.0508 12.9003H50.4694V11.5868H43.7058Z" fill="#FFFFFD"/>
<path d="M16.7846 8.31547H18.3608L20.7251 4.24542L23.0858 8.31547H24.662L20.7251 1.48535L16.7846 8.31547Z" fill="#FFFFFD"/>
<path d="M26.7636 0.823242H25.4501V13.163H26.7636V0.823242Z" fill="#FFFFFD"/>
<path d="M62.0981 0.823242V4.4975H60.5219V0.823242H59.2119V13.163H60.5219V5.81098H62.0981V13.163H63.4116V0.823242H62.0981Z" fill="#FFFFFD"/>
<path d="M56.1961 3.93719V2.79884H58.1681V1.48535H52.9072V2.79884H54.8827V3.93719L52.3538 8.31197H53.8704L55.5376 5.42581L57.2049 8.31197H58.7215L56.1961 3.93719Z" fill="#FFFFFD"/>
<path d="M37.5517 0.823242V4.4975H36.0035V0.823242H34.69V6.99487H29.9615V2.79172H33.6497V1.47823H28.6515V7.17L29.3065 8.30485H34.69V13.163H36.0035V5.81098H37.5517V13.163H38.8651V0.823242H37.5517Z" fill="#FFFFFD"/>
<path d="M69.2365 1.68457H70.8126V10.7143H75.4991V12.0769H69.24V1.68457H69.2365Z" fill="#A7A19F"/>
<path d="M77.1174 1.68457H83.6218V3.04709H78.6936V6.19245H83.2785V7.54096H78.6936V10.7143H83.6778V12.0769H77.1174V1.68457Z" fill="#A7A19F"/>
<path d="M85.5552 1.68457H92.0596V3.04709H87.1314V6.19245H91.7163V7.54096H87.1314V10.7143H92.1156V12.0769H85.5552V1.68457Z" fill="#A7A19F"/>
<path d="M93.4781 1.68457H101.517V3.04709H98.2943V12.0769H96.7181V3.05059H93.4817V1.68807L93.4781 1.68457Z" fill="#A7A19F"/>
</g>
<defs>
<clipPath id="clip0_3282_28481">
<rect width="101.513" height="14" fill="white"/>
</clipPath>
</defs>
</svg>
