<svg width="100" height="14" viewBox="0 0 100 14" fill="none" xmlns="http://www.w3.org/2000/svg">
<g clip-path="url(#clip0_4275_57261)">
<path d="M14.1122 1.18389L12.1227 4.62697L12.8092 5.81436L16.1647 0H9.4502L10.1367 1.18389H14.1122Z" fill="#FFFFFD"/>
<path d="M14.1122 1.18389L12.1227 4.62697L12.8092 5.81436L16.1647 0H9.4502L10.1367 1.18389H14.1122Z" fill="#FFFFFD"/>
<path d="M8.08056 2.37128L14.1121 12.8126H10.1366L9.45009 14H16.1646L8.08056 0L0 14H8.08056L10.6165 9.60771L9.93345 8.42031L7.39755 12.8126H2.05254L8.08056 2.37128Z" fill="#FFFFFD"/>
<path d="M8.08072 8.3216C8.65332 8.3216 9.1175 7.85742 9.1175 7.28482C9.1175 6.71223 8.65332 6.24805 8.08072 6.24805C7.50813 6.24805 7.04395 6.71223 7.04395 7.28482C7.04395 7.85742 7.50813 8.3216 8.08072 8.3216Z" fill="#FFFFFD"/>
<path d="M50.2066 0.822266H48.8931V10.0097H50.2066V0.822266Z" fill="#FFFFFD"/>
<path d="M44.0349 1.1582C42.224 1.1582 40.7529 2.6258 40.7529 4.44017C40.7529 6.25453 42.224 7.72213 44.0349 7.72213C45.8458 7.72213 47.3169 6.25453 47.3169 4.44017C47.3169 2.6258 45.8458 1.1582 44.0349 1.1582ZM44.0349 6.49621C43.0051 6.49621 42.168 5.57502 42.168 4.43666C42.168 3.29831 43.0016 2.37712 44.0349 2.37712C45.0682 2.37712 45.9018 3.29831 45.9018 4.43666C45.9018 5.57502 45.0682 6.49621 44.0349 6.49621Z" fill="#FFFFFD"/>
<path d="M43.7055 11.5854V8.69922H42.3955V11.764L43.0505 12.8989H50.4691V11.5854H43.7055Z" fill="#FFFFFD"/>
<path d="M16.7847 8.3145H18.3609L20.7251 4.24444L23.0859 8.3145H24.6621L20.7251 1.48438L16.7847 8.3145Z" fill="#FFFFFD"/>
<path d="M26.7637 0.822266H25.4502V13.162H26.7637V0.822266Z" fill="#FFFFFD"/>
<path d="M62.0981 0.822266V4.49652H60.5219V0.822266H59.2119V13.162H60.5219V5.81001H62.0981V13.162H63.4116V0.822266H62.0981Z" fill="#FFFFFD"/>
<path d="M56.1964 3.93621V2.79786H58.1684V1.48438H52.9074V2.79786H54.8829V3.93621L52.354 8.31099H53.8706L55.5379 5.42483L57.2051 8.31099H58.7218L56.1964 3.93621Z" fill="#FFFFFD"/>
<path d="M37.5515 0.822266V4.49652H36.0034V0.822266H34.6899V6.99389H29.9613V2.79074H33.6496V1.47726H28.6514V7.16902L29.3064 8.30388H34.6899V13.162H36.0034V5.81001H37.5515V13.162H38.865V0.822266H37.5515Z" fill="#FFFFFD"/>
<path d="M67.5693 1.68555H69.1455V10.7153H73.832V12.0778H67.5728V1.68555H67.5693Z" fill="#A7A19F"/>
<path d="M75.4468 1.68555H81.9512V3.04807H77.023V6.19343H81.6079V7.54194H77.023V10.7153H82.0072V12.0778H75.4468V1.68555Z" fill="#A7A19F"/>
<path d="M83.8848 1.68555H90.3891V3.04807H85.4609V6.19343H90.0459V7.54194H85.4609V10.7153H90.4452V12.0778H83.8848V1.68555Z" fill="#A7A19F"/>
<path d="M91.8076 1.68555H99.8462V3.04807H96.6237V12.0778H95.0475V3.05157H91.8111V1.68905L91.8076 1.68555Z" fill="#A7A19F"/>
</g>
<defs>
<clipPath id="clip0_4275_57261">
<rect width="99.8459" height="14" fill="white"/>
</clipPath>
</defs>
</svg>
