<svg width="105" height="27" viewBox="0 0 105 27" fill="none" xmlns="http://www.w3.org/2000/svg">
<g clip-path="url(#clip0_3143_42567)">
<g clip-path="url(#clip1_3143_42567)">
<path d="M16.1298 6.85474L13.8578 10.7891L14.6396 12.1467L18.4752 5.5H10.804L11.5858 6.85474H16.1298Z" fill="#FFFFFC"/>
<path d="M16.1298 6.85474L13.8578 10.7891L14.6396 12.1467L18.4752 5.5H10.804L11.5858 6.85474H16.1298Z" fill="#FFFFFC"/>
<path d="M9.23761 8.20947L16.1298 20.1453H11.5858L10.804 21.5H18.4752L9.23761 5.5L0 21.5H9.23761L12.1362 16.4818L11.3544 15.1271L8.45582 20.1453H2.34821L9.23761 8.20947Z" fill="#FFFFFC"/>
<path d="M9.23761 15.0114C9.89228 15.0114 10.423 14.4807 10.423 13.826C10.423 13.1713 9.89228 12.6406 9.23761 12.6406C8.58293 12.6406 8.05222 13.1713 8.05222 13.826C8.05222 14.4807 8.58293 15.0114 9.23761 15.0114Z" fill="#FFFFFC"/>
<path d="M85.5488 19.0783H76.4071V18.336H80.5165V16.445H77.553V13.363H83.528V11.7881H77.5304V11.0571H84.3916V14.0827H78.428V15.714H84.6259V16.445H81.3801V18.336H85.546V19.0783H85.5488Z" fill="#FFFFFC"/>
<path d="M86.0004 18.223H95.142V18.954H86.0004V18.223ZM91.5266 13.3686C91.8935 13.8738 92.362 14.3056 92.9321 14.6584C93.5022 15.0112 94.0808 15.2454 94.6707 15.3527L94.2671 16.095C93.7534 15.9736 93.251 15.7789 92.7599 15.5108C92.2689 15.2398 91.8257 14.9068 91.4306 14.5088C91.0355 14.1109 90.7363 13.6762 90.5274 13.2049C90.3186 13.6762 90.0166 14.1109 89.6243 14.506C89.232 14.9011 88.7889 15.2342 88.295 15.5079C87.8039 15.7789 87.3015 15.9764 86.7878 16.095L86.3842 15.3527C86.9713 15.2398 87.5498 15.0084 88.1171 14.6556C88.6844 14.3028 89.1501 13.8738 89.5114 13.3686C89.8727 12.8634 90.0561 12.3356 90.0561 11.7881V11.0232H90.9762V11.7881C90.9762 12.3356 91.1597 12.8634 91.5266 13.3686Z" fill="#FFFFFC"/>
<path d="M103.533 11.5059C103.533 12.0309 103.519 12.5022 103.491 12.9227C103.462 13.3433 103.397 13.8118 103.29 14.3283H104.687V15.0367H100.567V16.1064H103.609V18.4235H97.5664V19.4706H103.956V20.179H96.6915V17.7603H102.734V16.7922H96.6717V16.1064H99.7029V15.0367H95.6049V14.3283H102.404C102.497 13.9021 102.565 13.4816 102.607 13.0695L96.6266 13.3291L96.5137 12.6207L102.644 12.4457C102.652 12.3159 102.655 12.124 102.655 11.8728V11.4833H96.7479V10.7749H103.53V11.5059H103.533Z" fill="#FFFFFC"/>
<path d="M57.1614 6.84912H55.7474V16.7472H57.1614V6.84912Z" fill="#FFFFFC"/>
<path d="M50.5119 7.20752C48.5588 7.20752 46.9783 8.79087 46.9783 10.7411C46.9783 12.6914 48.5617 14.2747 50.5119 14.2747C52.4622 14.2747 54.0455 12.6914 54.0455 10.7411C54.0455 8.79087 52.4622 7.20752 50.5119 7.20752ZM50.5119 12.9623C49.4027 12.9623 48.5024 11.9689 48.5024 10.7439C48.5024 9.51904 49.4027 8.52556 50.5119 8.52556C51.6211 8.52556 52.5214 9.51904 52.5214 10.7439C52.5214 11.9689 51.6211 12.9623 50.5119 12.9623Z" fill="#FFFFFC"/>
<path d="M50.1591 18.4434V15.3303H48.7451V18.6325L49.4535 19.8546H57.4408V18.4434H50.1591Z" fill="#FFFFFC"/>
<path d="M21.1621 14.9155H22.8583L25.4041 10.5324L27.9499 14.9155H29.649L25.4041 7.56323L21.1621 14.9155Z" fill="#FFFFFC"/>
<path d="M31.9097 6.84912H30.4957V20.1397H31.9097V6.84912Z" fill="#FFFFFC"/>
<path d="M69.9693 6.84912V10.8061H68.2731V6.84912H66.8591V20.1397H68.2731V12.2201H69.9693V20.1397H71.3833V6.84912H69.9693Z" fill="#FFFFFC"/>
<path d="M63.6105 10.1993V8.97724H65.7358V7.56323H60.0713V8.97724H62.1965V10.1993L59.4758 14.9155H61.1071L62.9021 11.8052L64.7 14.9155H66.3313L63.6105 10.1993Z" fill="#FFFFFC"/>
<path d="M43.5322 6.84912V10.8061H41.8614V6.84912H40.4474V13.493H35.3558V8.96872H39.3269V7.55471H33.9418V13.6821L34.6502 14.907H40.4474V20.1397H41.8614V12.2201H43.5322V20.1397H44.9462V6.84912H43.5322Z" fill="#FFFFFC"/>
</g>
</g>
<defs>
<clipPath id="clip0_3143_42567">
<rect width="104.69" height="26" fill="white" transform="translate(0 0.5)"/>
</clipPath>
<clipPath id="clip1_3143_42567">
<rect width="104.69" height="16" fill="white" transform="translate(0 5.5)"/>
</clipPath>
</defs>
</svg>
