<svg width="102" height="26" viewBox="0 0 102 26" fill="none" xmlns="http://www.w3.org/2000/svg">
<g clip-path="url(#clip0_1395_2876)">
<path fill-rule="evenodd" clip-rule="evenodd" d="M16.0445 19.6453L9.18876 7.70947L2.33579 19.6453H8.4111L11.2943 14.6271L12.072 15.9818L9.18876 21H0L9.18876 5L18.3775 21H10.7469L11.5246 19.6453H16.0445ZM16.0445 6.35474L13.7845 10.2891L14.5622 11.6467L18.3775 5H10.7469L11.5245 6.35474H16.0445ZM10.3684 13.326C10.3684 13.9808 9.84061 14.5114 9.18928 14.5114C8.53795 14.5114 8.01016 13.9808 8.01016 13.326C8.01016 12.6712 8.53795 12.1406 9.18928 12.1406C9.84061 12.1406 10.3684 12.6712 10.3684 13.326ZM76.8951 9.85781H75.9406V19.6542H81.5022V18.7878H76.8951V9.85781ZM82.53 19.6542L86.0618 9.85771H87.0949L90.6267 19.6542H89.6188L88.5969 16.7443H84.5542L83.5323 19.6542H82.53ZM88.2993 15.8919L86.612 11.1024H86.5447L84.8602 15.8919H88.2993ZM90.9097 9.85771H89.9299L92.5885 19.6542H93.6104L95.8396 11.4665H95.9069L98.136 19.6542H99.158L101.817 9.85771H100.837L98.6751 18.1809H98.5937L96.4179 9.85771H95.3286L93.1528 18.1809H93.0714L90.9097 9.85771ZM56.8597 6.34922H55.4531V16.2473H56.8597V6.34922ZM46.7297 10.241C46.7297 8.29077 48.3019 6.70742 50.2446 6.70742C52.1846 6.70742 53.7595 8.29077 53.7595 10.241C53.7595 12.1913 52.1846 13.7746 50.2446 13.7746C48.3047 13.7746 46.7297 12.1913 46.7297 10.241ZM48.2457 10.2438C48.2457 11.4688 49.1413 12.4622 50.2446 12.4622C51.3479 12.4622 52.2435 11.4688 52.2435 10.2438C52.2435 9.01894 51.3479 8.02547 50.2446 8.02547C49.1413 8.02547 48.2457 9.01894 48.2457 10.2438ZM49.894 17.9435V14.8305H48.4875V18.1326L49.1922 19.3547H57.1372V17.9435H49.894ZM22.7381 14.4155H21.0508L25.2704 7.06328L29.4928 14.4155H27.8027L25.2704 10.0324L22.7381 14.4155ZM31.7401 6.34922H30.3336V19.6397H31.7401V6.34922ZM69.5993 10.3062V6.34922H71.0058V19.6397H69.5993V11.7202H67.912V19.6397H66.5055V6.34922H67.912V10.3062H69.5993ZM63.2738 9.69937V8.47729H65.3878V7.06328H59.7533V8.47729H61.8673V9.69937L59.1609 14.4155H60.7836L62.5692 11.3053L64.3547 14.4155H65.9802L63.2738 9.69937ZM43.3014 10.3062V6.34922H44.7079V19.6397H43.3014V11.7202H41.6394V19.6397H40.2329V14.4071H34.4664L33.7617 13.1822V7.05481H39.1183V8.46882H35.1682V12.9931H40.2329V6.34922H41.6394V10.3062H43.3014Z" fill="#2C2923"/>
</g>
<defs>
<clipPath id="clip0_1395_2876">
<rect width="101.817" height="26" fill="white"/>
</clipPath>
</defs>
</svg>
