<svg width="24" height="24" viewBox="0 0 24 24" fill="none" xmlns="http://www.w3.org/2000/svg">
<mask id="mask0_3586_136214" style="mask-type:alpha" maskUnits="userSpaceOnUse" x="0" y="0" width="24" height="24">
<rect width="24" height="24" fill="#D9D9D9"/>
</mask>
<g mask="url(#mask0_3586_136214)">
<path d="M9.54976 15.8801L18.3518 7.07814C18.4491 6.98081 18.5638 6.92889 18.696 6.92239C18.828 6.91606 18.9491 6.96798 19.0593 7.07814C19.1696 7.18848 19.2248 7.30739 19.2248 7.43489C19.2248 7.56256 19.1696 7.68148 19.0593 7.79164L10.1153 16.7416C9.9536 16.9031 9.7651 16.9839 9.54976 16.9839C9.33443 16.9839 9.14593 16.9031 8.98426 16.7416L4.93426 12.6916C4.83693 12.5943 4.78601 12.4786 4.78151 12.3446C4.77701 12.2106 4.82993 12.0885 4.94026 11.9781C5.05043 11.868 5.16926 11.8129 5.29676 11.8129C5.42443 11.8129 5.54335 11.868 5.65351 11.9781L9.54976 15.8801Z" fill="#A07D3B"/>
</g>
</svg>
