<svg width="24" height="28" viewBox="0 0 24 28" fill="none" xmlns="http://www.w3.org/2000/svg">
<mask id="mask0_1518_68023" style="mask-type:alpha" maskUnits="userSpaceOnUse" x="0" y="4" width="24" height="24">
<rect y="4" width="24" height="24" fill="#D9D9D9"/>
</mask>
<g mask="url(#mask0_1518_68023)">
<path d="M19.2025 15.4091C19.0572 13.5044 18.3171 11.8847 16.9823 10.5498C15.6476 9.21501 14.0322 8.47917 12.136 8.34234V7.49634C13.203 7.55267 14.2039 7.79592 15.1388 8.22609C16.0736 8.65625 16.8943 9.22676 17.601 9.93759C18.3077 10.6484 18.876 11.4713 19.306 12.4061C19.7362 13.3409 19.9838 14.3419 20.0488 15.4091H19.2025ZM15.1295 15.4091C14.9842 14.6399 14.6413 13.9803 14.1008 13.4303C13.5601 12.8803 12.9052 12.5433 12.136 12.4193V11.5731C13.1398 11.6971 13.9944 12.1143 14.6998 12.8248C15.4051 13.5353 15.8304 14.3968 15.9758 15.4091H15.1295ZM18.9065 24.0001C17.2693 24.0001 15.5695 23.5739 13.807 22.7216C12.0447 21.8693 10.3926 20.6722 8.85075 19.1303C7.32158 17.5883 6.13083 15.9393 5.2785 14.1833C4.42617 12.4273 4 10.7308 4 9.09359C4 8.78676 4.10233 8.52775 4.307 8.31659C4.51167 8.10559 4.76742 8.00009 5.07425 8.00009H7.3695C7.65217 8.00009 7.89142 8.08634 8.08725 8.25884C8.28292 8.43117 8.41925 8.65817 8.49625 8.93984L9.00775 11.2133C9.04625 11.4832 9.03467 11.7232 8.973 11.9333C8.9115 12.1437 8.80425 12.3168 8.65125 12.4526L6.4365 14.5193C6.87933 15.2992 7.35317 16.0196 7.858 16.6806C8.363 17.3414 8.89942 17.9603 9.46725 18.5373C10.0806 19.1617 10.7393 19.7342 11.4435 20.2548C12.1478 20.7757 12.9175 21.2647 13.7525 21.7218L15.9078 19.5168C16.0731 19.336 16.2542 19.2162 16.451 19.1573C16.6478 19.0987 16.8663 19.086 17.1065 19.1193L19.0603 19.5423C19.3431 19.6005 19.5704 19.7378 19.7423 19.9541C19.9141 20.1703 20 20.4181 20 20.6976V22.9258C20 23.2327 19.8945 23.4884 19.6835 23.6931C19.4723 23.8978 19.2133 24.0001 18.9065 24.0001ZM6.02375 13.7513L8.06475 11.8603C8.12025 11.809 8.15767 11.7385 8.177 11.6488C8.19617 11.559 8.19725 11.4757 8.18025 11.3988L7.68725 9.15384C7.67008 9.05134 7.62733 8.97442 7.559 8.92309C7.49067 8.87192 7.40517 8.84634 7.3025 8.84634H5.11725C5.04042 8.84634 4.97633 8.87192 4.925 8.92309C4.87367 8.97442 4.848 9.03859 4.848 9.11559C4.851 9.80142 4.95533 10.533 5.161 11.3103C5.3665 12.0877 5.65408 12.9013 6.02375 13.7513ZM14.5673 22.1181C15.2481 22.4664 15.9912 22.7254 16.7965 22.8951C17.6018 23.0646 18.2978 23.1538 18.8845 23.1628C18.9615 23.1628 19.0257 23.1373 19.077 23.0861C19.1282 23.0348 19.1538 22.9706 19.1538 22.8936V20.7361C19.1538 20.6334 19.1282 20.5479 19.077 20.4796C19.0257 20.4113 18.9488 20.3685 18.8463 20.3513L16.923 19.9521C16.8462 19.9349 16.7789 19.936 16.7213 19.9553C16.6634 19.9745 16.6025 20.0118 16.5385 20.0673L14.5673 22.1181Z" fill="#2C2923"/>
</g>
</svg>
