<svg width="24" height="24" viewBox="0 0 24 24" fill="none" xmlns="http://www.w3.org/2000/svg">
<mask id="mask0_4594_38568" style="mask-type:alpha" maskUnits="userSpaceOnUse" x="0" y="0" width="24" height="24">
<rect width="24" height="24" fill="#D9D9D9"/>
</mask>
<g mask="url(#mask0_4594_38568)">
<path d="M11.9998 15.68L8.3602 12.0404L9.08818 11.3006L11.4855 13.6979V4.80078H12.5141V13.6979L14.9114 11.3006L15.6394 12.0404L11.9998 15.68ZM6.46146 19.2008C5.98798 19.2008 5.59266 19.0422 5.27552 18.7251C4.95838 18.4079 4.7998 18.0126 4.7998 17.5391V15.0469H5.82838V17.5391C5.82838 17.6975 5.89429 17.8426 6.02612 17.9745C6.15795 18.1063 6.30306 18.1722 6.46146 18.1722H17.5381C17.6965 18.1722 17.8417 18.1063 17.9735 17.9745C18.1053 17.8426 18.1712 17.6975 18.1712 17.5391V15.0469H19.1998V17.5391C19.1998 18.0126 19.0412 18.4079 18.7241 18.7251C18.4069 19.0422 18.0116 19.2008 17.5381 19.2008H6.46146Z" fill="#A07D3B"/>
</g>
</svg>
