<svg width="24" height="24" viewBox="0 0 24 24" fill="none" xmlns="http://www.w3.org/2000/svg">
<mask id="mask0_3586_184948" style="mask-type:alpha" maskUnits="userSpaceOnUse" x="0" y="0" width="24" height="24">
<rect width="24" height="24" fill="#D9D9D9"/>
</mask>
<g mask="url(#mask0_3586_184948)">
<path d="M6.15395 21C5.73965 21 5.39375 20.8621 5.11625 20.5862C4.83875 20.3103 4.7 19.9664 4.7 19.5546L3 9.91913C3 9.50725 3.13875 9.16338 3.41625 8.8875C3.69375 8.61162 4.03965 8.47368 4.45395 8.47368H7.85V6.13158C7.85 5.26204 8.15637 4.52277 8.76912 3.91375C9.38172 3.30458 10.1253 3 12 3C13.8747 3 14.6183 3.30458 15.2309 3.91375C15.8436 4.52277 16.15 5.26204 16.15 6.13158V8.47368H19.546C19.9604 8.47368 20.3062 8.61162 20.5837 8.8875C20.8612 9.16338 21 9.50725 21 9.91913L19.3 19.5546C19.3 19.9664 19.1612 20.3103 18.8837 20.5862C18.6062 20.8621 18.2604 21 17.8461 21H6.15395ZM6.15395 20.1053H17.8461C17.9847 20.1053 18.1116 20.0479 18.227 19.9333C18.3423 19.8186 18.4 19.6923 18.4 19.5546L20.1 9.91913C20.1 9.78134 20.0423 9.65511 19.927 9.54043C19.8116 9.42576 19.6846 9.36842 19.546 9.36842H17.348H16.15V10.6053C16.15 10.7326 16.107 10.839 16.0211 10.9245C15.9351 11.0099 15.8281 11.0526 15.7 11.0526C15.5719 11.0526 15.4649 11.0099 15.3789 10.9245C15.293 10.839 15.25 10.7326 15.25 10.6053V9.36842H8.75V10.6053C8.75 10.7326 8.70702 10.839 8.62107 10.9245C8.53512 11.0099 8.4281 11.0526 8.3 11.0526C8.1719 11.0526 8.06488 11.0099 7.97893 10.9245C7.89298 10.839 7.85 10.7326 7.85 10.6053V9.36842H4.45395C4.31535 9.36842 4.18838 9.42576 4.07303 9.54043C3.95768 9.65511 3.9 9.78134 3.9 9.91913L5.6 19.5546C5.6 19.6923 5.65768 19.8186 5.77303 19.9333C5.88838 20.0479 6.01535 20.1053 6.15395 20.1053ZM8.75 8.47368H15.25V6.13158C15.25 5.50183 15.0334 4.97155 14.6002 4.54074C14.1669 4.11007 13.6334 3.89474 12 3.89474C10.3665 3.89474 9.83315 4.11007 9.3998 4.54074C8.9666 4.97155 8.75 5.50183 8.75 6.13158V8.47368Z" fill="#2C2923"/>
</g>
</svg>
