<svg width="20" height="20" viewBox="0 0 20 20" fill="none" xmlns="http://www.w3.org/2000/svg">
<mask id="mask0_3814_40439" style="mask-type:alpha" maskUnits="userSpaceOnUse" x="0" y="0" width="20" height="20">
<rect width="20" height="20" fill="#D9D9D9"/>
</mask>
<g mask="url(#mask0_3814_40439)">
<path d="M10 12.555L7.4725 10.0275L7.97804 9.51375L9.64286 11.1786V5H10.3571V11.1786L12.022 9.51375L12.5275 10.0275L10 12.555ZM6.15393 15C5.82512 15 5.5506 14.8899 5.33036 14.6696C5.11012 14.4494 5 14.1749 5 13.8461V12.1154H5.71429V13.8461C5.71429 13.9561 5.76006 14.0568 5.85161 14.1484C5.94315 14.2399 6.04393 14.2857 6.15393 14.2857H13.8461C13.9561 14.2857 14.0568 14.2399 14.1484 14.1484C14.2399 14.0568 14.2857 13.9561 14.2857 13.8461V12.1154H15V13.8461C15 14.1749 14.8899 14.4494 14.6696 14.6696C14.4494 14.8899 14.1749 15 13.8461 15H6.15393Z" fill="#A07D3B"/>
</g>
</svg>
