<svg width="24" height="24" viewBox="0 0 24 24" fill="none" xmlns="http://www.w3.org/2000/svg">
<mask id="mask0_3586_184941" style="mask-type:alpha" maskUnits="userSpaceOnUse" x="0" y="0" width="24" height="24">
<rect width="24" height="24" fill="#D9D9D9"/>
</mask>
<g mask="url(#mask0_3586_184941)">
<path d="M10 15.5769L15.5769 12L10 8.42307V15.5769ZM3.61538 20C3.15513 20 2.77083 19.8458 2.4625 19.5375C2.15417 19.2292 2 18.8449 2 18.3846V5.61537C2 5.15512 2.15417 4.77083 2.4625 4.4625C2.77083 4.15417 3.15513 4 3.61538 4H20.3846C20.8449 4 21.2292 4.15417 21.5375 4.4625C21.8458 4.77083 22 5.15512 22 5.61537V18.3846C22 18.8449 21.8458 19.2292 21.5375 19.5375C21.2292 19.8458 20.8449 20 20.3846 20H3.61538ZM3.61538 19H20.3846C20.5385 19 20.6795 18.9359 20.8077 18.8077C20.9359 18.6795 21 18.5385 21 18.3846V5.61537C21 5.46154 20.9359 5.32052 20.8077 5.1923C20.6795 5.0641 20.5385 5 20.3846 5H3.61538C3.46154 5 3.32052 5.0641 3.1923 5.1923C3.0641 5.32052 3 5.46154 3 5.61537V18.3846C3 18.5385 3.0641 18.6795 3.1923 18.8077C3.32052 18.9359 3.46154 19 3.61538 19Z" fill="#2C2923"/>
</g>
</svg>
