<svg width="24" height="25" viewBox="0 0 24 25" fill="none" xmlns="http://www.w3.org/2000/svg">
<mask id="mask0_1518_68029" style="mask-type:alpha" maskUnits="userSpaceOnUse" x="0" y="0" width="24" height="25">
<rect y="0.5" width="24" height="24" fill="#D9D9D9"/>
</mask>
<g mask="url(#mask0_1518_68029)">
<path d="M12 12.441L3.84625 7.032V18.0385C3.84625 18.218 3.90392 18.3654 4.01925 18.4808C4.13458 18.5961 4.282 18.6538 4.4615 18.6538H13.577V19.5H4.4615C4.05183 19.5 3.70583 19.3588 3.4235 19.0765C3.14117 18.7942 3 18.4482 3 18.0385V6.9615C3 6.55183 3.14117 6.20583 3.4235 5.9235C3.70583 5.64117 4.05183 5.5 4.4615 5.5H19.5385C19.9482 5.5 20.2942 5.64117 20.5765 5.9235C20.8588 6.20583 21 6.55183 21 6.9615V14.077H20.1538V7.032L12 12.441ZM12 11.4795L19.8463 6.34625H4.15375L12 11.4795ZM18.7205 22.2603L18.1373 21.677L20.27 19.5H15.0385V18.6538H20.289L18.1123 16.477L18.7205 15.8935L21.9038 19.077L18.7205 22.2603ZM3.84625 7.032V19.2783V14.077V14.252V6.34625V7.032Z" fill="#2C2923"/>
</g>
</svg>
