<svg width="20" height="20" viewBox="0 0 20 20" fill="none" xmlns="http://www.w3.org/2000/svg">
<mask id="mask0_3586_136307" style="mask-type:alpha" maskUnits="userSpaceOnUse" x="0" y="0" width="20" height="20">
<rect width="20" height="20" fill="#D9D9D9"/>
</mask>
<g mask="url(#mask0_3586_136307)">
<path d="M7.08333 6.66797V5.83464H12.9167V6.66797H7.08333ZM6.34625 18.3346C5.96264 18.3346 5.64236 18.2062 5.38542 17.9492C5.12847 17.6923 5 17.372 5 16.9884V3.01422C5 2.63061 5.12847 2.31033 5.38542 2.05339C5.64236 1.79644 5.96264 1.66797 6.34625 1.66797H13.6538C14.0374 1.66797 14.3576 1.79644 14.6146 2.05339C14.8715 2.31033 15 2.63061 15 3.01422V16.9884C15 17.372 14.8715 17.6923 14.6146 17.9492C14.3576 18.2062 14.0374 18.3346 13.6538 18.3346H6.34625ZM5.83333 16.2513V16.9884C5.83333 17.1167 5.88674 17.2343 5.99354 17.3411C6.10035 17.4479 6.21792 17.5013 6.34625 17.5013H13.6538C13.7821 17.5013 13.8997 17.4479 14.0065 17.3411C14.1133 17.2343 14.1667 17.1167 14.1667 16.9884V16.2513H5.83333ZM5.83333 15.418H14.1667V4.58464H5.83333V15.418ZM5.83333 3.7513H14.1667V3.01422C14.1667 2.88589 14.1133 2.76832 14.0065 2.66151C13.8997 2.55471 13.7821 2.5013 13.6538 2.5013H6.34625C6.21792 2.5013 6.10035 2.55471 5.99354 2.66151C5.88674 2.76832 5.83333 2.88589 5.83333 3.01422V3.7513Z" fill="#2C2923"/>
</g>
</svg>
