<svg width="144" height="32" viewBox="0 0 144 32" fill="none" xmlns="http://www.w3.org/2000/svg">
<g clip-path="url(#clip0_3143_42678)">
<path fill-rule="evenodd" clip-rule="evenodd" d="M22.187 25.1372L12.7066 8.72552L3.23002 25.1372H11.6312L15.6182 18.2373L16.6936 20.1L12.7066 27H0L12.7066 5L25.4131 27H14.8612L15.9366 25.1372H22.187ZM22.1869 6.86276L19.0617 12.2725L20.1371 14.1392L25.4131 5H14.8611L15.9365 6.86276H22.1869ZM12.7051 18.0782C13.6056 18.0782 14.3356 17.3485 14.3356 16.4483C14.3356 15.5481 13.6056 14.8184 12.7051 14.8184C11.8046 14.8184 11.0745 15.5481 11.0745 16.4483C11.0745 17.3485 11.8046 18.0782 12.7051 18.0782ZM105.1 23.6702H117.671V22.6496H111.94V20.0495H116.405V19.0444H107.88V16.8013H116.083V12.6411H106.645V13.6462H114.895V15.8117H106.676V20.0495H110.752V22.6496H105.1V23.6702ZM118.296 22.494H130.871V23.4992H118.296V22.494ZM125.898 15.8191C126.402 16.5138 127.047 17.1076 127.831 17.5927C128.615 18.0777 129.411 18.3998 130.223 18.5473L129.667 19.568C128.961 19.4011 128.27 19.1333 127.594 18.7646C126.919 18.3921 126.309 17.9342 125.766 17.387C125.222 16.8398 124.811 16.2421 124.523 15.5941C124.236 16.2421 123.821 16.8398 123.281 17.3831C122.741 17.9264 122.132 18.3843 121.453 18.7608C120.777 19.1333 120.086 19.405 119.379 19.568L118.824 18.5473C119.632 18.3921 120.428 18.0739 121.208 17.5888C121.988 17.1037 122.629 16.5138 123.126 15.8191C123.623 15.1245 123.875 14.3988 123.875 13.6459V12.5942H125.141V13.6459C125.141 14.3988 125.393 15.1245 125.898 15.8191ZM142.355 15.2062C142.394 14.628 142.414 13.9799 142.414 13.258H142.41V12.2529H133.081V13.227H141.206V13.7625C141.206 14.1079 141.202 14.3718 141.191 14.5503L132.758 14.7909L132.914 15.765L141.14 15.408C141.082 15.9746 140.989 16.5528 140.861 17.1388H131.508V18.1129H137.145V19.5837H132.976V20.5267H141.315V21.8578H133.003V25.1836H142.996V24.2095H134.207V22.7698H142.518V19.5837H138.333V18.1129H144.001V17.1388H142.08C142.227 16.4286 142.317 15.7844 142.355 15.2062ZM78.6266 6.85498H76.6823V20.4648H78.6266V6.85498ZM64.6191 12.2064C64.6191 9.52476 66.7932 7.34766 69.4797 7.34766C72.1623 7.34766 74.3402 9.52476 74.3402 12.2064C74.3402 14.888 72.1623 17.0651 69.4797 17.0651C66.797 17.0651 64.6191 14.888 64.6191 12.2064ZM66.7155 12.2102C66.7155 13.8945 67.9539 15.2605 69.4797 15.2605C71.0054 15.2605 72.2438 13.8945 72.2438 12.2102C72.2438 10.526 71.0054 9.15997 69.4797 9.15997C67.9539 9.15997 66.7155 10.526 66.7155 12.2102ZM68.9947 22.7971V18.5166H67.0497V23.0571L68.0242 24.7375H79.0109V22.7971H68.9947ZM31.4408 17.9463H29.1076L34.9426 7.83691L40.7815 17.9463H38.4444L34.9426 11.9195L31.4408 17.9463ZM43.8888 6.85498H41.9445V25.1295H43.8888V6.85498ZM96.2425 12.2958V6.85498H98.1875V25.1295H96.2425V14.2401H93.9092V25.1295H91.9642V6.85498H93.9092V12.2958H96.2425ZM87.4955 11.4614V9.78107H90.4188V7.83681H82.6272V9.78107H85.5505V11.4614L81.808 17.9462H84.0519L86.521 13.6696L88.994 17.9462H91.238L87.4955 11.4614ZM59.8771 12.2958V6.85498H61.8221V25.1295H59.8771V14.2401H57.5788V25.1295H55.6338V17.9345H47.6597L46.6852 16.2503V7.82517H54.0925V9.76943H48.6302V15.9903H55.6338V6.85498H57.5788V12.2958H59.8771Z" fill="#FFFFFC"/>
</g>
<defs>
<clipPath id="clip0_3143_42678">
<rect width="144" height="32" fill="white"/>
</clipPath>
</defs>
</svg>
