<svg width="140" height="22" viewBox="0 0 140 22" fill="none" xmlns="http://www.w3.org/2000/svg">
<g clip-path="url(#clip0_1395_2951)">
<path fill-rule="evenodd" clip-rule="evenodd" d="M22.0612 20.1372L12.6345 3.72552L3.21171 20.1372H11.5653L15.5297 13.2373L16.599 15.1L12.6345 22H0L12.6345 0L25.2691 22H14.777L15.8463 20.1372H22.0612ZM22.0619 1.86276L18.9544 7.27253L20.0237 9.13918L25.2698 0H14.7777L15.847 1.86276H22.0619ZM14.256 11.4483C14.256 12.3486 13.5303 13.0782 12.6347 13.0782C11.7392 13.0782 11.0134 12.3486 11.0134 11.4483C11.0134 10.5479 11.7392 9.81836 12.6347 9.81836C13.5303 9.81836 14.256 10.5479 14.256 11.4483ZM105.731 6.6792H104.419V20.1493H112.066V18.9579H105.731V6.6792ZM113.48 20.1493L118.336 6.6792H119.756L124.613 20.1493H123.227L121.822 16.1482H116.263L114.858 20.1493H113.48ZM121.412 14.9763L119.092 8.39061H119L116.684 14.9763H121.412ZM125.002 6.6792H123.655L127.31 20.1493H128.715L131.78 8.89123H131.873L134.938 20.1493H136.343L139.999 6.6792H138.652L135.679 18.1235H135.567L132.576 6.6792H131.078L128.086 18.1235H127.974L125.002 6.6792ZM78.182 1.85482H76.248V15.4646H78.182V1.85482ZM64.2526 7.20632C64.2526 4.52472 66.4143 2.34762 69.0856 2.34762C71.753 2.34762 73.9186 4.52472 73.9186 7.20632C73.9186 9.88792 71.753 12.065 69.0856 12.065C66.4182 12.065 64.2526 9.88792 64.2526 7.20632ZM66.3371 7.2102C66.3371 8.89445 67.5685 10.2605 69.0856 10.2605C70.6027 10.2605 71.8341 8.89445 71.8341 7.2102C71.8341 5.52595 70.6027 4.15993 69.0856 4.15993C67.5685 4.15993 66.3371 5.52595 66.3371 7.2102ZM68.6036 17.7977V13.5173H66.6696V18.0577L67.6385 19.7381H78.563V17.7977H68.6036ZM31.2639 12.9462H28.9439L34.7459 2.83683L40.5517 12.9462H38.2278L34.7459 6.91939L31.2639 12.9462ZM43.6432 1.85482H41.7092V20.1293H43.6432V1.85482ZM95.6995 7.29564V1.85482H97.6335V20.1293H95.6995V9.23989H93.3795V20.1293H91.4456V1.85482H93.3795V7.29564H95.6995ZM87.0023 6.46146V4.78109H89.909V2.83683H82.1615V4.78109H85.0683V6.46146L81.347 12.9462H83.5782L86.0333 8.66961L88.4884 12.9462H90.7235L87.0023 6.46146ZM59.5403 7.29564V1.85482H61.4743V20.1293H59.5403V9.23989H57.2551V20.1293H55.3211V12.9344H47.3922L46.4233 11.2501V2.82501H53.7886V4.76926H48.3572V10.9901H55.3211V1.85482H57.2551V7.29564H59.5403Z" fill="#2C2923"/>
</g>
<defs>
<clipPath id="clip0_1395_2951">
<rect width="139.999" height="22" fill="white"/>
</clipPath>
</defs>
</svg>
