<svg width="143" height="20" viewBox="0 0 143 20" fill="none" xmlns="http://www.w3.org/2000/svg">
<g clip-path="url(#clip0_4275_54365)">
<path d="M20.1601 1.69127L17.318 6.60996L18.2987 8.30623L23.0923 0H13.5001L14.4809 1.69127H20.1601Z" fill="#FFFFFD"/>
<path d="M20.1601 1.69127L17.318 6.60996L18.2987 8.30623L23.0923 0H13.5001L14.4809 1.69127H20.1601Z" fill="#FFFFFD"/>
<path d="M11.5437 3.38754L20.1601 18.3037H14.4809L13.5001 20H23.0923L11.5437 0L0 20H11.5437L15.1664 13.7253L14.1906 12.029L10.5679 18.3037H2.9322L11.5437 3.38754Z" fill="#FFFFFD"/>
<path d="M11.5437 11.889C12.3617 11.889 13.0248 11.2259 13.0248 10.4079C13.0248 9.58987 12.3617 8.92676 11.5437 8.92676C10.7257 8.92676 10.0626 9.58987 10.0626 10.4079C10.0626 11.2259 10.7257 11.889 11.5437 11.889Z" fill="#FFFFFD"/>
<path d="M71.7238 1.17578H69.8474V14.3006H71.7238V1.17578Z" fill="#FFFFFD"/>
<path d="M62.9072 1.65625C60.3202 1.65625 58.2187 3.75282 58.2187 6.34477C58.2187 8.93671 60.3202 11.0333 62.9072 11.0333C65.4941 11.0333 67.5957 8.93671 67.5957 6.34477C67.5957 3.75282 65.4941 1.65625 62.9072 1.65625ZM62.9072 9.28197C61.4361 9.28197 60.2402 7.96598 60.2402 6.33976C60.2402 4.71354 61.4311 3.39756 62.9072 3.39756C64.3833 3.39756 65.5742 4.71354 65.5742 6.33976C65.5742 7.96598 64.3833 9.28197 62.9072 9.28197Z" fill="#FFFFFD"/>
<path d="M62.4368 16.5523V12.4292H60.5654V16.8075L61.5011 18.4287H72.0991V16.5523H62.4368Z" fill="#FFFFFD"/>
<path d="M23.978 11.8789H26.2297L29.6072 6.06454L32.9797 11.8789H35.2314L29.6072 2.12158L23.978 11.8789Z" fill="#FFFFFD"/>
<path d="M38.2337 1.17578H36.3573V18.804H38.2337V1.17578Z" fill="#FFFFFD"/>
<path d="M88.7115 1.17578V6.42472H86.4598V1.17578H84.5884V18.804H86.4598V8.30113H88.7115V18.804H90.5879V1.17578H88.7115Z" fill="#FFFFFD"/>
<path d="M80.2802 5.62421V3.99799H83.0973V2.12158H75.5817V3.99799H78.4038V5.62421L74.7911 11.8739H76.9577L79.3395 7.7508L81.7213 11.8739H83.8879L80.2802 5.62421Z" fill="#FFFFFD"/>
<path d="M53.6452 1.17578V6.42472H51.4336V1.17578H49.5572V9.99239H42.8021V3.98789H48.071V2.11148H40.9307V10.2426L41.8664 11.8638H49.5572V18.804H51.4336V8.30113H53.6452V18.804H55.5216V1.17578H53.6452Z" fill="#FFFFFD"/>
<path d="M96.5274 2.40674H98.7791V15.3064H105.474V17.2529H96.5324V2.40674H96.5274Z" fill="#A7A19F"/>
<path d="M107.781 2.40674H117.073V4.3532H110.033V8.84657H116.582V10.773H110.033V15.3064H117.153V17.2529H107.781V2.40674Z" fill="#A7A19F"/>
<path d="M119.835 2.40674H129.127V4.3532H122.087V8.84657H128.636V10.773H122.087V15.3064H129.207V17.2529H119.835V2.40674Z" fill="#A7A19F"/>
<path d="M131.153 2.40674H142.637V4.3532H138.034V17.2529H135.782V4.3582H131.158V2.41174L131.153 2.40674Z" fill="#A7A19F"/>
</g>
<defs>
<clipPath id="clip0_4275_54365">
<rect width="142.637" height="20" fill="white"/>
</clipPath>
</defs>
</svg>
