<svg width="253" height="120" viewBox="0 0 253 120" fill="none" xmlns="http://www.w3.org/2000/svg">
<path d="M67.3004 36V35.008L72.0044 34.56H72.4204V36H67.3004ZM70.4044 36C70.5004 32.416 70.5004 28.768 70.5004 25.568V23.456C70.5004 19.776 70.5004 16.096 70.4044 12.48H74.4044C74.3084 16.096 74.3084 19.744 74.3084 23.52V25.472C74.3084 28.704 74.3084 32.384 74.4044 36H70.4044ZM72.4204 36V34.848H83.8444L81.9884 35.808L83.3964 29.44H84.9324L84.8044 36H72.4204ZM67.3004 13.504V12.48H77.6684V13.504L72.9004 13.888H72.0044L67.3004 13.504ZM99.8116 36V35.008L104.516 34.56H104.932V36H99.8116ZM102.916 36C103.012 32.416 103.012 28.768 103.012 25.056V23.456C103.012 19.776 103.012 16.128 102.916 12.48H106.916C106.82 16.064 106.82 19.744 106.82 23.712V24.544C106.82 28.704 106.82 32.384 106.916 36H102.916ZM104.932 36V34.848H117.06L115.14 35.84L116.484 29.888H118.02L117.892 36H104.932ZM104.932 24.608V23.488H112.708V24.608H104.932ZM112.42 27.84L111.972 24.288V23.616L112.42 20.128H113.732V27.84H112.42ZM99.8116 13.504V12.48H104.932V13.888H104.516L99.8116 13.504ZM115.876 18.464L114.532 12.64L116.452 13.664H104.932V12.48H117.284L117.412 18.464H115.876ZM133.417 36V35.008L138.121 34.56H138.537V36H133.417ZM136.521 36C136.617 32.416 136.617 28.768 136.617 25.056V23.456C136.617 19.776 136.617 16.128 136.521 12.48H140.521C140.425 16.064 140.425 19.744 140.425 23.712V24.544C140.425 28.704 140.425 32.384 140.521 36H136.521ZM138.537 36V34.848H150.665L148.745 35.84L150.089 29.888H151.625L151.497 36H138.537ZM138.537 24.608V23.488H146.313V24.608H138.537ZM146.025 27.84L145.577 24.288V23.616L146.025 20.128H147.337V27.84H146.025ZM133.417 13.504V12.48H138.537V13.888H138.121L133.417 13.504ZM149.481 18.464L148.137 12.64L150.057 13.664H138.537V12.48H150.889L151.017 18.464H149.481ZM170.894 36V35.008L175.79 34.56H176.846L181.838 35.008V36H170.894ZM174.35 36C174.446 32.416 174.446 28.768 174.446 25.056V23.456C174.446 19.776 174.446 16.128 174.35 12.48H178.35C178.254 16.064 178.254 19.744 178.254 23.456V25.056C178.254 28.704 178.254 32.384 178.35 36H174.35ZM166.19 18.88L166.382 12.48H186.318L186.542 18.88H184.974L183.502 12.48L185.294 13.664H167.406L169.23 12.48L167.758 18.88H166.19ZM9.28888 81.576C6.66488 81.576 3.97687 80.808 2.28087 79.72L2.47287 74.632H4.00887L5.35287 80.36L3.59287 79.592L3.33687 78.472C5.41687 79.944 6.76087 80.328 8.96887 80.328C12.3289 80.328 14.4089 78.792 14.4089 75.944C14.4089 73.672 13.3849 72.488 10.2489 71.144L8.80888 70.536C4.80888 68.808 2.72887 66.76 2.72887 63.272C2.72887 59.144 6.12087 56.904 10.6649 56.904C13.1289 56.904 15.0809 57.576 16.7129 58.696L16.5209 63.496H14.9529L13.6729 58.024L15.4969 58.856L15.6889 60.008C13.9609 58.632 12.8409 58.152 11.0169 58.152C8.10488 58.152 6.05687 59.56 6.05687 62.216C6.05687 64.552 7.46488 65.832 9.89688 66.856L11.4329 67.528C16.2649 69.608 17.8649 71.432 17.8649 74.824C17.8649 78.92 14.6009 81.576 9.28888 81.576ZM44.1834 81.576C38.9994 81.576 35.4794 78.984 35.4794 71.912V68.328C35.4794 64.712 35.4794 61.096 35.3834 57.48H39.3514C39.2874 61.064 39.2874 64.648 39.2874 68.328V71.432C39.2874 77.352 41.4634 79.496 45.2074 79.496C49.3034 79.496 51.3834 77.096 51.3514 71.112L51.2874 57.48H52.7274L52.6314 71.528C52.5674 78.376 49.6234 81.576 44.1834 81.576ZM32.4714 58.504V57.48H42.6794V58.504L37.9114 58.888H37.1114L32.4714 58.504ZM47.5114 58.504V57.48H55.8954V58.504L52.3754 58.92H51.5434L47.5114 58.504ZM70.3941 81V80.008L75.0981 79.56H75.9301L80.6341 80.008V81H70.3941ZM73.4981 81C73.5941 77.416 73.5941 73.768 73.5941 70.056V68.456C73.5941 64.776 73.5941 61.128 73.4981 57.48H77.4661C77.3381 61.096 77.3381 64.712 77.3381 69.064V69.832C77.3381 73.704 77.3381 77.384 77.4661 81H73.4981ZM88.8581 81.384C86.4261 81.384 85.2741 80.68 84.9221 78.76L83.5781 73.672C82.9701 71.048 82.1381 69.96 79.4501 69.96H75.5461V68.872H80.0901C83.6741 68.872 85.4981 66.504 85.4981 63.56C85.4981 60.424 83.7061 58.6 80.0581 58.6H75.5141V57.48H80.8581C86.1701 57.48 89.1141 59.656 89.1141 63.496C89.1141 66.6 86.7781 69.256 81.2101 69.608V69.256C85.5941 69.512 86.8101 70.952 87.5141 74.12L89.2101 80.552L87.3541 79.688L92.0261 80.008V81C91.0661 81.256 90.2021 81.384 88.8581 81.384ZM70.3941 58.504V57.48H75.5141V58.888H75.0981L70.3941 58.504ZM113.616 81.16L105.296 57.48H109.36L116.144 77.928H115.6L115.728 77.48L122.16 57.48H123.76L115.664 81.16H113.616ZM103.248 58.504V57.48H113.36V58.472L108.624 58.888H107.76L103.248 58.504ZM118.224 58.472V57.48H126.064V58.44L122.64 58.888H122.128L118.224 58.472ZM140.198 81V80.008L144.902 79.56H145.702L150.438 80.008V81H140.198ZM143.302 81C143.398 77.416 143.398 73.768 143.398 70.056V68.456C143.398 64.776 143.398 61.128 143.302 57.48H147.302C147.238 61.064 147.238 64.744 147.238 68.456V70.056C147.238 73.704 147.238 77.384 147.302 81H143.302ZM140.198 58.504V57.48H150.438V58.504L145.702 58.888H144.902L140.198 58.504ZM174.92 81.16L166.6 57.48H170.664L177.448 77.928H176.904L177.032 77.48L183.464 57.48H185.064L176.968 81.16H174.92ZM164.552 58.504V57.48H174.664V58.472L169.928 58.888H169.064L164.552 58.504ZM179.528 58.472V57.48H187.368V58.44L183.944 58.888H183.432L179.528 58.472ZM196.631 81V80.008L199.799 79.592H200.375L203.863 80.008V81H196.631ZM198.903 81L206.807 57.32H209.175L217.207 81H213.303L206.423 59.752H207.095L206.967 60.2L200.375 81H198.903ZM202.423 73.192L202.583 72.136H212.567L212.727 73.192H202.423ZM209.495 81V79.976L213.783 79.592H215.127L219.447 79.976V81H209.495ZM233.607 81V80.008L238.311 79.56H238.727V81H233.607ZM236.711 81C236.807 77.416 236.807 73.768 236.807 70.568V68.456C236.807 64.776 236.807 61.096 236.711 57.48H240.711C240.615 61.096 240.615 64.744 240.615 68.52V70.472C240.615 73.704 240.615 77.384 240.711 81H236.711ZM238.727 81V79.848H250.151L248.295 80.808L249.703 74.44H251.239L251.111 81H238.727ZM233.607 58.504V57.48H243.975V58.504L239.207 58.888H238.311L233.607 58.504Z" fill="#2C2923"/>
<rect x="0.5" y="108.5" width="86" height="1" fill="#504B42"/>
<path d="M98.993 115V114.412L104.901 104.85L104.761 105.382V105.172H100.155L100.659 104.794L99.987 107.538H99.203L99.329 104.64H106.833V105.242L100.953 114.832L101.065 114.132V114.482H106.007L105.503 114.846L106.287 112.032H106.987L106.917 115H98.993ZM113.51 115V114.552L115.652 114.342H115.848V115H113.51ZM114.812 115C114.854 113.432 114.854 111.794 114.854 110.156V109.498C114.854 107.86 114.854 106.25 114.812 104.64H116.884C116.842 106.222 116.842 107.86 116.842 109.582V109.974C116.842 111.766 116.842 113.39 116.884 115H114.812ZM115.848 115V114.482H121.21L120.202 114.958L120.888 112.228H121.602L121.588 115H115.848ZM115.848 109.974V109.484H119.292V109.974H115.848ZM119.138 111.388L118.928 109.834V109.54L119.138 108H119.768V111.388H119.138ZM113.51 105.102V104.64H115.848V105.284H115.652L113.51 105.102ZM120.594 107.328L119.936 104.668L120.916 105.172H115.848V104.64H121.322L121.336 107.328H120.594ZM128.295 115V114.552L130.437 114.342H130.843L132.985 114.552V115H128.295ZM129.597 115C129.639 113.432 129.639 111.794 129.639 110.156V109.498C129.639 107.86 129.639 106.25 129.597 104.64H131.641C131.599 106.236 131.599 107.832 131.599 109.708V110.072C131.599 111.766 131.599 113.39 131.641 115H129.597ZM136.541 115.196C135.379 115.196 134.777 114.846 134.623 113.88L134.119 111.794C133.881 110.632 133.531 110.128 132.397 110.128H130.661V109.624H132.621C134.189 109.624 134.903 108.588 134.903 107.3C134.903 105.928 134.133 105.144 132.621 105.144H130.633V104.64H133.083C135.463 104.64 136.779 105.592 136.779 107.272C136.779 108.588 135.771 109.778 133.125 109.932V109.778C135.337 109.89 135.911 110.59 136.205 112.06L136.849 114.846L135.869 114.412L138.053 114.552V115C137.563 115.126 137.171 115.196 136.541 115.196ZM128.295 105.102V104.64H130.633V105.284H130.437L128.295 105.102ZM148.853 115.266C146.277 115.266 144.023 113.376 144.023 109.82C144.023 106.306 146.277 104.374 148.853 104.374C151.443 104.374 153.683 106.278 153.683 109.82C153.683 113.348 151.457 115.266 148.853 115.266ZM148.853 114.748C150.715 114.748 151.597 112.62 151.597 109.82C151.597 107.034 150.715 104.892 148.853 104.892C147.005 104.892 146.109 107.034 146.109 109.82C146.109 112.62 147.005 114.748 148.853 114.748Z" fill="#2C2923"/>
<rect x="166.5" y="108.5" width="86" height="1" fill="#504B42"/>
</svg>
